<ttFont>
    <TTGlyph name="A" xMin="2" yMin="-49" xMax="1888" yMax="1397">
      <contour>
        <pt x="1888" y="-27" on="1"/>
        <pt x="1028" y="0" on="1"/>
        <pt x="1022" y="254" on="1"/>
        <pt x="1368" y="268" on="1"/>
        <pt x="1282" y="428" on="1"/>
        <pt x="621" y="428" on="1"/>
        <pt x="547" y="268" on="1"/>
        <pt x="874" y="266" on="1"/>
        <pt x="860" y="-49" on="1"/>
        <pt x="2" y="23" on="1"/>
        <pt x="8" y="274" on="1"/>
        <pt x="268" y="272" on="1"/>
        <pt x="750" y="1092" on="1"/>
        <pt x="289" y="1073" on="1"/>
        <pt x="289" y="1397" on="1"/>
        <pt x="1141" y="1397" on="1"/>
        <pt x="1577" y="276" on="1"/>
        <pt x="1888" y="289" on="1"/>
      </contour>
      <contour>
        <pt x="684" y="565" on="1"/>
        <pt x="1208" y="565" on="1"/>
        <pt x="926" y="1090" on="1"/>
      </contour>
    </TTGlyph>
    <TTGlyph name="AE" xMin="-31" yMin="-49" xMax="2546" yMax="1397">
      <contour>
        <pt x="2042" y="588" on="1"/>
        <pt x="1534" y="625" on="1"/>
        <pt x="1534" y="383" on="1"/>
        <pt x="2351" y="383" on="1"/>
        <pt x="2390" y="578" on="1"/>
        <pt x="2546" y="578" on="1"/>
        <pt x="2511" y="57" on="1"/>
        <pt x="995" y="0" on="1"/>
        <pt x="989" y="254" on="1"/>
        <pt x="1311" y="268" on="1"/>
        <pt x="1284" y="428" on="1"/>
        <pt x="623" y="428" on="1"/>
        <pt x="489" y="268" on="1"/>
        <pt x="842" y="266" on="1"/>
        <pt x="827" y="-49" on="1"/>
        <pt x="-31" y="23" on="1"/>
        <pt x="-25" y="274" on="1"/>
        <pt x="213" y="272" on="1"/>
        <pt x="999" y="1092" on="1"/>
        <pt x="532" y="1073" on="1"/>
        <pt x="653" y="1397" on="1"/>
        <pt x="2546" y="1386" on="1"/>
        <pt x="2546" y="809" on="1"/>
        <pt x="2390" y="778" on="1"/>
        <pt x="2359" y="1124" on="1"/>
        <pt x="1530" y="1075" on="1"/>
        <pt x="1530" y="784" on="1"/>
        <pt x="2042" y="811" on="1"/>
      </contour>
      <contour>
        <pt x="737" y="565" on="1"/>
        <pt x="1262" y="565" on="1"/>
        <pt x="1176" y="1090" on="1"/>
      </contour>
    </TTGlyph>
    <TTGlyph name="AEacute" xMin="-31" yMin="-49" xMax="2546" yMax="1882">
      <component glyphName="AE" x="0" y="0" flags="0x204"/>
      <component glyphName="acute" x="1217" y="240" flags="0x4"/>
    </TTGlyph>
    <TTGlyph name="Aacute" xMin="2" yMin="-49" xMax="1888" yMax="1902">
      <component glyphName="A" x="0" y="0" flags="0x204"/>
      <component glyphName="acute" x="899" y="260" flags="0x4"/>
    </TTGlyph>
    <TTGlyph name="Abreve" xMin="2" yMin="-49" xMax="1888" yMax="1790">
      <component glyphName="A" x="0" y="0" flags="0x204"/>
      <component glyphName="breve" x="612" y="244" flags="0x4"/>
    </TTGlyph>
    <TTGlyph name="Acircumflex" xMin="2" yMin="-49" xMax="1888" yMax="1876">
      <component glyphName="A" x="0" y="0" flags="0x204"/>
      <component glyphName="circumflex" x="610" y="240" flags="0x4"/>
    </TTGlyph>
    <TTGlyph name="Adieresis" xMin="2" yMin="-49" xMax="1888" yMax="1740">
      <component glyphName="A" x="0" y="0" flags="0x204"/>
      <component glyphName="dieresis" x="604" y="276" flags="0x4"/>
    </TTGlyph>
    <TTGlyph name="Agrave" xMin="2" yMin="-49" xMax="1888" yMax="1896">
      <component glyphName="A" x="0" y="0" flags="0x204"/>
      <component glyphName="grave" x="356" y="256" flags="0x4"/>
    </TTGlyph>
    <TTGlyph name="Amacron" xMin="2" yMin="-49" xMax="1888" yMax="1733">
      <component glyphName="A" x="0" y="0" flags="0x204"/>
      <component glyphName="macron" x="569" y="244" flags="0x4"/>
    </TTGlyph>
    <TTGlyph name="Aogonek" xMin="2" yMin="-436" xMax="1888" yMax="1397">
      <contour>
        <pt x="1724" y="-383" on="1"/>
        <pt x="1655" y="-412" on="0"/>
        <pt x="1541" y="-436" on="0"/>
        <pt x="1495" y="-436" on="1"/>
        <pt x="1447" y="-436" on="0"/>
        <pt x="1357" y="-409" on="0"/>
        <pt x="1287" y="-358" on="0"/>
        <pt x="1245" y="-286" on="0"/>
        <pt x="1245" y="-240" on="1"/>
        <pt x="1245" y="-218" on="0"/>
        <pt x="1255" y="-164" on="0"/>
        <pt x="1282" y="-105" on="0"/>
        <pt x="1329" y="-42" on="0"/>
        <pt x="1366" y="-10" on="1"/>
        <pt x="1028" y="0" on="1"/>
        <pt x="1022" y="254" on="1"/>
        <pt x="1368" y="268" on="1"/>
        <pt x="1282" y="428" on="1"/>
        <pt x="621" y="428" on="1"/>
        <pt x="547" y="268" on="1"/>
        <pt x="874" y="266" on="1"/>
        <pt x="860" y="-49" on="1"/>
        <pt x="2" y="23" on="1"/>
        <pt x="8" y="274" on="1"/>
        <pt x="268" y="272" on="1"/>
        <pt x="750" y="1092" on="1"/>
        <pt x="289" y="1073" on="1"/>
        <pt x="289" y="1397" on="1"/>
        <pt x="1141" y="1397" on="1"/>
        <pt x="1577" y="276" on="1"/>
        <pt x="1888" y="289" on="1"/>
        <pt x="1888" y="-27" on="1"/>
        <pt x="1507" y="-14" on="1"/>
        <pt x="1462" y="-52" on="0"/>
        <pt x="1419" y="-113" on="0"/>
        <pt x="1411" y="-134" on="1"/>
        <pt x="1401" y="-159" on="0"/>
        <pt x="1403" y="-178" on="1"/>
        <pt x="1407" y="-189" on="0"/>
        <pt x="1418" y="-197" on="1"/>
        <pt x="1427" y="-204" on="0"/>
        <pt x="1462" y="-215" on="0"/>
        <pt x="1491" y="-215" on="1"/>
        <pt x="1520" y="-215" on="0"/>
        <pt x="1604" y="-200" on="0"/>
        <pt x="1663" y="-178" on="1"/>
      </contour>
      <contour>
        <pt x="684" y="565" on="1"/>
        <pt x="1208" y="565" on="1"/>
        <pt x="926" y="1090" on="1"/>
      </contour>
    </TTGlyph>
    <TTGlyph name="Aring" xMin="2" yMin="-49" xMax="1888" yMax="1947">
      <component glyphName="A" x="0" y="0" flags="0x204"/>
      <component glyphName="ring" x="705" y="266" flags="0x4"/>
    </TTGlyph>
    <TTGlyph name="Atilde" xMin="2" yMin="-49" xMax="1888" yMax="1753">
      <component glyphName="A" x="0" y="0" flags="0x204"/>
      <component glyphName="tilde" x="565" y="219" flags="0x4"/>
    </TTGlyph>
    <TTGlyph name="B" xMin="57" yMin="-45" xMax="1665" yMax="1479">
      <contour>
        <pt x="1665" y="385" on="1"/>
        <pt x="1665" y="290" on="0"/>
        <pt x="1580" y="132" on="0"/>
        <pt x="1413" y="18" on="0"/>
        <pt x="1164" y="-45" on="0"/>
        <pt x="999" y="-45" on="1"/>
        <pt x="882" y="-45" on="0"/>
        <pt x="639" y="-42" on="0"/>
        <pt x="398" y="-28" on="0"/>
        <pt x="165" y="1" on="0"/>
        <pt x="57" y="27" on="1"/>
        <pt x="162" y="383" on="1"/>
        <pt x="211" y="364" on="0"/>
        <pt x="309" y="336" on="0"/>
        <pt x="358" y="324" on="1"/>
        <pt x="309" y="1100" on="1"/>
        <pt x="98" y="1057" on="1"/>
        <pt x="57" y="1362" on="1"/>
        <pt x="130" y="1384" on="0"/>
        <pt x="279" y="1417" on="0"/>
        <pt x="423" y="1441" on="0"/>
        <pt x="558" y="1458" on="0"/>
        <pt x="617" y="1464" on="1"/>
        <pt x="755" y="1477" on="0"/>
        <pt x="883" y="1479" on="1"/>
        <pt x="1045" y="1479" on="0"/>
        <pt x="1326" y="1425" on="0"/>
        <pt x="1531" y="1318" on="0"/>
        <pt x="1643" y="1160" on="0"/>
        <pt x="1636" y="1057" on="1"/>
        <pt x="1630" y="967" on="0"/>
        <pt x="1519" y="809" on="0"/>
        <pt x="1413" y="748" on="1"/>
        <pt x="1460" y="728" on="0"/>
        <pt x="1532" y="675" on="0"/>
        <pt x="1585" y="616" on="0"/>
        <pt x="1621" y="555" on="0"/>
        <pt x="1633" y="526" on="1"/>
        <pt x="1660" y="458" on="0"/>
      </contour>
      <contour>
        <pt x="737" y="608" on="1"/>
        <pt x="699" y="608" on="0"/>
        <pt x="620" y="609" on="0"/>
        <pt x="578" y="612" on="1"/>
        <pt x="561" y="279" on="1"/>
        <pt x="651" y="263" on="0"/>
        <pt x="803" y="248" on="0"/>
        <pt x="860" y="244" on="1"/>
        <pt x="926" y="240" on="0"/>
        <pt x="981" y="240" on="1"/>
        <pt x="1091" y="240" on="0"/>
        <pt x="1256" y="271" on="0"/>
        <pt x="1363" y="329" on="0"/>
        <pt x="1407" y="413" on="0"/>
        <pt x="1397" y="467" on="1"/>
        <pt x="1388" y="516" on="0"/>
        <pt x="1311" y="575" on="0"/>
        <pt x="1192" y="607" on="0"/>
        <pt x="1039" y="617" on="0"/>
        <pt x="954" y="618" on="1"/>
        <pt x="903" y="612" on="0"/>
        <pt x="796" y="608" on="0"/>
      </contour>
      <contour>
        <pt x="668" y="743" on="1"/>
        <pt x="715" y="743" on="0"/>
        <pt x="848" y="747" on="0"/>
        <pt x="990" y="766" on="0"/>
        <pt x="1126" y="802" on="0"/>
        <pt x="1227" y="866" on="0"/>
        <pt x="1280" y="961" on="0"/>
        <pt x="1268" y="1030" on="1"/>
        <pt x="1263" y="1058" on="0"/>
        <pt x="1219" y="1117" on="0"/>
        <pt x="1136" y="1165" on="0"/>
        <pt x="1011" y="1196" on="0"/>
        <pt x="926" y="1196" on="1"/>
        <pt x="840" y="1196" on="0"/>
        <pt x="690" y="1179" on="0"/>
        <pt x="604" y="1163" on="1"/>
        <pt x="584" y="745" on="1"/>
        <pt x="604" y="743" on="0"/>
        <pt x="646" y="743" on="0"/>
      </contour>
    </TTGlyph>
    <TTGlyph name="C" xMin="53" yMin="-27" xMax="1745" yMax="1544">
      <contour>
        <pt x="1745" y="1493" on="1"/>
        <pt x="1477" y="778" on="1"/>
        <pt x="1343" y="811" on="1"/>
        <pt x="1372" y="958" on="1"/>
        <pt x="1291" y="1009" on="0"/>
        <pt x="1126" y="1064" on="0"/>
        <pt x="1059" y="1077" on="1"/>
        <pt x="981" y="1092" on="0"/>
        <pt x="907" y="1094" on="1"/>
        <pt x="830" y="1094" on="0"/>
        <pt x="669" y="1079" on="0"/>
        <pt x="519" y="1043" on="0"/>
        <pt x="386" y="983" on="0"/>
        <pt x="287" y="895" on="0"/>
        <pt x="229" y="774" on="0"/>
        <pt x="229" y="696" on="1"/>
        <pt x="229" y="598" on="0"/>
        <pt x="309" y="438" on="0"/>
        <pt x="462" y="324" on="0"/>
        <pt x="687" y="262" on="0"/>
        <pt x="831" y="262" on="1"/>
        <pt x="930" y="264" on="0"/>
        <pt x="1032" y="281" on="1"/>
        <pt x="1075" y="288" on="0"/>
        <pt x="1173" y="310" on="0"/>
        <pt x="1273" y="343" on="0"/>
        <pt x="1374" y="387" on="0"/>
        <pt x="1421" y="416" on="1"/>
        <pt x="1524" y="100" on="1"/>
        <pt x="1500" y="76" on="0"/>
        <pt x="1415" y="40" on="0"/>
        <pt x="1310" y="13" on="0"/>
        <pt x="1192" y="-5" on="0"/>
        <pt x="1134" y="-11" on="1"/>
        <pt x="998" y="-25" on="0"/>
        <pt x="840" y="-27" on="1"/>
        <pt x="632" y="-27" on="0"/>
        <pt x="334" y="90" on="0"/>
        <pt x="143" y="289" on="0"/>
        <pt x="53" y="551" on="0"/>
        <pt x="53" y="696" on="1"/>
        <pt x="53" y="829" on="0"/>
        <pt x="130" y="1046" on="0"/>
        <pt x="263" y="1217" on="0"/>
        <pt x="439" y="1342" on="0"/>
        <pt x="636" y="1422" on="0"/>
        <pt x="843" y="1459" on="0"/>
        <pt x="940" y="1456" on="1"/>
        <pt x="1014" y="1452" on="0"/>
        <pt x="1098" y="1439" on="1"/>
        <pt x="1170" y="1428" on="0"/>
        <pt x="1353" y="1384" on="0"/>
        <pt x="1450" y="1346" on="1"/>
        <pt x="1491" y="1544" on="1"/>
      </contour>
    </TTGlyph>
    <TTGlyph name="Cacute" xMin="53" yMin="-27" xMax="1745" yMax="1961">
      <component glyphName="C" x="0" y="0" flags="0x204"/>
      <component glyphName="acute" x="821" y="319" flags="0x4"/>
    </TTGlyph>
    <TTGlyph name="Ccaron" xMin="53" yMin="-27" xMax="1745" yMax="1937">
      <component glyphName="C" x="0" y="0" flags="0x204"/>
      <component glyphName="caron" x="520" y="315" flags="0x4"/>
    </TTGlyph>
    <TTGlyph name="Ccedilla" xMin="53" yMin="-475" xMax="1745" yMax="1544">
      <contour>
        <pt x="1120" y="-233" on="1"/>
        <pt x="1132" y="-273" on="0"/>
        <pt x="1110" y="-359" on="0"/>
        <pt x="1040" y="-429" on="0"/>
        <pt x="920" y="-475" on="0"/>
        <pt x="834" y="-475" on="1"/>
        <pt x="792" y="-475" on="0"/>
        <pt x="698" y="-465" on="0"/>
        <pt x="645" y="-451" on="1"/>
        <pt x="705" y="-283" on="1"/>
        <pt x="745" y="-292" on="0"/>
        <pt x="805" y="-299" on="0"/>
        <pt x="831" y="-299" on="1"/>
        <pt x="871" y="-299" on="0"/>
        <pt x="919" y="-284" on="0"/>
        <pt x="931" y="-274" on="1"/>
        <pt x="945" y="-263" on="0"/>
        <pt x="950" y="-248" on="1"/>
        <pt x="952" y="-230" on="0"/>
        <pt x="941" y="-216" on="1"/>
        <pt x="931" y="-204" on="0"/>
        <pt x="883" y="-184" on="0"/>
        <pt x="834" y="-184" on="1"/>
        <pt x="814" y="-184" on="0"/>
        <pt x="769" y="-188" on="0"/>
        <pt x="741" y="-193" on="1"/>
        <pt x="813" y="-25" on="1"/>
        <pt x="612" y="-21" on="0"/>
        <pt x="324" y="98" on="0"/>
        <pt x="139" y="295" on="0"/>
        <pt x="53" y="553" on="0"/>
        <pt x="53" y="696" on="1"/>
        <pt x="53" y="829" on="0"/>
        <pt x="130" y="1046" on="0"/>
        <pt x="263" y="1217" on="0"/>
        <pt x="439" y="1342" on="0"/>
        <pt x="636" y="1422" on="0"/>
        <pt x="843" y="1459" on="0"/>
        <pt x="940" y="1456" on="1"/>
        <pt x="1014" y="1452" on="0"/>
        <pt x="1098" y="1439" on="1"/>
        <pt x="1170" y="1428" on="0"/>
        <pt x="1353" y="1384" on="0"/>
        <pt x="1450" y="1346" on="1"/>
        <pt x="1491" y="1544" on="1"/>
        <pt x="1745" y="1493" on="1"/>
        <pt x="1477" y="778" on="1"/>
        <pt x="1343" y="811" on="1"/>
        <pt x="1372" y="958" on="1"/>
        <pt x="1291" y="1009" on="0"/>
        <pt x="1126" y="1064" on="0"/>
        <pt x="1059" y="1077" on="1"/>
        <pt x="981" y="1092" on="0"/>
        <pt x="907" y="1094" on="1"/>
        <pt x="830" y="1094" on="0"/>
        <pt x="669" y="1079" on="0"/>
        <pt x="519" y="1043" on="0"/>
        <pt x="386" y="983" on="0"/>
        <pt x="287" y="895" on="0"/>
        <pt x="229" y="774" on="0"/>
        <pt x="229" y="696" on="1"/>
        <pt x="229" y="598" on="0"/>
        <pt x="309" y="438" on="0"/>
        <pt x="462" y="324" on="0"/>
        <pt x="687" y="262" on="0"/>
        <pt x="831" y="262" on="1"/>
        <pt x="930" y="264" on="0"/>
        <pt x="1032" y="281" on="1"/>
        <pt x="1075" y="288" on="0"/>
        <pt x="1173" y="310" on="0"/>
        <pt x="1273" y="343" on="0"/>
        <pt x="1374" y="387" on="0"/>
        <pt x="1421" y="416" on="1"/>
        <pt x="1524" y="100" on="1"/>
        <pt x="1499" y="75" on="0"/>
        <pt x="1412" y="39" on="0"/>
        <pt x="1304" y="12" on="0"/>
        <pt x="1183" y="-6" on="0"/>
        <pt x="1066" y="-18" on="0"/>
        <pt x="959" y="-24" on="0"/>
        <pt x="920" y="-25" on="1"/>
        <pt x="889" y="-113" on="1"/>
        <pt x="960" y="-110" on="0"/>
        <pt x="1049" y="-147" on="0"/>
        <pt x="1075" y="-170" on="1"/>
        <pt x="1105" y="-197" on="0"/>
      </contour>
    </TTGlyph>
    <TTGlyph name="Ccircumflex" xMin="53" yMin="-27" xMax="1745" yMax="1937">
      <component glyphName="C" x="0" y="0" flags="0x204"/>
      <component glyphName="circumflex" x="520" y="301" flags="0x4"/>
    </TTGlyph>
    <TTGlyph name="Cdotaccent" xMin="53" yMin="-27" xMax="1745" yMax="1796">
      <component glyphName="C" x="0" y="0" flags="0x204"/>
      <component glyphName="dotaccent" x="719" y="332" flags="0x4"/>
    </TTGlyph>
    <TTGlyph name="D" xMin="53" yMin="-35" xMax="1671" yMax="1454">
      <contour>
        <pt x="1671" y="731" on="1"/>
        <pt x="1671" y="583" on="0"/>
        <pt x="1594" y="354" on="0"/>
        <pt x="1460" y="184" on="0"/>
        <pt x="1277" y="68" on="0"/>
        <pt x="1064" y="-4" on="0"/>
        <pt x="831" y="-35" on="0"/>
        <pt x="713" y="-35" on="1"/>
        <pt x="592" y="-35" on="0"/>
        <pt x="259" y="-20" on="0"/>
        <pt x="53" y="0" on="1"/>
        <pt x="129" y="367" on="1"/>
        <pt x="201" y="348" on="0"/>
        <pt x="359" y="321" on="0"/>
        <pt x="436" y="313" on="1"/>
        <pt x="373" y="1087" on="1"/>
        <pt x="311" y="1075" on="0"/>
        <pt x="183" y="1047" on="0"/>
        <pt x="115" y="1030" on="1"/>
        <pt x="53" y="1350" on="1"/>
        <pt x="166" y="1384" on="0"/>
        <pt x="386" y="1426" on="0"/>
        <pt x="582" y="1447" on="0"/>
        <pt x="745" y="1454" on="0"/>
        <pt x="801" y="1454" on="1"/>
        <pt x="990" y="1454" on="0"/>
        <pt x="1309" y="1375" on="0"/>
        <pt x="1541" y="1202" on="0"/>
        <pt x="1671" y="927" on="0"/>
      </contour>
      <contour>
        <pt x="862" y="289" on="1"/>
        <pt x="1023" y="289" on="0"/>
        <pt x="1266" y="367" on="0"/>
        <pt x="1429" y="490" on="0"/>
        <pt x="1511" y="641" on="0"/>
        <pt x="1511" y="715" on="1"/>
        <pt x="1511" y="788" on="0"/>
        <pt x="1462" y="937" on="0"/>
        <pt x="1346" y="1059" on="0"/>
        <pt x="1155" y="1141" on="0"/>
        <pt x="1014" y="1147" on="1"/>
        <pt x="973" y="1149" on="0"/>
        <pt x="919" y="1147" on="1"/>
        <pt x="873" y="1145" on="0"/>
        <pt x="743" y="1137" on="0"/>
        <pt x="662" y="1128" on="1"/>
        <pt x="625" y="297" on="1"/>
        <pt x="676" y="293" on="0"/>
        <pt x="763" y="290" on="0"/>
        <pt x="795" y="289" on="1"/>
        <pt x="832" y="288" on="0"/>
      </contour>
    </TTGlyph>
    <TTGlyph name="Dcaron" xMin="53" yMin="-35" xMax="1671" yMax="1937">
      <component glyphName="D" x="0" y="0" flags="0x204"/>
      <component glyphName="caron" x="528" y="315" flags="0x4"/>
    </TTGlyph>
    <TTGlyph name="Dcroat" xMin="53" yMin="-35" xMax="1671" yMax="1454">
      <component glyphName="Eth" x="0" y="0" flags="0x204"/>
    </TTGlyph>
    <TTGlyph name="E" xMin="84" yMin="2" xMax="1571" yMax="1417">
      <contour>
        <pt x="1067" y="588" on="1"/>
        <pt x="604" y="625" on="1"/>
        <pt x="586" y="383" on="1"/>
        <pt x="1376" y="383" on="1"/>
        <pt x="1415" y="578" on="1"/>
        <pt x="1571" y="578" on="1"/>
        <pt x="1536" y="57" on="1"/>
        <pt x="84" y="2" on="1"/>
        <pt x="84" y="383" on="1"/>
        <pt x="381" y="383" on="1"/>
        <pt x="338" y="1057" on="1"/>
        <pt x="84" y="1040" on="1"/>
        <pt x="84" y="1417" on="1"/>
        <pt x="1571" y="1386" on="1"/>
        <pt x="1571" y="809" on="1"/>
        <pt x="1415" y="778" on="1"/>
        <pt x="1384" y="1124" on="1"/>
        <pt x="639" y="1075" on="1"/>
        <pt x="616" y="784" on="1"/>
        <pt x="1067" y="811" on="1"/>
      </contour>
    </TTGlyph>
    <TTGlyph name="Eacute" xMin="84" yMin="2" xMax="1571" yMax="1923">
      <component glyphName="E" x="0" y="0" flags="0x204"/>
      <component glyphName="acute" x="774" y="281" flags="0x4"/>
    </TTGlyph>
    <TTGlyph name="Ebreve" xMin="84" yMin="2" xMax="1571" yMax="1804">
      <component glyphName="E" x="0" y="0" flags="0x204"/>
      <component glyphName="breve" x="526" y="258" flags="0x4"/>
    </TTGlyph>
    <TTGlyph name="Ecaron" xMin="84" yMin="2" xMax="1571" yMax="1866">
      <component glyphName="E" x="0" y="0" flags="0x204"/>
      <component glyphName="caron" x="500" y="244" flags="0x4"/>
    </TTGlyph>
    <TTGlyph name="Ecircumflex" xMin="84" yMin="2" xMax="1571" yMax="1872">
      <component glyphName="E" x="0" y="0" flags="0x204"/>
      <component glyphName="circumflex" x="492" y="236" flags="0x4"/>
    </TTGlyph>
    <TTGlyph name="Edieresis" xMin="84" yMin="2" xMax="1571" yMax="1728">
      <component glyphName="E" x="0" y="0" flags="0x204"/>
      <component glyphName="dieresis" x="487" y="264" flags="0x4"/>
    </TTGlyph>
    <TTGlyph name="Edotaccent" xMin="84" yMin="2" xMax="1571" yMax="1732">
      <component glyphName="E" x="0" y="0" flags="0x204"/>
      <component glyphName="dotaccent" x="698" y="268" flags="0x4"/>
    </TTGlyph>
    <TTGlyph name="Egrave" xMin="84" yMin="2" xMax="1571" yMax="1900">
      <component glyphName="E" x="0" y="0" flags="0x204"/>
      <component glyphName="grave" x="416" y="260" flags="0x4"/>
    </TTGlyph>
    <TTGlyph name="Emacron" xMin="84" yMin="2" xMax="1571" yMax="1708">
      <component glyphName="E" x="0" y="0" flags="0x204"/>
      <component glyphName="macron" x="483" y="219" flags="0x4"/>
    </TTGlyph>
    <TTGlyph name="Eng" xMin="117" yMin="-647" xMax="1982" yMax="1450">
      <contour>
        <pt x="913" y="231" on="1"/>
        <pt x="903" y="27" on="1"/>
        <pt x="117" y="-39" on="1"/>
        <pt x="117" y="279" on="1"/>
        <pt x="375" y="262" on="1"/>
        <pt x="352" y="1116" on="1"/>
        <pt x="117" y="1104" on="1"/>
        <pt x="152" y="1450" on="1"/>
        <pt x="825" y="1419" on="1"/>
        <pt x="1442" y="203" on="1"/>
        <pt x="1442" y="1139" on="1"/>
        <pt x="1229" y="1133" on="1"/>
        <pt x="1229" y="1450" on="1"/>
        <pt x="1982" y="1389" on="1"/>
        <pt x="1968" y="1159" on="1"/>
        <pt x="1741" y="1151" on="1"/>
        <pt x="1606" y="-39" on="1"/>
        <pt x="1591" y="-172" on="0"/>
        <pt x="1501" y="-395" on="0"/>
        <pt x="1339" y="-557" on="0"/>
        <pt x="1095" y="-647" on="0"/>
        <pt x="926" y="-647" on="1"/>
        <pt x="795" y="-647" on="0"/>
        <pt x="592" y="-567" on="0"/>
        <pt x="445" y="-428" on="0"/>
        <pt x="356" y="-242" on="0"/>
        <pt x="340" y="-137" on="1"/>
        <pt x="512" y="-121" on="1"/>
        <pt x="533" y="-185" on="0"/>
        <pt x="618" y="-263" on="0"/>
        <pt x="735" y="-305" on="0"/>
        <pt x="876" y="-319" on="0"/>
        <pt x="952" y="-319" on="1"/>
        <pt x="1037" y="-319" on="0"/>
        <pt x="1187" y="-295" on="0"/>
        <pt x="1306" y="-237" on="0"/>
        <pt x="1388" y="-143" on="0"/>
        <pt x="1405" y="-72" on="1"/>
        <pt x="643" y="1112" on="1"/>
        <pt x="565" y="252" on="1"/>
      </contour>
    </TTGlyph>
    <TTGlyph name="Eogonek" xMin="84" yMin="-348" xMax="1571" yMax="1417">
      <contour>
        <pt x="1483" y="-295" on="1"/>
        <pt x="1414" y="-324" on="0"/>
        <pt x="1300" y="-348" on="0"/>
        <pt x="1253" y="-348" on="1"/>
        <pt x="1205" y="-348" on="0"/>
        <pt x="1116" y="-321" on="0"/>
        <pt x="1046" y="-270" on="0"/>
        <pt x="1004" y="-198" on="0"/>
        <pt x="1004" y="-152" on="1"/>
        <pt x="1004" y="-113" on="0"/>
        <pt x="1036" y="-15" on="0"/>
        <pt x="1085" y="39" on="1"/>
        <pt x="84" y="2" on="1"/>
        <pt x="84" y="383" on="1"/>
        <pt x="381" y="383" on="1"/>
        <pt x="338" y="1057" on="1"/>
        <pt x="84" y="1040" on="1"/>
        <pt x="84" y="1417" on="1"/>
        <pt x="1571" y="1386" on="1"/>
        <pt x="1571" y="809" on="1"/>
        <pt x="1415" y="778" on="1"/>
        <pt x="1384" y="1124" on="1"/>
        <pt x="639" y="1075" on="1"/>
        <pt x="616" y="784" on="1"/>
        <pt x="1067" y="811" on="1"/>
        <pt x="1067" y="588" on="1"/>
        <pt x="604" y="625" on="1"/>
        <pt x="586" y="383" on="1"/>
        <pt x="1376" y="383" on="1"/>
        <pt x="1415" y="578" on="1"/>
        <pt x="1571" y="578" on="1"/>
        <pt x="1536" y="57" on="1"/>
        <pt x="1235" y="45" on="1"/>
        <pt x="1203" y="14" on="0"/>
        <pt x="1172" y="-36" on="0"/>
        <pt x="1166" y="-53" on="1"/>
        <pt x="1159" y="-74" on="0"/>
        <pt x="1161" y="-90" on="1"/>
        <pt x="1165" y="-101" on="0"/>
        <pt x="1176" y="-109" on="1"/>
        <pt x="1185" y="-116" on="0"/>
        <pt x="1220" y="-127" on="0"/>
        <pt x="1249" y="-127" on="1"/>
        <pt x="1278" y="-127" on="0"/>
        <pt x="1362" y="-112" on="0"/>
        <pt x="1421" y="-90" on="1"/>
      </contour>
    </TTGlyph>
    <TTGlyph name="Eth" xMin="53" yMin="-35" xMax="1671" yMax="1454">
      <contour>
        <pt x="1671" y="731" on="1"/>
        <pt x="1671" y="583" on="0"/>
        <pt x="1594" y="354" on="0"/>
        <pt x="1460" y="184" on="0"/>
        <pt x="1277" y="68" on="0"/>
        <pt x="1064" y="-4" on="0"/>
        <pt x="831" y="-35" on="0"/>
        <pt x="713" y="-35" on="1"/>
        <pt x="592" y="-35" on="0"/>
        <pt x="259" y="-20" on="0"/>
        <pt x="53" y="0" on="1"/>
        <pt x="129" y="367" on="1"/>
        <pt x="201" y="348" on="0"/>
        <pt x="359" y="321" on="0"/>
        <pt x="436" y="313" on="1"/>
        <pt x="414" y="594" on="1"/>
        <pt x="121" y="580" on="1"/>
        <pt x="94" y="840" on="1"/>
        <pt x="395" y="823" on="1"/>
        <pt x="373" y="1087" on="1"/>
        <pt x="311" y="1075" on="0"/>
        <pt x="183" y="1047" on="0"/>
        <pt x="115" y="1030" on="1"/>
        <pt x="53" y="1350" on="1"/>
        <pt x="166" y="1384" on="0"/>
        <pt x="386" y="1426" on="0"/>
        <pt x="582" y="1447" on="0"/>
        <pt x="745" y="1454" on="0"/>
        <pt x="801" y="1454" on="1"/>
        <pt x="990" y="1454" on="0"/>
        <pt x="1309" y="1375" on="0"/>
        <pt x="1541" y="1202" on="0"/>
        <pt x="1671" y="927" on="0"/>
      </contour>
      <contour>
        <pt x="965" y="795" on="1"/>
        <pt x="936" y="621" on="1"/>
        <pt x="637" y="604" on="1"/>
        <pt x="625" y="297" on="1"/>
        <pt x="676" y="293" on="0"/>
        <pt x="763" y="290" on="0"/>
        <pt x="795" y="289" on="1"/>
        <pt x="832" y="288" on="0"/>
        <pt x="862" y="289" on="1"/>
        <pt x="1023" y="289" on="0"/>
        <pt x="1266" y="367" on="0"/>
        <pt x="1429" y="490" on="0"/>
        <pt x="1511" y="641" on="0"/>
        <pt x="1511" y="715" on="1"/>
        <pt x="1511" y="788" on="0"/>
        <pt x="1462" y="937" on="0"/>
        <pt x="1346" y="1059" on="0"/>
        <pt x="1155" y="1141" on="0"/>
        <pt x="1014" y="1147" on="1"/>
        <pt x="973" y="1149" on="0"/>
        <pt x="919" y="1147" on="1"/>
        <pt x="873" y="1145" on="0"/>
        <pt x="743" y="1137" on="0"/>
        <pt x="662" y="1128" on="1"/>
        <pt x="647" y="811" on="1"/>
      </contour>
    </TTGlyph>
    <TTGlyph name="Euro" xMin="53" yMin="-27" xMax="2154" yMax="1544">
      <contour>
        <pt x="1083" y="956" on="1"/>
        <pt x="993" y="774" on="1"/>
        <pt x="643" y="758" on="1"/>
        <pt x="641" y="744" on="0"/>
        <pt x="639" y="712" on="0"/>
        <pt x="639" y="696" on="1"/>
        <pt x="639" y="684" on="1"/>
        <pt x="967" y="698" on="1"/>
        <pt x="909" y="442" on="1"/>
        <pt x="721" y="451" on="1"/>
        <pt x="793" y="361" on="0"/>
        <pt x="1055" y="262" on="0"/>
        <pt x="1241" y="262" on="1"/>
        <pt x="1340" y="264" on="0"/>
        <pt x="1442" y="281" on="1"/>
        <pt x="1485" y="288" on="0"/>
        <pt x="1583" y="310" on="0"/>
        <pt x="1683" y="343" on="0"/>
        <pt x="1784" y="387" on="0"/>
        <pt x="1831" y="416" on="1"/>
        <pt x="1933" y="100" on="1"/>
        <pt x="1909" y="76" on="0"/>
        <pt x="1824" y="40" on="0"/>
        <pt x="1719" y="13" on="0"/>
        <pt x="1601" y="-5" on="0"/>
        <pt x="1543" y="-11" on="1"/>
        <pt x="1407" y="-25" on="0"/>
        <pt x="1249" y="-27" on="1"/>
        <pt x="1085" y="-27" on="0"/>
        <pt x="830" y="47" on="0"/>
        <pt x="644" y="178" on="0"/>
        <pt x="524" y="356" on="0"/>
        <pt x="494" y="461" on="1"/>
        <pt x="53" y="481" on="1"/>
        <pt x="141" y="664" on="1"/>
        <pt x="463" y="676" on="1"/>
        <pt x="463" y="696" on="1"/>
        <pt x="463" y="710" on="0"/>
        <pt x="463" y="738" on="0"/>
        <pt x="465" y="752" on="1"/>
        <pt x="168" y="739" on="1"/>
        <pt x="227" y="995" on="1"/>
        <pt x="518" y="981" on="1"/>
        <pt x="553" y="1064" on="0"/>
        <pt x="661" y="1200" on="0"/>
        <pt x="793" y="1308" on="0"/>
        <pt x="946" y="1386" on="0"/>
        <pt x="1108" y="1436" on="0"/>
        <pt x="1272" y="1458" on="0"/>
        <pt x="1350" y="1456" on="1"/>
        <pt x="1424" y="1452" on="0"/>
        <pt x="1508" y="1439" on="1"/>
        <pt x="1580" y="1428" on="0"/>
        <pt x="1763" y="1384" on="0"/>
        <pt x="1860" y="1346" on="1"/>
        <pt x="1901" y="1544" on="1"/>
        <pt x="2154" y="1493" on="1"/>
        <pt x="1886" y="778" on="1"/>
        <pt x="1753" y="811" on="1"/>
        <pt x="1782" y="958" on="1"/>
        <pt x="1701" y="1009" on="0"/>
        <pt x="1536" y="1064" on="0"/>
        <pt x="1469" y="1077" on="1"/>
        <pt x="1391" y="1092" on="0"/>
        <pt x="1317" y="1094" on="1"/>
        <pt x="1247" y="1094" on="0"/>
        <pt x="1102" y="1081" on="0"/>
        <pt x="963" y="1052" on="0"/>
        <pt x="837" y="1004" on="0"/>
        <pt x="786" y="969" on="1"/>
      </contour>
    </TTGlyph>
    <TTGlyph name="F" xMin="82" yMin="-27" xMax="1573" yMax="1417">
      <contour>
        <pt x="1069" y="526" on="1"/>
        <pt x="602" y="563" on="1"/>
        <pt x="580" y="272" on="1"/>
        <pt x="948" y="289" on="1"/>
        <pt x="948" y="-27" on="1"/>
        <pt x="88" y="0" on="1"/>
        <pt x="82" y="254" on="1"/>
        <pt x="389" y="266" on="1"/>
        <pt x="340" y="1057" on="1"/>
        <pt x="86" y="1040" on="1"/>
        <pt x="86" y="1417" on="1"/>
        <pt x="1573" y="1386" on="1"/>
        <pt x="1573" y="809" on="1"/>
        <pt x="1376" y="799" on="1"/>
        <pt x="1386" y="1124" on="1"/>
        <pt x="641" y="1075" on="1"/>
        <pt x="614" y="721" on="1"/>
        <pt x="1069" y="750" on="1"/>
      </contour>
    </TTGlyph>
    <TTGlyph name="G" xMin="57" yMin="-27" xMax="1692" yMax="1520">
      <contour>
        <pt x="1642" y="1456" on="1"/>
        <pt x="1438" y="952" on="1"/>
        <pt x="1335" y="1008" on="0"/>
        <pt x="1130" y="1065" on="0"/>
        <pt x="1045" y="1078" on="1"/>
        <pt x="946" y="1093" on="0"/>
        <pt x="856" y="1094" on="1"/>
        <pt x="779" y="1092" on="0"/>
        <pt x="626" y="1076" on="0"/>
        <pt x="488" y="1039" on="0"/>
        <pt x="369" y="981" on="0"/>
        <pt x="282" y="894" on="0"/>
        <pt x="233" y="774" on="0"/>
        <pt x="233" y="696" on="1"/>
        <pt x="233" y="598" on="0"/>
        <pt x="305" y="438" on="0"/>
        <pt x="449" y="324" on="0"/>
        <pt x="665" y="262" on="0"/>
        <pt x="809" y="262" on="1"/>
        <pt x="899" y="265" on="0"/>
        <pt x="990" y="287" on="1"/>
        <pt x="1029" y="296" on="0"/>
        <pt x="1114" y="325" on="0"/>
        <pt x="1201" y="367" on="0"/>
        <pt x="1288" y="423" on="0"/>
        <pt x="1327" y="461" on="1"/>
        <pt x="1341" y="623" on="1"/>
        <pt x="690" y="586" on="1"/>
        <pt x="690" y="809" on="1"/>
        <pt x="1692" y="809" on="1"/>
        <pt x="1679" y="643" on="1"/>
        <pt x="1534" y="635" on="1"/>
        <pt x="1546" y="158" on="1"/>
        <pt x="1513" y="123" on="0"/>
        <pt x="1416" y="70" on="0"/>
        <pt x="1301" y="31" on="0"/>
        <pt x="1175" y="5" on="0"/>
        <pt x="1115" y="-4" on="1"/>
        <pt x="973" y="-24" on="0"/>
        <pt x="815" y="-27" on="1"/>
        <pt x="676" y="-27" on="0"/>
        <pt x="456" y="26" on="0"/>
        <pt x="288" y="123" on="0"/>
        <pt x="168" y="256" on="0"/>
        <pt x="92" y="417" on="0"/>
        <pt x="57" y="599" on="0"/>
        <pt x="57" y="696" on="1"/>
        <pt x="57" y="829" on="0"/>
        <pt x="126" y="1046" on="0"/>
        <pt x="246" y="1217" on="0"/>
        <pt x="408" y="1342" on="0"/>
        <pt x="593" y="1422" on="0"/>
        <pt x="792" y="1459" on="0"/>
        <pt x="889" y="1456" on="1"/>
        <pt x="1000" y="1451" on="0"/>
        <pt x="1103" y="1435" on="1"/>
        <pt x="1147" y="1428" on="0"/>
        <pt x="1240" y="1409" on="0"/>
        <pt x="1328" y="1383" on="0"/>
        <pt x="1406" y="1349" on="0"/>
        <pt x="1436" y="1327" on="1"/>
        <pt x="1479" y="1520" on="1"/>
      </contour>
    </TTGlyph>
    <TTGlyph name="Gbreve" xMin="57" yMin="-27" xMax="1692" yMax="1843">
      <component glyphName="G" x="0" y="0" flags="0x204"/>
      <component glyphName="breve" x="551" y="297" flags="0x4"/>
    </TTGlyph>
    <TTGlyph name="Gcircumflex" xMin="57" yMin="-27" xMax="1692" yMax="1927">
      <component glyphName="G" x="0" y="0" flags="0x204"/>
      <component glyphName="circumflex" x="524" y="291" flags="0x4"/>
    </TTGlyph>
    <TTGlyph name="Gcommaaccent" xMin="57" yMin="-426" xMax="1692" yMax="1520">
      <component glyphName="G" x="0" y="0" flags="0x204"/>
      <component glyphName="uni0326" x="594" y="0" flags="0x4"/>
    </TTGlyph>
    <TTGlyph name="Gdotaccent" xMin="57" yMin="-27" xMax="1692" yMax="1775">
      <component glyphName="G" x="0" y="0" flags="0x204"/>
      <component glyphName="dotaccent" x="723" y="311" flags="0x4"/>
    </TTGlyph>
    <TTGlyph name="H" xMin="76" yMin="-27" xMax="1962" yMax="1462">
      <contour>
        <pt x="1962" y="-27" on="1"/>
        <pt x="1102" y="0" on="1"/>
        <pt x="1096" y="254" on="1"/>
        <pt x="1391" y="266" on="1"/>
        <pt x="1419" y="639" on="1"/>
        <pt x="623" y="592" on="1"/>
        <pt x="596" y="297" on="1"/>
        <pt x="948" y="295" on="1"/>
        <pt x="934" y="-20" on="1"/>
        <pt x="76" y="49" on="1"/>
        <pt x="82" y="303" on="1"/>
        <pt x="403" y="299" on="1"/>
        <pt x="371" y="1155" on="1"/>
        <pt x="76" y="1147" on="1"/>
        <pt x="76" y="1462" on="1"/>
        <pt x="942" y="1427" on="1"/>
        <pt x="936" y="1174" on="1"/>
        <pt x="678" y="1165" on="1"/>
        <pt x="643" y="811" on="1"/>
        <pt x="1434" y="811" on="1"/>
        <pt x="1462" y="1153" on="1"/>
        <pt x="1104" y="1124" on="1"/>
        <pt x="1087" y="1442" on="1"/>
        <pt x="1954" y="1450" on="1"/>
        <pt x="1962" y="1196" on="1"/>
        <pt x="1655" y="1169" on="1"/>
        <pt x="1655" y="276" on="1"/>
        <pt x="1962" y="289" on="1"/>
      </contour>
    </TTGlyph>
    <TTGlyph name="Hbar" xMin="76" yMin="-27" xMax="1962" yMax="1462">
      <contour>
        <pt x="1962" y="-27" on="1"/>
        <pt x="1102" y="0" on="1"/>
        <pt x="1096" y="254" on="1"/>
        <pt x="1391" y="266" on="1"/>
        <pt x="1419" y="639" on="1"/>
        <pt x="623" y="592" on="1"/>
        <pt x="596" y="297" on="1"/>
        <pt x="948" y="295" on="1"/>
        <pt x="934" y="-20" on="1"/>
        <pt x="76" y="49" on="1"/>
        <pt x="82" y="303" on="1"/>
        <pt x="403" y="299" on="1"/>
        <pt x="381" y="858" on="1"/>
        <pt x="209" y="852" on="1"/>
        <pt x="199" y="1061" on="1"/>
        <pt x="375" y="1061" on="1"/>
        <pt x="371" y="1155" on="1"/>
        <pt x="76" y="1147" on="1"/>
        <pt x="76" y="1462" on="1"/>
        <pt x="942" y="1427" on="1"/>
        <pt x="936" y="1174" on="1"/>
        <pt x="678" y="1165" on="1"/>
        <pt x="668" y="1061" on="1"/>
        <pt x="1454" y="1063" on="1"/>
        <pt x="1462" y="1153" on="1"/>
        <pt x="1104" y="1124" on="1"/>
        <pt x="1087" y="1442" on="1"/>
        <pt x="1954" y="1450" on="1"/>
        <pt x="1962" y="1196" on="1"/>
        <pt x="1655" y="1169" on="1"/>
        <pt x="1655" y="1063" on="1"/>
        <pt x="1884" y="1065" on="1"/>
        <pt x="1884" y="920" on="1"/>
        <pt x="1655" y="909" on="1"/>
        <pt x="1655" y="276" on="1"/>
        <pt x="1962" y="289" on="1"/>
      </contour>
      <contour>
        <pt x="1434" y="811" on="1"/>
        <pt x="1440" y="901" on="1"/>
        <pt x="649" y="868" on="1"/>
        <pt x="643" y="811" on="1"/>
      </contour>
    </TTGlyph>
    <TTGlyph name="Hcircumflex" xMin="76" yMin="-27" xMax="1962" yMax="1915">
      <component glyphName="H" x="0" y="0" flags="0x204"/>
      <component glyphName="circumflex" x="682" y="279" flags="0x4"/>
    </TTGlyph>
    <TTGlyph name="I" xMin="76" yMin="-20" xMax="948" yMax="1462">
      <contour>
        <pt x="948" y="295" on="1"/>
        <pt x="934" y="-20" on="1"/>
        <pt x="76" y="49" on="1"/>
        <pt x="82" y="303" on="1"/>
        <pt x="403" y="299" on="1"/>
        <pt x="371" y="1155" on="1"/>
        <pt x="76" y="1147" on="1"/>
        <pt x="76" y="1462" on="1"/>
        <pt x="942" y="1427" on="1"/>
        <pt x="936" y="1174" on="1"/>
        <pt x="678" y="1165" on="1"/>
        <pt x="596" y="297" on="1"/>
      </contour>
    </TTGlyph>
    <TTGlyph name="IJ" xMin="76" yMin="-72" xMax="2605" yMax="1462">
      <component glyphName="I" x="0" y="0" flags="0x4"/>
      <component glyphName="J" x="999" y="0" flags="0x4"/>
    </TTGlyph>
    <TTGlyph name="Iacute" xMin="76" yMin="-20" xMax="1034" yMax="1941">
      <component glyphName="I" x="0" y="0" flags="0x204"/>
      <component glyphName="acute" x="475" y="299" flags="0x4"/>
    </TTGlyph>
    <TTGlyph name="Ibreve" xMin="76" yMin="-20" xMax="948" yMax="1839">
      <component glyphName="I" x="0" y="0" flags="0x204"/>
      <component glyphName="breve" x="199" y="293" flags="0x4"/>
    </TTGlyph>
    <TTGlyph name="Icircumflex" xMin="76" yMin="-20" xMax="948" yMax="1915">
      <component glyphName="I" x="0" y="0" flags="0x204"/>
      <component glyphName="circumflex" x="176" y="279" flags="0x4"/>
    </TTGlyph>
    <TTGlyph name="Idieresis" xMin="76" yMin="-20" xMax="948" yMax="1779">
      <component glyphName="I" x="0" y="0" flags="0x204"/>
      <component glyphName="dieresis" x="172" y="315" flags="0x4"/>
    </TTGlyph>
    <TTGlyph name="Idotaccent" xMin="76" yMin="-20" xMax="948" yMax="1769">
      <component glyphName="I" x="0" y="0" flags="0x204"/>
      <component glyphName="dotaccent" x="385" y="305" flags="0x4"/>
    </TTGlyph>
    <TTGlyph name="Igrave" xMin="18" yMin="-20" xMax="948" yMax="1966">
      <component glyphName="I" x="0" y="0" flags="0x204"/>
      <component glyphName="grave" x="18" y="326" flags="0x4"/>
    </TTGlyph>
    <TTGlyph name="Imacron" xMin="76" yMin="-20" xMax="948" yMax="1772">
      <component glyphName="I" x="0" y="0" flags="0x204"/>
      <component glyphName="macron" x="156" y="283" flags="0x4"/>
    </TTGlyph>
    <TTGlyph name="Iogonek" xMin="76" yMin="-401" xMax="948" yMax="1462">
      <contour>
        <pt x="760" y="-348" on="1"/>
        <pt x="691" y="-377" on="0"/>
        <pt x="577" y="-401" on="0"/>
        <pt x="530" y="-401" on="1"/>
        <pt x="482" y="-401" on="0"/>
        <pt x="393" y="-374" on="0"/>
        <pt x="323" y="-324" on="0"/>
        <pt x="281" y="-251" on="0"/>
        <pt x="281" y="-205" on="1"/>
        <pt x="281" y="-183" on="0"/>
        <pt x="291" y="-130" on="0"/>
        <pt x="317" y="-72" on="0"/>
        <pt x="363" y="-9" on="0"/>
        <pt x="399" y="23" on="1"/>
        <pt x="76" y="49" on="1"/>
        <pt x="82" y="303" on="1"/>
        <pt x="403" y="299" on="1"/>
        <pt x="371" y="1155" on="1"/>
        <pt x="76" y="1147" on="1"/>
        <pt x="76" y="1462" on="1"/>
        <pt x="942" y="1427" on="1"/>
        <pt x="936" y="1174" on="1"/>
        <pt x="678" y="1165" on="1"/>
        <pt x="596" y="297" on="1"/>
        <pt x="948" y="295" on="1"/>
        <pt x="934" y="-20" on="1"/>
        <pt x="532" y="12" on="1"/>
        <pt x="491" y="-23" on="0"/>
        <pt x="452" y="-81" on="0"/>
        <pt x="444" y="-101" on="1"/>
        <pt x="435" y="-125" on="0"/>
        <pt x="438" y="-143" on="1"/>
        <pt x="442" y="-154" on="0"/>
        <pt x="453" y="-162" on="1"/>
        <pt x="462" y="-169" on="0"/>
        <pt x="497" y="-180" on="0"/>
        <pt x="526" y="-180" on="1"/>
        <pt x="555" y="-180" on="0"/>
        <pt x="640" y="-165" on="0"/>
        <pt x="698" y="-143" on="1"/>
      </contour>
    </TTGlyph>
    <TTGlyph name="Itilde" xMin="76" yMin="-20" xMax="948" yMax="1827">
      <component glyphName="I" x="0" y="0" flags="0x204"/>
      <component glyphName="tilde" x="127" y="293" flags="0x4"/>
    </TTGlyph>
    <TTGlyph name="J" xMin="20" yMin="-72" xMax="1606" yMax="1450">
      <contour>
        <pt x="1606" y="1196" on="1"/>
        <pt x="1313" y="1171" on="1"/>
        <pt x="1319" y="1091" on="0"/>
        <pt x="1319" y="1006" on="1"/>
        <pt x="1319" y="862" on="0"/>
        <pt x="1303" y="591" on="0"/>
        <pt x="1253" y="352" on="0"/>
        <pt x="1159" y="152" on="0"/>
        <pt x="1002" y="8" on="0"/>
        <pt x="774" y="-72" on="0"/>
        <pt x="614" y="-72" on="1"/>
        <pt x="465" y="-72" on="0"/>
        <pt x="242" y="31" on="0"/>
        <pt x="94" y="205" on="0"/>
        <pt x="20" y="434" on="0"/>
        <pt x="20" y="559" on="1"/>
        <pt x="20" y="604" on="0"/>
        <pt x="26" y="708" on="0"/>
        <pt x="31" y="764" on="1"/>
        <pt x="203" y="764" on="1"/>
        <pt x="197" y="727" on="0"/>
        <pt x="189" y="657" on="0"/>
        <pt x="186" y="625" on="1"/>
        <pt x="179" y="544" on="0"/>
        <pt x="206" y="427" on="0"/>
        <pt x="265" y="345" on="0"/>
        <pt x="351" y="294" on="0"/>
        <pt x="456" y="266" on="0"/>
        <pt x="577" y="256" on="0"/>
        <pt x="641" y="256" on="1"/>
        <pt x="738" y="256" on="0"/>
        <pt x="907" y="288" on="0"/>
        <pt x="1032" y="366" on="0"/>
        <pt x="1104" y="497" on="0"/>
        <pt x="1104" y="596" on="1"/>
        <pt x="1102" y="664" on="0"/>
        <pt x="1093" y="749" on="1"/>
        <pt x="1085" y="822" on="0"/>
        <pt x="1052" y="1024" on="0"/>
        <pt x="1020" y="1147" on="1"/>
        <pt x="750" y="1124" on="1"/>
        <pt x="733" y="1442" on="1"/>
        <pt x="1599" y="1450" on="1"/>
      </contour>
    </TTGlyph>
    <TTGlyph name="Jcircumflex" xMin="20" yMin="-72" xMax="1606" yMax="1915">
      <component glyphName="J" x="0" y="0" flags="0x204"/>
      <component glyphName="circumflex" x="836" y="279" flags="0x4"/>
    </TTGlyph>
    <TTGlyph name="K" xMin="117" yMin="0" xMax="1954" yMax="1462">
      <contour>
        <pt x="1950" y="281" on="1"/>
        <pt x="1944" y="27" on="1"/>
        <pt x="1083" y="0" on="1"/>
        <pt x="1083" y="315" on="1"/>
        <pt x="1276" y="307" on="1"/>
        <pt x="1055" y="694" on="1"/>
        <pt x="987" y="671" on="0"/>
        <pt x="858" y="638" on="0"/>
        <pt x="743" y="614" on="0"/>
        <pt x="645" y="600" on="0"/>
        <pt x="608" y="596" on="1"/>
        <pt x="594" y="295" on="1"/>
        <pt x="983" y="281" on="1"/>
        <pt x="977" y="27" on="1"/>
        <pt x="117" y="0" on="1"/>
        <pt x="117" y="315" on="1"/>
        <pt x="381" y="305" on="1"/>
        <pt x="332" y="1153" on="1"/>
        <pt x="117" y="1147" on="1"/>
        <pt x="117" y="1462" on="1"/>
        <pt x="983" y="1427" on="1"/>
        <pt x="977" y="1174" on="1"/>
        <pt x="637" y="1161" on="1"/>
        <pt x="616" y="731" on="1"/>
        <pt x="720" y="738" on="0"/>
        <pt x="896" y="793" on="0"/>
        <pt x="1041" y="871" on="0"/>
        <pt x="1156" y="965" on="0"/>
        <pt x="1243" y="1059" on="0"/>
        <pt x="1304" y="1145" on="0"/>
        <pt x="1323" y="1176" on="1"/>
        <pt x="1081" y="1196" on="1"/>
        <pt x="1087" y="1450" on="1"/>
        <pt x="1954" y="1442" on="1"/>
        <pt x="1937" y="1124" on="1"/>
        <pt x="1679" y="1145" on="1"/>
        <pt x="1640" y="1078" on="0"/>
        <pt x="1538" y="965" on="0"/>
        <pt x="1421" y="870" on="0"/>
        <pt x="1292" y="793" on="0"/>
        <pt x="1225" y="762" on="1"/>
        <pt x="1630" y="293" on="1"/>
      </contour>
    </TTGlyph>
    <TTGlyph name="Kcommaaccent" xMin="117" yMin="-426" xMax="1954" yMax="1462">
      <component glyphName="K" x="0" y="0" flags="0x204"/>
      <component glyphName="uni0326" x="741" y="0" flags="0x4"/>
    </TTGlyph>
    <TTGlyph name="L" xMin="86" yMin="0" xMax="1587" yMax="1462">
      <contour>
        <pt x="1587" y="645" on="1"/>
        <pt x="1462" y="53" on="1"/>
        <pt x="86" y="0" on="1"/>
        <pt x="86" y="315" on="1"/>
        <pt x="371" y="307" on="1"/>
        <pt x="344" y="1155" on="1"/>
        <pt x="86" y="1147" on="1"/>
        <pt x="86" y="1462" on="1"/>
        <pt x="952" y="1427" on="1"/>
        <pt x="946" y="1174" on="1"/>
        <pt x="659" y="1163" on="1"/>
        <pt x="584" y="303" on="1"/>
        <pt x="1327" y="285" on="1"/>
        <pt x="1378" y="645" on="1"/>
      </contour>
    </TTGlyph>
    <TTGlyph name="Lacute" xMin="86" yMin="0" xMax="1587" yMax="1951">
      <component glyphName="L" x="0" y="0" flags="0x204"/>
      <component glyphName="acute" x="512" y="309" flags="0x4"/>
    </TTGlyph>
    <TTGlyph name="Lcaron" xMin="86" yMin="0" xMax="1587" yMax="1509">
      <component glyphName="L" x="0" y="0" flags="0x204"/>
      <component glyphName="uni0315" x="1063" y="88" flags="0x4"/>
    </TTGlyph>
    <TTGlyph name="Lcommaaccent" xMin="86" yMin="-426" xMax="1587" yMax="1462">
      <component glyphName="L" x="0" y="0" flags="0x204"/>
      <component glyphName="uni0326" x="526" y="0" flags="0x4"/>
    </TTGlyph>
    <TTGlyph name="Ldot" xMin="86" yMin="0" xMax="2060" yMax="1462">
      <component glyphName="L" x="0" y="0" flags="0x4"/>
      <component glyphName="periodcentered" x="1585" y="0" flags="0x4"/>
    </TTGlyph>
    <TTGlyph name="Lslash" xMin="115" yMin="0" xMax="1616" yMax="1462">
      <contour>
        <pt x="948" y="946" on="1"/>
        <pt x="950" y="762" on="1"/>
        <pt x="643" y="651" on="1"/>
        <pt x="612" y="303" on="1"/>
        <pt x="1356" y="285" on="1"/>
        <pt x="1407" y="645" on="1"/>
        <pt x="1616" y="645" on="1"/>
        <pt x="1491" y="53" on="1"/>
        <pt x="115" y="0" on="1"/>
        <pt x="115" y="315" on="1"/>
        <pt x="399" y="307" on="1"/>
        <pt x="391" y="563" on="1"/>
        <pt x="186" y="489" on="1"/>
        <pt x="117" y="743" on="1"/>
        <pt x="385" y="809" on="1"/>
        <pt x="373" y="1155" on="1"/>
        <pt x="115" y="1147" on="1"/>
        <pt x="115" y="1462" on="1"/>
        <pt x="981" y="1427" on="1"/>
        <pt x="975" y="1174" on="1"/>
        <pt x="688" y="1163" on="1"/>
        <pt x="662" y="877" on="1"/>
      </contour>
    </TTGlyph>
    <TTGlyph name="M" xMin="86" yMin="-39" xMax="2286" yMax="1450">
      <contour>
        <pt x="872" y="27" on="1"/>
        <pt x="86" y="-39" on="1"/>
        <pt x="113" y="279" on="1"/>
        <pt x="389" y="260" on="1"/>
        <pt x="369" y="1067" on="1"/>
        <pt x="86" y="1036" on="1"/>
        <pt x="121" y="1450" on="1"/>
        <pt x="756" y="1450" on="1"/>
        <pt x="1260" y="465" on="1"/>
        <pt x="1595" y="1450" on="1"/>
        <pt x="2228" y="1450" on="1"/>
        <pt x="2228" y="1133" on="1"/>
        <pt x="1937" y="1133" on="1"/>
        <pt x="1962" y="266" on="1"/>
        <pt x="2269" y="258" on="1"/>
        <pt x="2286" y="27" on="1"/>
        <pt x="1473" y="-39" on="1"/>
        <pt x="1473" y="279" on="1"/>
        <pt x="1765" y="270" on="1"/>
        <pt x="1653" y="1026" on="1"/>
        <pt x="1280" y="119" on="1"/>
        <pt x="1128" y="119" on="1"/>
        <pt x="629" y="1038" on="1"/>
        <pt x="571" y="250" on="1"/>
        <pt x="854" y="231" on="1"/>
      </contour>
    </TTGlyph>
    <TTGlyph name="N" xMin="117" yMin="-78" xMax="1982" yMax="1450">
      <contour>
        <pt x="913" y="231" on="1"/>
        <pt x="903" y="27" on="1"/>
        <pt x="117" y="-39" on="1"/>
        <pt x="117" y="279" on="1"/>
        <pt x="375" y="262" on="1"/>
        <pt x="352" y="1116" on="1"/>
        <pt x="117" y="1104" on="1"/>
        <pt x="152" y="1450" on="1"/>
        <pt x="825" y="1419" on="1"/>
        <pt x="1442" y="203" on="1"/>
        <pt x="1442" y="1139" on="1"/>
        <pt x="1229" y="1133" on="1"/>
        <pt x="1229" y="1450" on="1"/>
        <pt x="1982" y="1389" on="1"/>
        <pt x="1968" y="1159" on="1"/>
        <pt x="1741" y="1151" on="1"/>
        <pt x="1606" y="-39" on="1"/>
        <pt x="1409" y="-78" on="1"/>
        <pt x="643" y="1112" on="1"/>
        <pt x="565" y="252" on="1"/>
      </contour>
    </TTGlyph>
    <TTGlyph name="Nacute" xMin="117" yMin="-78" xMax="1982" yMax="1921">
      <component glyphName="N" x="0" y="0" flags="0x204"/>
      <component glyphName="acute" x="954" y="279" flags="0x4"/>
    </TTGlyph>
    <TTGlyph name="Ncaron" xMin="117" yMin="-78" xMax="1982" yMax="1939">
      <component glyphName="N" x="0" y="0" flags="0x204"/>
      <component glyphName="caron" x="664" y="317" flags="0x4"/>
    </TTGlyph>
    <TTGlyph name="Ncommaaccent" xMin="117" yMin="-426" xMax="1982" yMax="1450">
      <component glyphName="N" x="0" y="0" flags="0x204"/>
      <component glyphName="uni0326" x="733" y="0" flags="0x4"/>
    </TTGlyph>
    <TTGlyph name="Ntilde" xMin="117" yMin="-78" xMax="1982" yMax="1833">
      <component glyphName="N" x="0" y="0" flags="0x204"/>
      <component glyphName="tilde" x="670" y="299" flags="0x4"/>
    </TTGlyph>
    <TTGlyph name="O" xMin="55" yMin="-37" xMax="1628" yMax="1489">
      <contour>
        <pt x="1628" y="725" on="1"/>
        <pt x="1628" y="567" on="0"/>
        <pt x="1538" y="290" on="0"/>
        <pt x="1348" y="83" on="0"/>
        <pt x="1050" y="-37" on="0"/>
        <pt x="842" y="-37" on="1"/>
        <pt x="631" y="-37" on="0"/>
        <pt x="332" y="83" on="0"/>
        <pt x="143" y="290" on="0"/>
        <pt x="55" y="567" on="0"/>
        <pt x="55" y="725" on="1"/>
        <pt x="55" y="883" on="0"/>
        <pt x="151" y="1162" on="0"/>
        <pt x="346" y="1369" on="0"/>
        <pt x="642" y="1489" on="0"/>
        <pt x="842" y="1489" on="1"/>
        <pt x="998" y="1489" on="0"/>
        <pt x="1237" y="1434" on="0"/>
        <pt x="1411" y="1335" on="0"/>
        <pt x="1528" y="1196" on="0"/>
        <pt x="1599" y="1026" on="0"/>
        <pt x="1628" y="830" on="0"/>
      </contour>
      <contour>
        <pt x="1446" y="725" on="1"/>
        <pt x="1446" y="809" on="0"/>
        <pt x="1393" y="958" on="0"/>
        <pt x="1256" y="1069" on="0"/>
        <pt x="1022" y="1133" on="0"/>
        <pt x="842" y="1133" on="1"/>
        <pt x="688" y="1133" on="0"/>
        <pt x="461" y="1069" on="0"/>
        <pt x="311" y="958" on="0"/>
        <pt x="238" y="809" on="0"/>
        <pt x="238" y="725" on="1"/>
        <pt x="238" y="641" on="0"/>
        <pt x="305" y="494" on="0"/>
        <pt x="450" y="383" on="0"/>
        <pt x="679" y="319" on="0"/>
        <pt x="842" y="319" on="1"/>
        <pt x="1002" y="319" on="0"/>
        <pt x="1230" y="383" on="0"/>
        <pt x="1377" y="494" on="0"/>
        <pt x="1446" y="641" on="0"/>
      </contour>
    </TTGlyph>
    <TTGlyph name="OE" xMin="55" yMin="-37" xMax="2671" yMax="1489">
      <contour>
        <pt x="2167" y="588" on="1"/>
        <pt x="1704" y="625" on="1"/>
        <pt x="1686" y="383" on="1"/>
        <pt x="2476" y="383" on="1"/>
        <pt x="2515" y="578" on="1"/>
        <pt x="2671" y="578" on="1"/>
        <pt x="2636" y="57" on="1"/>
        <pt x="1503" y="2" on="1"/>
        <pt x="1487" y="240" on="1"/>
        <pt x="1441" y="177" on="0"/>
        <pt x="1315" y="75" on="0"/>
        <pt x="1155" y="2" on="0"/>
        <pt x="959" y="-37" on="0"/>
        <pt x="842" y="-37" on="1"/>
        <pt x="631" y="-37" on="0"/>
        <pt x="332" y="83" on="0"/>
        <pt x="143" y="290" on="0"/>
        <pt x="55" y="567" on="0"/>
        <pt x="55" y="725" on="1"/>
        <pt x="55" y="883" on="0"/>
        <pt x="151" y="1162" on="0"/>
        <pt x="346" y="1369" on="0"/>
        <pt x="642" y="1489" on="0"/>
        <pt x="842" y="1489" on="1"/>
        <pt x="944" y="1489" on="0"/>
        <pt x="1116" y="1465" on="0"/>
        <pt x="1258" y="1420" on="0"/>
        <pt x="1374" y="1357" on="0"/>
        <pt x="1419" y="1317" on="1"/>
        <pt x="1413" y="1417" on="1"/>
        <pt x="2671" y="1386" on="1"/>
        <pt x="2671" y="809" on="1"/>
        <pt x="2515" y="778" on="1"/>
        <pt x="2484" y="1124" on="1"/>
        <pt x="1739" y="1075" on="1"/>
        <pt x="1716" y="784" on="1"/>
        <pt x="2167" y="811" on="1"/>
      </contour>
      <contour>
        <pt x="1446" y="725" on="1"/>
        <pt x="1446" y="809" on="0"/>
        <pt x="1393" y="958" on="0"/>
        <pt x="1256" y="1069" on="0"/>
        <pt x="1022" y="1133" on="0"/>
        <pt x="842" y="1133" on="1"/>
        <pt x="688" y="1133" on="0"/>
        <pt x="461" y="1069" on="0"/>
        <pt x="311" y="958" on="0"/>
        <pt x="238" y="809" on="0"/>
        <pt x="238" y="725" on="1"/>
        <pt x="238" y="641" on="0"/>
        <pt x="305" y="494" on="0"/>
        <pt x="450" y="383" on="0"/>
        <pt x="679" y="319" on="0"/>
        <pt x="842" y="319" on="1"/>
        <pt x="1002" y="319" on="0"/>
        <pt x="1230" y="383" on="0"/>
        <pt x="1377" y="494" on="0"/>
        <pt x="1446" y="641" on="0"/>
      </contour>
    </TTGlyph>
    <TTGlyph name="Oacute" xMin="55" yMin="-37" xMax="1628" yMax="2004">
      <component glyphName="O" x="0" y="0" flags="0x204"/>
      <component glyphName="acute" x="809" y="362" flags="0x4"/>
    </TTGlyph>
    <TTGlyph name="Obreve" xMin="55" yMin="-37" xMax="1628" yMax="1861">
      <component glyphName="O" x="0" y="0" flags="0x204"/>
      <component glyphName="breve" x="535" y="315" flags="0x4"/>
    </TTGlyph>
    <TTGlyph name="Ocircumflex" xMin="55" yMin="-37" xMax="1628" yMax="1968">
      <component glyphName="O" x="0" y="0" flags="0x204"/>
      <component glyphName="circumflex" x="506" y="332" flags="0x4"/>
    </TTGlyph>
    <TTGlyph name="Odieresis" xMin="55" yMin="-37" xMax="1628" yMax="1810">
      <component glyphName="O" x="0" y="0" flags="0x204"/>
      <component glyphName="dieresis" x="502" y="346" flags="0x4"/>
    </TTGlyph>
    <TTGlyph name="Ograve" xMin="55" yMin="-37" xMax="1628" yMax="1986">
      <component glyphName="O" x="0" y="0" flags="0x204"/>
      <component glyphName="grave" x="330" y="346" flags="0x4"/>
    </TTGlyph>
    <TTGlyph name="Ohungarumlaut" xMin="55" yMin="-37" xMax="1628" yMax="1985">
      <component glyphName="O" x="0" y="0" flags="0x204"/>
      <component glyphName="hungarumlaut" x="621" y="336" flags="0x4"/>
    </TTGlyph>
    <TTGlyph name="Omacron" xMin="55" yMin="-37" xMax="1628" yMax="1782">
      <component glyphName="O" x="0" y="0" flags="0x204"/>
      <component glyphName="macron" x="492" y="293" flags="0x4"/>
    </TTGlyph>
    <TTGlyph name="Oslash" xMin="55" yMin="-123" xMax="1628" yMax="1610">
      <contour>
        <pt x="1589" y="1434" on="1"/>
        <pt x="1464" y="1272" on="1"/>
        <pt x="1510" y="1220" on="0"/>
        <pt x="1573" y="1096" on="0"/>
        <pt x="1611" y="958" on="0"/>
        <pt x="1628" y="806" on="0"/>
        <pt x="1628" y="725" on="1"/>
        <pt x="1628" y="567" on="0"/>
        <pt x="1538" y="290" on="0"/>
        <pt x="1348" y="83" on="0"/>
        <pt x="1050" y="-37" on="0"/>
        <pt x="842" y="-37" on="1"/>
        <pt x="739" y="-37" on="0"/>
        <pt x="562" y="-7" on="0"/>
        <pt x="487" y="20" on="1"/>
        <pt x="377" y="-123" on="1"/>
        <pt x="227" y="-25" on="1"/>
        <pt x="317" y="113" on="1"/>
        <pt x="248" y="165" on="0"/>
        <pt x="149" y="299" on="0"/>
        <pt x="85" y="456" on="0"/>
        <pt x="55" y="631" on="0"/>
        <pt x="55" y="725" on="1"/>
        <pt x="55" y="883" on="0"/>
        <pt x="151" y="1162" on="0"/>
        <pt x="346" y="1369" on="0"/>
        <pt x="642" y="1489" on="0"/>
        <pt x="842" y="1489" on="1"/>
        <pt x="1045" y="1489" on="0"/>
        <pt x="1188" y="1442" on="1"/>
        <pt x="1298" y="1610" on="1"/>
      </contour>
      <contour>
        <pt x="842" y="1133" on="1"/>
        <pt x="688" y="1133" on="0"/>
        <pt x="461" y="1069" on="0"/>
        <pt x="311" y="958" on="0"/>
        <pt x="238" y="809" on="0"/>
        <pt x="238" y="725" on="1"/>
        <pt x="238" y="670" on="0"/>
        <pt x="266" y="567" on="0"/>
        <pt x="327" y="476" on="0"/>
        <pt x="422" y="402" on="0"/>
        <pt x="489" y="375" on="1"/>
        <pt x="981" y="1126" on="1"/>
        <pt x="949" y="1129" on="0"/>
        <pt x="879" y="1133" on="0"/>
      </contour>
      <contour>
        <pt x="1446" y="725" on="1"/>
        <pt x="1446" y="773" on="0"/>
        <pt x="1429" y="862" on="0"/>
        <pt x="1391" y="943" on="0"/>
        <pt x="1329" y="1013" on="0"/>
        <pt x="1284" y="1040" on="1"/>
        <pt x="725" y="324" on="1"/>
        <pt x="753" y="322" on="0"/>
        <pt x="811" y="319" on="0"/>
        <pt x="842" y="319" on="1"/>
        <pt x="1002" y="319" on="0"/>
        <pt x="1230" y="383" on="0"/>
        <pt x="1377" y="494" on="0"/>
        <pt x="1446" y="641" on="0"/>
      </contour>
    </TTGlyph>
    <TTGlyph name="Oslashacute" xMin="55" yMin="-123" xMax="1628" yMax="1984">
      <component glyphName="Oslash" x="0" y="0" flags="0x204"/>
      <component glyphName="acute" x="778" y="342" flags="0x4"/>
    </TTGlyph>
    <TTGlyph name="Otilde" xMin="55" yMin="-37" xMax="1628" yMax="1856">
      <component glyphName="O" x="0" y="0" flags="0x204"/>
      <component glyphName="tilde" x="461" y="322" flags="0x4"/>
    </TTGlyph>
    <TTGlyph name="P" xMin="33" yMin="-39" xMax="1659" yMax="1526">
      <contour>
        <pt x="334" y="1155" on="1"/>
        <pt x="262" y="1135" on="0"/>
        <pt x="136" y="1093" on="0"/>
        <pt x="88" y="1073" on="1"/>
        <pt x="33" y="1356" on="1"/>
        <pt x="140" y="1389" on="0"/>
        <pt x="343" y="1439" on="0"/>
        <pt x="529" y="1475" on="0"/>
        <pt x="695" y="1499" on="0"/>
        <pt x="766" y="1507" on="1"/>
        <pt x="931" y="1525" on="0"/>
        <pt x="1071" y="1526" on="1"/>
        <pt x="1218" y="1524" on="0"/>
        <pt x="1438" y="1470" on="0"/>
        <pt x="1585" y="1372" on="0"/>
        <pt x="1659" y="1234" on="0"/>
        <pt x="1659" y="1149" on="1"/>
        <pt x="1659" y="1038" on="0"/>
        <pt x="1556" y="864" on="0"/>
        <pt x="1386" y="731" on="0"/>
        <pt x="1167" y="635" on="0"/>
        <pt x="935" y="569" on="0"/>
        <pt x="707" y="530" on="0"/>
        <pt x="614" y="520" on="1"/>
        <pt x="616" y="246" on="1"/>
        <pt x="954" y="244" on="1"/>
        <pt x="954" y="14" on="1"/>
        <pt x="106" y="-39" on="1"/>
        <pt x="100" y="250" on="1"/>
        <pt x="399" y="248" on="1"/>
      </contour>
      <contour>
        <pt x="1014" y="1284" on="1"/>
        <pt x="980" y="1284" on="0"/>
        <pt x="891" y="1275" on="0"/>
        <pt x="787" y="1260" on="0"/>
        <pt x="671" y="1238" on="0"/>
        <pt x="610" y="1225" on="1"/>
        <pt x="614" y="684" on="1"/>
        <pt x="686" y="699" on="0"/>
        <pt x="847" y="744" on="0"/>
        <pt x="1004" y="804" on="0"/>
        <pt x="1146" y="879" on="0"/>
        <pt x="1250" y="969" on="0"/>
        <pt x="1307" y="1072" on="0"/>
        <pt x="1300" y="1130" on="1"/>
        <pt x="1295" y="1172" on="0"/>
        <pt x="1249" y="1231" on="0"/>
        <pt x="1174" y="1268" on="0"/>
        <pt x="1073" y="1284" on="0"/>
      </contour>
    </TTGlyph>
    <TTGlyph name="Q" xMin="57" yMin="-557" xMax="1630" yMax="1489">
      <contour>
        <pt x="1448" y="-508" on="1"/>
        <pt x="1289" y="-557" on="0"/>
        <pt x="1174" y="-557" on="1"/>
        <pt x="1085" y="-557" on="0"/>
        <pt x="954" y="-508" on="0"/>
        <pt x="862" y="-427" on="0"/>
        <pt x="804" y="-321" on="0"/>
        <pt x="772" y="-206" on="0"/>
        <pt x="760" y="-91" on="0"/>
        <pt x="760" y="-41" on="1"/>
        <pt x="760" y="-35" on="1"/>
        <pt x="572" y="-23" on="0"/>
        <pt x="305" y="106" on="0"/>
        <pt x="135" y="310" on="0"/>
        <pt x="57" y="575" on="0"/>
        <pt x="57" y="725" on="1"/>
        <pt x="57" y="883" on="0"/>
        <pt x="153" y="1162" on="0"/>
        <pt x="348" y="1369" on="0"/>
        <pt x="644" y="1489" on="0"/>
        <pt x="844" y="1489" on="1"/>
        <pt x="1000" y="1489" on="0"/>
        <pt x="1239" y="1434" on="0"/>
        <pt x="1413" y="1335" on="0"/>
        <pt x="1530" y="1196" on="0"/>
        <pt x="1601" y="1026" on="0"/>
        <pt x="1630" y="830" on="0"/>
        <pt x="1630" y="725" on="1"/>
        <pt x="1630" y="575" on="0"/>
        <pt x="1548" y="308" on="0"/>
        <pt x="1375" y="103" on="0"/>
        <pt x="1104" y="-24" on="0"/>
        <pt x="915" y="-35" on="1"/>
        <pt x="922" y="-79" on="0"/>
        <pt x="949" y="-145" on="0"/>
        <pt x="985" y="-195" on="0"/>
        <pt x="1026" y="-229" on="0"/>
        <pt x="1046" y="-240" on="1"/>
        <pt x="1094" y="-266" on="0"/>
        <pt x="1149" y="-270" on="1"/>
        <pt x="1186" y="-270" on="0"/>
        <pt x="1226" y="-265" on="1"/>
        <pt x="1261" y="-260" on="0"/>
        <pt x="1350" y="-241" on="0"/>
        <pt x="1399" y="-221" on="1"/>
      </contour>
      <contour>
        <pt x="1448" y="725" on="1"/>
        <pt x="1448" y="809" on="0"/>
        <pt x="1395" y="958" on="0"/>
        <pt x="1258" y="1069" on="0"/>
        <pt x="1024" y="1133" on="0"/>
        <pt x="844" y="1133" on="1"/>
        <pt x="690" y="1133" on="0"/>
        <pt x="463" y="1069" on="0"/>
        <pt x="313" y="958" on="0"/>
        <pt x="240" y="809" on="0"/>
        <pt x="240" y="725" on="1"/>
        <pt x="240" y="641" on="0"/>
        <pt x="307" y="494" on="0"/>
        <pt x="452" y="383" on="0"/>
        <pt x="681" y="319" on="0"/>
        <pt x="844" y="319" on="1"/>
        <pt x="1004" y="319" on="0"/>
        <pt x="1232" y="383" on="0"/>
        <pt x="1379" y="494" on="0"/>
        <pt x="1448" y="641" on="0"/>
      </contour>
    </TTGlyph>
    <TTGlyph name="R" xMin="74" yMin="-39" xMax="1765" yMax="1489">
      <contour>
        <pt x="1765" y="518" on="1"/>
        <pt x="1690" y="27" on="1"/>
        <pt x="1255" y="27" on="1"/>
        <pt x="899" y="600" on="1"/>
        <pt x="822" y="594" on="0"/>
        <pt x="733" y="594" on="1"/>
        <pt x="699" y="594" on="0"/>
        <pt x="629" y="594" on="0"/>
        <pt x="592" y="596" on="1"/>
        <pt x="575" y="250" on="1"/>
        <pt x="893" y="231" on="1"/>
        <pt x="911" y="27" on="1"/>
        <pt x="96" y="-39" on="1"/>
        <pt x="96" y="279" on="1"/>
        <pt x="381" y="262" on="1"/>
        <pt x="326" y="1112" on="1"/>
        <pt x="115" y="1069" on="1"/>
        <pt x="74" y="1372" on="1"/>
        <pt x="147" y="1394" on="0"/>
        <pt x="296" y="1427" on="0"/>
        <pt x="440" y="1451" on="0"/>
        <pt x="574" y="1468" on="0"/>
        <pt x="633" y="1474" on="1"/>
        <pt x="771" y="1487" on="0"/>
        <pt x="899" y="1489" on="1"/>
        <pt x="1061" y="1489" on="0"/>
        <pt x="1342" y="1435" on="0"/>
        <pt x="1547" y="1329" on="0"/>
        <pt x="1660" y="1172" on="0"/>
        <pt x="1653" y="1069" on="1"/>
        <pt x="1648" y="997" on="0"/>
        <pt x="1573" y="859" on="0"/>
        <pt x="1430" y="741" on="0"/>
        <pt x="1220" y="649" on="0"/>
        <pt x="1079" y="623" on="1"/>
        <pt x="1444" y="272" on="1"/>
        <pt x="1606" y="313" on="1"/>
        <pt x="1608" y="518" on="1"/>
      </contour>
      <contour>
        <pt x="684" y="727" on="1"/>
        <pt x="735" y="727" on="0"/>
        <pt x="871" y="732" on="0"/>
        <pt x="1013" y="753" on="0"/>
        <pt x="1147" y="793" on="0"/>
        <pt x="1246" y="863" on="0"/>
        <pt x="1297" y="966" on="0"/>
        <pt x="1284" y="1040" on="1"/>
        <pt x="1279" y="1068" on="0"/>
        <pt x="1235" y="1127" on="0"/>
        <pt x="1151" y="1175" on="0"/>
        <pt x="1026" y="1206" on="0"/>
        <pt x="940" y="1206" on="1"/>
        <pt x="898" y="1206" on="0"/>
        <pt x="819" y="1202" on="0"/>
        <pt x="742" y="1195" on="0"/>
        <pt x="664" y="1183" on="0"/>
        <pt x="621" y="1176" on="1"/>
        <pt x="598" y="729" on="1"/>
        <pt x="620" y="727" on="0"/>
        <pt x="662" y="727" on="0"/>
      </contour>
    </TTGlyph>
    <TTGlyph name="Racute" xMin="74" yMin="-39" xMax="1765" yMax="1992">
      <component glyphName="R" x="0" y="0" flags="0x204"/>
      <component glyphName="acute" x="791" y="350" flags="0x4"/>
    </TTGlyph>
    <TTGlyph name="Rcaron" xMin="74" yMin="-39" xMax="1765" yMax="1972">
      <component glyphName="R" x="0" y="0" flags="0x204"/>
      <component glyphName="caron" x="561" y="350" flags="0x4"/>
    </TTGlyph>
    <TTGlyph name="Rcommaaccent" xMin="74" yMin="-426" xMax="1765" yMax="1489">
      <component glyphName="R" x="0" y="0" flags="0x204"/>
      <component glyphName="uni0326" x="631" y="0" flags="0x4"/>
    </TTGlyph>
    <TTGlyph name="S" xMin="57" yMin="-113" xMax="1538" yMax="1534">
      <contour>
        <pt x="1538" y="1468" on="1"/>
        <pt x="1333" y="967" on="1"/>
        <pt x="1220" y="1021" on="0"/>
        <pt x="1015" y="1078" on="0"/>
        <pt x="937" y="1091" on="1"/>
        <pt x="845" y="1106" on="0"/>
        <pt x="766" y="1106" on="1"/>
        <pt x="649" y="1104" on="0"/>
        <pt x="487" y="1073" on="0"/>
        <pt x="390" y="1020" on="0"/>
        <pt x="353" y="952" on="0"/>
        <pt x="362" y="913" on="1"/>
        <pt x="372" y="869" on="0"/>
        <pt x="446" y="818" on="0"/>
        <pt x="570" y="793" on="0"/>
        <pt x="741" y="785" on="0"/>
        <pt x="848" y="784" on="1"/>
        <pt x="904" y="783" on="0"/>
        <pt x="1041" y="777" on="0"/>
        <pt x="1182" y="752" on="0"/>
        <pt x="1314" y="702" on="0"/>
        <pt x="1417" y="612" on="0"/>
        <pt x="1479" y="476" on="0"/>
        <pt x="1479" y="377" on="1"/>
        <pt x="1479" y="287" on="0"/>
        <pt x="1427" y="155" on="0"/>
        <pt x="1339" y="62" on="0"/>
        <pt x="1220" y="3" on="0"/>
        <pt x="1086" y="-31" on="0"/>
        <pt x="944" y="-43" on="0"/>
        <pt x="877" y="-43" on="1"/>
        <pt x="792" y="-43" on="0"/>
        <pt x="637" y="-28" on="0"/>
        <pt x="489" y="0" on="0"/>
        <pt x="342" y="39" on="0"/>
        <pt x="266" y="63" on="1"/>
        <pt x="207" y="-113" on="1"/>
        <pt x="66" y="-72" on="1"/>
        <pt x="195" y="422" on="1"/>
        <pt x="285" y="383" on="0"/>
        <pt x="462" y="321" on="0"/>
        <pt x="641" y="278" on="0"/>
        <pt x="823" y="256" on="0"/>
        <pt x="918" y="256" on="1"/>
        <pt x="1011" y="256" on="0"/>
        <pt x="1143" y="278" on="0"/>
        <pt x="1226" y="322" on="0"/>
        <pt x="1264" y="388" on="0"/>
        <pt x="1264" y="432" on="1"/>
        <pt x="1264" y="487" on="0"/>
        <pt x="1208" y="551" on="0"/>
        <pt x="1095" y="585" on="0"/>
        <pt x="926" y="597" on="0"/>
        <pt x="813" y="600" on="1"/>
        <pt x="734" y="602" on="0"/>
        <pt x="560" y="610" on="0"/>
        <pt x="392" y="636" on="0"/>
        <pt x="240" y="686" on="0"/>
        <pt x="125" y="774" on="0"/>
        <pt x="57" y="906" on="0"/>
        <pt x="57" y="1001" on="1"/>
        <pt x="57" y="1086" on="0"/>
        <pt x="112" y="1223" on="0"/>
        <pt x="212" y="1328" on="0"/>
        <pt x="349" y="1403" on="0"/>
        <pt x="514" y="1450" on="0"/>
        <pt x="699" y="1470" on="0"/>
        <pt x="797" y="1468" on="1"/>
        <pt x="897" y="1463" on="0"/>
        <pt x="995" y="1448" on="1"/>
        <pt x="1036" y="1442" on="0"/>
        <pt x="1126" y="1423" on="0"/>
        <pt x="1214" y="1396" on="0"/>
        <pt x="1296" y="1361" on="0"/>
        <pt x="1331" y="1339" on="1"/>
        <pt x="1374" y="1534" on="1"/>
      </contour>
    </TTGlyph>
    <TTGlyph name="Sacute" xMin="57" yMin="-113" xMax="1538" yMax="1976">
      <component glyphName="S" x="0" y="0" flags="0x204"/>
      <component glyphName="acute" x="735" y="334" flags="0x4"/>
    </TTGlyph>
    <TTGlyph name="Scaron" xMin="57" yMin="-113" xMax="1538" yMax="1968">
      <component glyphName="S" x="0" y="0" flags="0x204"/>
      <component glyphName="caron" x="463" y="346" flags="0x4"/>
    </TTGlyph>
    <TTGlyph name="Scedilla" xMin="57" yMin="-512" xMax="1538" yMax="1534">
      <contour>
        <pt x="1004" y="-270" on="1"/>
        <pt x="1016" y="-310" on="0"/>
        <pt x="994" y="-396" on="0"/>
        <pt x="923" y="-466" on="0"/>
        <pt x="803" y="-512" on="0"/>
        <pt x="717" y="-512" on="1"/>
        <pt x="675" y="-512" on="0"/>
        <pt x="581" y="-501" on="0"/>
        <pt x="528" y="-487" on="1"/>
        <pt x="588" y="-319" on="1"/>
        <pt x="628" y="-329" on="0"/>
        <pt x="689" y="-336" on="0"/>
        <pt x="715" y="-336" on="1"/>
        <pt x="755" y="-336" on="0"/>
        <pt x="801" y="-321" on="0"/>
        <pt x="814" y="-311" on="1"/>
        <pt x="828" y="-300" on="0"/>
        <pt x="834" y="-285" on="1"/>
        <pt x="836" y="-267" on="0"/>
        <pt x="825" y="-253" on="1"/>
        <pt x="815" y="-241" on="0"/>
        <pt x="766" y="-221" on="0"/>
        <pt x="717" y="-221" on="1"/>
        <pt x="697" y="-221" on="0"/>
        <pt x="653" y="-224" on="0"/>
        <pt x="625" y="-229" on="1"/>
        <pt x="709" y="-35" on="1"/>
        <pt x="593" y="-22" on="0"/>
        <pt x="379" y="28" on="0"/>
        <pt x="266" y="63" on="1"/>
        <pt x="207" y="-113" on="1"/>
        <pt x="66" y="-72" on="1"/>
        <pt x="195" y="422" on="1"/>
        <pt x="285" y="383" on="0"/>
        <pt x="462" y="321" on="0"/>
        <pt x="641" y="278" on="0"/>
        <pt x="823" y="256" on="0"/>
        <pt x="918" y="256" on="1"/>
        <pt x="1011" y="256" on="0"/>
        <pt x="1143" y="278" on="0"/>
        <pt x="1226" y="322" on="0"/>
        <pt x="1264" y="388" on="0"/>
        <pt x="1264" y="432" on="1"/>
        <pt x="1264" y="487" on="0"/>
        <pt x="1208" y="551" on="0"/>
        <pt x="1095" y="585" on="0"/>
        <pt x="926" y="597" on="0"/>
        <pt x="813" y="600" on="1"/>
        <pt x="734" y="602" on="0"/>
        <pt x="560" y="610" on="0"/>
        <pt x="392" y="636" on="0"/>
        <pt x="240" y="686" on="0"/>
        <pt x="125" y="774" on="0"/>
        <pt x="57" y="906" on="0"/>
        <pt x="57" y="1001" on="1"/>
        <pt x="57" y="1086" on="0"/>
        <pt x="112" y="1223" on="0"/>
        <pt x="212" y="1328" on="0"/>
        <pt x="349" y="1403" on="0"/>
        <pt x="514" y="1450" on="0"/>
        <pt x="699" y="1470" on="0"/>
        <pt x="797" y="1468" on="1"/>
        <pt x="897" y="1463" on="0"/>
        <pt x="995" y="1448" on="1"/>
        <pt x="1036" y="1442" on="0"/>
        <pt x="1126" y="1423" on="0"/>
        <pt x="1214" y="1396" on="0"/>
        <pt x="1296" y="1361" on="0"/>
        <pt x="1331" y="1339" on="1"/>
        <pt x="1374" y="1534" on="1"/>
        <pt x="1538" y="1468" on="1"/>
        <pt x="1333" y="967" on="1"/>
        <pt x="1220" y="1021" on="0"/>
        <pt x="1015" y="1078" on="0"/>
        <pt x="937" y="1091" on="1"/>
        <pt x="845" y="1106" on="0"/>
        <pt x="766" y="1106" on="1"/>
        <pt x="649" y="1104" on="0"/>
        <pt x="487" y="1073" on="0"/>
        <pt x="390" y="1020" on="0"/>
        <pt x="353" y="952" on="0"/>
        <pt x="362" y="913" on="1"/>
        <pt x="372" y="869" on="0"/>
        <pt x="446" y="818" on="0"/>
        <pt x="570" y="793" on="0"/>
        <pt x="741" y="785" on="0"/>
        <pt x="848" y="784" on="1"/>
        <pt x="904" y="783" on="0"/>
        <pt x="1041" y="777" on="0"/>
        <pt x="1182" y="752" on="0"/>
        <pt x="1314" y="702" on="0"/>
        <pt x="1417" y="612" on="0"/>
        <pt x="1479" y="476" on="0"/>
        <pt x="1479" y="377" on="1"/>
        <pt x="1479" y="287" on="0"/>
        <pt x="1427" y="155" on="0"/>
        <pt x="1339" y="62" on="0"/>
        <pt x="1220" y="3" on="0"/>
        <pt x="1086" y="-31" on="0"/>
        <pt x="944" y="-43" on="0"/>
        <pt x="877" y="-43" on="1"/>
        <pt x="860" y="-43" on="0"/>
        <pt x="826" y="-43" on="0"/>
        <pt x="809" y="-41" on="1"/>
        <pt x="772" y="-150" on="1"/>
        <pt x="843" y="-147" on="0"/>
        <pt x="933" y="-184" on="0"/>
        <pt x="959" y="-207" on="1"/>
        <pt x="989" y="-234" on="0"/>
      </contour>
    </TTGlyph>
    <TTGlyph name="Scircumflex" xMin="57" yMin="-113" xMax="1538" yMax="1941">
      <component glyphName="S" x="0" y="0" flags="0x204"/>
      <component glyphName="circumflex" x="449" y="305" flags="0x4"/>
    </TTGlyph>
    <TTGlyph name="T" xMin="35" yMin="-8" xMax="1477" yMax="1454">
      <contour>
        <pt x="1165" y="272" on="1"/>
        <pt x="1159" y="18" on="1"/>
        <pt x="299" y="-8" on="1"/>
        <pt x="299" y="307" on="1"/>
        <pt x="633" y="293" on="1"/>
        <pt x="569" y="1100" on="1"/>
        <pt x="213" y="1098" on="1"/>
        <pt x="207" y="805" on="1"/>
        <pt x="35" y="805" on="1"/>
        <pt x="86" y="1401" on="1"/>
        <pt x="1401" y="1454" on="1"/>
        <pt x="1477" y="831" on="1"/>
        <pt x="1288" y="805" on="1"/>
        <pt x="1282" y="1104" on="1"/>
        <pt x="885" y="1102" on="1"/>
        <pt x="819" y="287" on="1"/>
      </contour>
    </TTGlyph>
    <TTGlyph name="Tbar" xMin="35" yMin="-8" xMax="1477" yMax="1454">
      <contour>
        <pt x="1165" y="272" on="1"/>
        <pt x="1159" y="18" on="1"/>
        <pt x="299" y="-8" on="1"/>
        <pt x="299" y="307" on="1"/>
        <pt x="633" y="293" on="1"/>
        <pt x="610" y="557" on="1"/>
        <pt x="338" y="557" on="1"/>
        <pt x="324" y="752" on="1"/>
        <pt x="594" y="768" on="1"/>
        <pt x="569" y="1100" on="1"/>
        <pt x="213" y="1098" on="1"/>
        <pt x="207" y="805" on="1"/>
        <pt x="35" y="805" on="1"/>
        <pt x="86" y="1401" on="1"/>
        <pt x="1401" y="1454" on="1"/>
        <pt x="1477" y="831" on="1"/>
        <pt x="1288" y="805" on="1"/>
        <pt x="1282" y="1104" on="1"/>
        <pt x="885" y="1102" on="1"/>
        <pt x="858" y="786" on="1"/>
        <pt x="1147" y="805" on="1"/>
        <pt x="1157" y="557" on="1"/>
        <pt x="840" y="557" on="1"/>
        <pt x="819" y="287" on="1"/>
      </contour>
    </TTGlyph>
    <TTGlyph name="Tcaron" xMin="35" yMin="-8" xMax="1477" yMax="1919">
      <component glyphName="T" x="0" y="0" flags="0x204"/>
      <component glyphName="caron" x="414" y="297" flags="0x4"/>
    </TTGlyph>
    <TTGlyph name="Tcommaaccent" xMin="35" yMin="-426" xMax="1477" yMax="1454">
      <component glyphName="T" x="0" y="0" flags="0x204"/>
      <component glyphName="uni0326" x="483" y="0" flags="0x4"/>
    </TTGlyph>
    <TTGlyph name="Thorn" xMin="31" yMin="-39" xMax="1657" yMax="1581">
      <contour>
        <pt x="608" y="1282" on="1"/>
        <pt x="712" y="1297" on="0"/>
        <pt x="881" y="1313" on="0"/>
        <pt x="942" y="1317" on="1"/>
        <pt x="1013" y="1321" on="0"/>
        <pt x="1069" y="1321" on="1"/>
        <pt x="1216" y="1319" on="0"/>
        <pt x="1436" y="1265" on="0"/>
        <pt x="1583" y="1167" on="0"/>
        <pt x="1657" y="1029" on="0"/>
        <pt x="1657" y="944" on="1"/>
        <pt x="1657" y="861" on="0"/>
        <pt x="1598" y="721" on="0"/>
        <pt x="1495" y="606" on="0"/>
        <pt x="1356" y="514" on="0"/>
        <pt x="1195" y="441" on="0"/>
        <pt x="1021" y="387" on="0"/>
        <pt x="848" y="348" on="0"/>
        <pt x="684" y="322" on="0"/>
        <pt x="614" y="315" on="1"/>
        <pt x="614" y="246" on="1"/>
        <pt x="952" y="244" on="1"/>
        <pt x="952" y="14" on="1"/>
        <pt x="104" y="-39" on="1"/>
        <pt x="98" y="250" on="1"/>
        <pt x="397" y="248" on="1"/>
        <pt x="356" y="958" on="1"/>
        <pt x="278" y="937" on="0"/>
        <pt x="139" y="890" on="0"/>
        <pt x="86" y="868" on="1"/>
        <pt x="31" y="1151" on="1"/>
        <pt x="112" y="1176" on="0"/>
        <pt x="266" y="1216" on="0"/>
        <pt x="340" y="1233" on="1"/>
        <pt x="324" y="1540" on="1"/>
        <pt x="608" y="1581" on="1"/>
      </contour>
      <contour>
        <pt x="1012" y="1079" on="1"/>
        <pt x="978" y="1079" on="0"/>
        <pt x="889" y="1070" on="0"/>
        <pt x="785" y="1055" on="0"/>
        <pt x="670" y="1033" on="0"/>
        <pt x="610" y="1020" on="1"/>
        <pt x="612" y="479" on="1"/>
        <pt x="684" y="494" on="0"/>
        <pt x="846" y="540" on="0"/>
        <pt x="1003" y="601" on="0"/>
        <pt x="1144" y="675" on="0"/>
        <pt x="1249" y="764" on="0"/>
        <pt x="1305" y="868" on="0"/>
        <pt x="1298" y="926" on="1"/>
        <pt x="1293" y="968" on="0"/>
        <pt x="1247" y="1026" on="0"/>
        <pt x="1172" y="1063" on="0"/>
        <pt x="1071" y="1079" on="0"/>
      </contour>
    </TTGlyph>
    <TTGlyph name="U" xMin="35" yMin="-49" xMax="1921" yMax="1454">
      <contour>
        <pt x="1565" y="506" on="1"/>
        <pt x="1556" y="451" on="0"/>
        <pt x="1517" y="326" on="0"/>
        <pt x="1449" y="202" on="0"/>
        <pt x="1351" y="89" on="0"/>
        <pt x="1215" y="3" on="0"/>
        <pt x="1039" y="-49" on="0"/>
        <pt x="928" y="-49" on="1"/>
        <pt x="773" y="-49" on="0"/>
        <pt x="528" y="42" on="0"/>
        <pt x="358" y="201" on="0"/>
        <pt x="268" y="415" on="0"/>
        <pt x="268" y="539" on="1"/>
        <pt x="268" y="567" on="0"/>
        <pt x="276" y="680" on="0"/>
        <pt x="292" y="838" on="0"/>
        <pt x="314" y="1035" on="0"/>
        <pt x="328" y="1147" on="1"/>
        <pt x="35" y="1139" on="1"/>
        <pt x="35" y="1454" on="1"/>
        <pt x="901" y="1419" on="1"/>
        <pt x="895" y="1165" on="1"/>
        <pt x="629" y="1157" on="1"/>
        <pt x="598" y="1004" on="0"/>
        <pt x="565" y="799" on="0"/>
        <pt x="557" y="736" on="1"/>
        <pt x="548" y="662" on="0"/>
        <pt x="547" y="618" on="1"/>
        <pt x="547" y="519" on="0"/>
        <pt x="593" y="388" on="0"/>
        <pt x="688" y="311" on="0"/>
        <pt x="831" y="279" on="0"/>
        <pt x="928" y="279" on="1"/>
        <pt x="992" y="279" on="0"/>
        <pt x="1118" y="289" on="0"/>
        <pt x="1231" y="317" on="0"/>
        <pt x="1324" y="368" on="0"/>
        <pt x="1389" y="450" on="0"/>
        <pt x="1420" y="567" on="0"/>
        <pt x="1413" y="647" on="1"/>
        <pt x="1413" y="702" on="0"/>
        <pt x="1409" y="777" on="1"/>
        <pt x="1406" y="841" on="0"/>
        <pt x="1391" y="1025" on="0"/>
        <pt x="1378" y="1143" on="1"/>
        <pt x="1063" y="1116" on="1"/>
        <pt x="1047" y="1432" on="1"/>
        <pt x="1913" y="1440" on="1"/>
        <pt x="1921" y="1188" on="1"/>
        <pt x="1571" y="1159" on="1"/>
        <pt x="1577" y="1062" on="0"/>
        <pt x="1581" y="900" on="0"/>
        <pt x="1581" y="834" on="1"/>
        <pt x="1581" y="747" on="0"/>
        <pt x="1576" y="624" on="0"/>
        <pt x="1573" y="584" on="1"/>
        <pt x="1569" y="537" on="0"/>
      </contour>
    </TTGlyph>
    <TTGlyph name="Uacute" xMin="35" yMin="-49" xMax="1921" yMax="1947">
      <component glyphName="U" x="0" y="0" flags="0x204"/>
      <component glyphName="acute" x="901" y="305" flags="0x4"/>
    </TTGlyph>
    <TTGlyph name="Ubreve" xMin="35" yMin="-49" xMax="1921" yMax="1833">
      <component glyphName="U" x="0" y="0" flags="0x204"/>
      <component glyphName="breve" x="664" y="287" flags="0x4"/>
    </TTGlyph>
    <TTGlyph name="Ucircumflex" xMin="35" yMin="-49" xMax="1921" yMax="1910">
      <component glyphName="U" x="0" y="0" flags="0x204"/>
      <component glyphName="circumflex" x="643" y="274" flags="0x4"/>
    </TTGlyph>
    <TTGlyph name="Udieresis" xMin="35" yMin="-49" xMax="1921" yMax="1769">
      <component glyphName="U" x="0" y="0" flags="0x204"/>
      <component glyphName="dieresis" x="637" y="305" flags="0x4"/>
    </TTGlyph>
    <TTGlyph name="Ugrave" xMin="35" yMin="-49" xMax="1921" yMax="1955">
      <component glyphName="U" x="0" y="0" flags="0x204"/>
      <component glyphName="grave" x="485" y="315" flags="0x4"/>
    </TTGlyph>
    <TTGlyph name="Uhungarumlaut" xMin="35" yMin="-49" xMax="1921" yMax="1938">
      <component glyphName="U" x="0" y="0" flags="0x204"/>
      <component glyphName="hungarumlaut" x="739" y="289" flags="0x4"/>
    </TTGlyph>
    <TTGlyph name="Umacron" xMin="35" yMin="-49" xMax="1921" yMax="1776">
      <component glyphName="U" x="0" y="0" flags="0x204"/>
      <component glyphName="macron" x="600" y="287" flags="0x4"/>
    </TTGlyph>
    <TTGlyph name="Uogonek" xMin="35" yMin="-451" xMax="1921" yMax="1454">
      <contour>
        <pt x="1225" y="-397" on="1"/>
        <pt x="1156" y="-426" on="0"/>
        <pt x="1042" y="-451" on="0"/>
        <pt x="995" y="-451" on="1"/>
        <pt x="947" y="-451" on="0"/>
        <pt x="857" y="-424" on="0"/>
        <pt x="787" y="-373" on="0"/>
        <pt x="745" y="-300" on="0"/>
        <pt x="745" y="-254" on="1"/>
        <pt x="745" y="-212" on="0"/>
        <pt x="784" y="-104" on="0"/>
        <pt x="844" y="-45" on="1"/>
        <pt x="708" y="-33" on="0"/>
        <pt x="494" y="66" on="0"/>
        <pt x="346" y="221" on="0"/>
        <pt x="268" y="423" on="0"/>
        <pt x="268" y="539" on="1"/>
        <pt x="268" y="567" on="0"/>
        <pt x="276" y="680" on="0"/>
        <pt x="292" y="838" on="0"/>
        <pt x="314" y="1035" on="0"/>
        <pt x="328" y="1147" on="1"/>
        <pt x="35" y="1139" on="1"/>
        <pt x="35" y="1454" on="1"/>
        <pt x="901" y="1419" on="1"/>
        <pt x="895" y="1165" on="1"/>
        <pt x="629" y="1157" on="1"/>
        <pt x="598" y="1004" on="0"/>
        <pt x="565" y="799" on="0"/>
        <pt x="557" y="736" on="1"/>
        <pt x="548" y="662" on="0"/>
        <pt x="547" y="618" on="1"/>
        <pt x="547" y="519" on="0"/>
        <pt x="593" y="388" on="0"/>
        <pt x="688" y="311" on="0"/>
        <pt x="831" y="279" on="0"/>
        <pt x="928" y="279" on="1"/>
        <pt x="992" y="279" on="0"/>
        <pt x="1118" y="289" on="0"/>
        <pt x="1231" y="317" on="0"/>
        <pt x="1324" y="368" on="0"/>
        <pt x="1389" y="450" on="0"/>
        <pt x="1420" y="567" on="0"/>
        <pt x="1413" y="647" on="1"/>
        <pt x="1413" y="702" on="0"/>
        <pt x="1409" y="777" on="1"/>
        <pt x="1406" y="841" on="0"/>
        <pt x="1391" y="1025" on="0"/>
        <pt x="1378" y="1143" on="1"/>
        <pt x="1063" y="1116" on="1"/>
        <pt x="1047" y="1432" on="1"/>
        <pt x="1913" y="1440" on="1"/>
        <pt x="1921" y="1188" on="1"/>
        <pt x="1571" y="1159" on="1"/>
        <pt x="1577" y="1062" on="0"/>
        <pt x="1581" y="900" on="0"/>
        <pt x="1581" y="834" on="1"/>
        <pt x="1581" y="747" on="0"/>
        <pt x="1576" y="624" on="0"/>
        <pt x="1573" y="584" on="1"/>
        <pt x="1569" y="537" on="0"/>
        <pt x="1565" y="506" on="1"/>
        <pt x="1557" y="453" on="0"/>
        <pt x="1520" y="334" on="0"/>
        <pt x="1458" y="216" on="0"/>
        <pt x="1368" y="106" on="0"/>
        <pt x="1245" y="19" on="0"/>
        <pt x="1087" y="-40" on="0"/>
        <pt x="987" y="-47" on="1"/>
        <pt x="951" y="-80" on="0"/>
        <pt x="916" y="-134" on="0"/>
        <pt x="909" y="-153" on="1"/>
        <pt x="901" y="-176" on="0"/>
        <pt x="903" y="-193" on="1"/>
        <pt x="907" y="-203" on="0"/>
        <pt x="918" y="-211" on="1"/>
        <pt x="927" y="-218" on="0"/>
        <pt x="962" y="-229" on="0"/>
        <pt x="991" y="-229" on="1"/>
        <pt x="1020" y="-229" on="0"/>
        <pt x="1104" y="-214" on="0"/>
        <pt x="1163" y="-193" on="1"/>
      </contour>
    </TTGlyph>
    <TTGlyph name="Uring" xMin="35" yMin="-49" xMax="1921" yMax="1992">
      <component glyphName="U" x="0" y="0" flags="0x204"/>
      <component glyphName="ring" x="711" y="311" flags="0x4"/>
    </TTGlyph>
    <TTGlyph name="Utilde" xMin="35" yMin="-49" xMax="1921" yMax="1831">
      <component glyphName="U" x="0" y="0" flags="0x204"/>
      <component glyphName="tilde" x="571" y="297" flags="0x4"/>
    </TTGlyph>
    <TTGlyph name="V" xMin="-14" yMin="-8" xMax="1872" yMax="1454">
      <contour>
        <pt x="1337" y="272" on="1"/>
        <pt x="1331" y="18" on="1"/>
        <pt x="471" y="-8" on="1"/>
        <pt x="471" y="307" on="1"/>
        <pt x="680" y="299" on="1"/>
        <pt x="272" y="1147" on="1"/>
        <pt x="-14" y="1139" on="1"/>
        <pt x="-14" y="1454" on="1"/>
        <pt x="852" y="1419" on="1"/>
        <pt x="846" y="1165" on="1"/>
        <pt x="598" y="1157" on="1"/>
        <pt x="846" y="360" on="1"/>
        <pt x="1315" y="1141" on="1"/>
        <pt x="1014" y="1116" on="1"/>
        <pt x="997" y="1432" on="1"/>
        <pt x="1864" y="1440" on="1"/>
        <pt x="1872" y="1188" on="1"/>
        <pt x="1532" y="1159" on="1"/>
        <pt x="1126" y="281" on="1"/>
      </contour>
    </TTGlyph>
    <TTGlyph name="W" xMin="45" yMin="-8" xMax="2234" yMax="1468">
      <contour>
        <pt x="1843" y="272" on="1"/>
        <pt x="1839" y="18" on="1"/>
        <pt x="1130" y="-8" on="1"/>
        <pt x="1130" y="307" on="1"/>
        <pt x="1231" y="301" on="1"/>
        <pt x="1096" y="942" on="1"/>
        <pt x="879" y="276" on="1"/>
        <pt x="967" y="272" on="1"/>
        <pt x="961" y="18" on="1"/>
        <pt x="252" y="-8" on="1"/>
        <pt x="252" y="307" on="1"/>
        <pt x="473" y="295" on="1"/>
        <pt x="238" y="1145" on="1"/>
        <pt x="45" y="1139" on="1"/>
        <pt x="45" y="1454" on="1"/>
        <pt x="911" y="1419" on="1"/>
        <pt x="905" y="1165" on="1"/>
        <pt x="553" y="1153" on="1"/>
        <pt x="655" y="457" on="1"/>
        <pt x="1032" y="1186" on="1"/>
        <pt x="1202" y="1186" on="1"/>
        <pt x="1430" y="510" on="1"/>
        <pt x="1673" y="1169" on="1"/>
        <pt x="1378" y="1145" on="1"/>
        <pt x="1362" y="1460" on="1"/>
        <pt x="2228" y="1468" on="1"/>
        <pt x="2234" y="1214" on="1"/>
        <pt x="1905" y="1188" on="1"/>
        <pt x="1616" y="283" on="1"/>
      </contour>
    </TTGlyph>
    <TTGlyph name="Wacute" xMin="45" yMin="-8" xMax="2234" yMax="1886">
      <component glyphName="W" x="0" y="0" flags="0x204"/>
      <component glyphName="acute" x="1026" y="244" flags="0x4"/>
    </TTGlyph>
    <TTGlyph name="Wcircumflex" xMin="45" yMin="-8" xMax="2234" yMax="1908">
      <component glyphName="W" x="0" y="0" flags="0x204"/>
      <component glyphName="circumflex" x="811" y="272" flags="0x4"/>
    </TTGlyph>
    <TTGlyph name="Wdieresis" xMin="45" yMin="-8" xMax="2234" yMax="1775">
      <component glyphName="W" x="0" y="0" flags="0x204"/>
      <component glyphName="dieresis" x="791" y="311" flags="0x4"/>
    </TTGlyph>
    <TTGlyph name="Wgrave" xMin="45" yMin="-8" xMax="2234" yMax="1888">
      <component glyphName="W" x="0" y="0" flags="0x204"/>
      <component glyphName="grave" x="604" y="248" flags="0x4"/>
    </TTGlyph>
    <TTGlyph name="X" xMin="72" yMin="-14" xMax="1876" yMax="1460">
      <contour>
        <pt x="1876" y="57" on="1"/>
        <pt x="1018" y="-14" on="1"/>
        <pt x="1001" y="301" on="1"/>
        <pt x="1241" y="303" on="1"/>
        <pt x="993" y="590" on="1"/>
        <pt x="713" y="297" on="1"/>
        <pt x="938" y="289" on="1"/>
        <pt x="932" y="35" on="1"/>
        <pt x="72" y="8" on="1"/>
        <pt x="72" y="324" on="1"/>
        <pt x="385" y="311" on="1"/>
        <pt x="782" y="698" on="1"/>
        <pt x="332" y="1153" on="1"/>
        <pt x="72" y="1145" on="1"/>
        <pt x="72" y="1460" on="1"/>
        <pt x="938" y="1425" on="1"/>
        <pt x="932" y="1171" on="1"/>
        <pt x="709" y="1163" on="1"/>
        <pt x="936" y="846" on="1"/>
        <pt x="1237" y="1141" on="1"/>
        <pt x="1018" y="1122" on="1"/>
        <pt x="1001" y="1438" on="1"/>
        <pt x="1868" y="1446" on="1"/>
        <pt x="1876" y="1194" on="1"/>
        <pt x="1546" y="1165" on="1"/>
        <pt x="1141" y="743" on="1"/>
        <pt x="1655" y="307" on="1"/>
        <pt x="1868" y="309" on="1"/>
      </contour>
    </TTGlyph>
    <TTGlyph name="Y" xMin="10" yMin="-2" xMax="1815" yMax="1460">
      <contour>
        <pt x="1278" y="279" on="1"/>
        <pt x="1274" y="25" on="1"/>
        <pt x="414" y="-2" on="1"/>
        <pt x="414" y="313" on="1"/>
        <pt x="762" y="299" on="1"/>
        <pt x="696" y="596" on="1"/>
        <pt x="289" y="1153" on="1"/>
        <pt x="10" y="1145" on="1"/>
        <pt x="10" y="1460" on="1"/>
        <pt x="877" y="1425" on="1"/>
        <pt x="870" y="1171" on="1"/>
        <pt x="645" y="1163" on="1"/>
        <pt x="856" y="737" on="1"/>
        <pt x="1292" y="1151" on="1"/>
        <pt x="956" y="1122" on="1"/>
        <pt x="940" y="1438" on="1"/>
        <pt x="1806" y="1446" on="1"/>
        <pt x="1815" y="1194" on="1"/>
        <pt x="1538" y="1171" on="1"/>
        <pt x="1075" y="535" on="1"/>
        <pt x="1008" y="289" on="1"/>
      </contour>
    </TTGlyph>
    <TTGlyph name="Yacute" xMin="10" yMin="-2" xMax="1815" yMax="1961">
      <component glyphName="Y" x="0" y="0" flags="0x204"/>
      <component glyphName="acute" x="860" y="319" flags="0x4"/>
    </TTGlyph>
    <TTGlyph name="Ycircumflex" xMin="10" yMin="-2" xMax="1815" yMax="1912">
      <component glyphName="Y" x="0" y="0" flags="0x204"/>
      <component glyphName="circumflex" x="602" y="276" flags="0x4"/>
    </TTGlyph>
    <TTGlyph name="Ydieresis" xMin="10" yMin="-2" xMax="1815" yMax="1779">
      <component glyphName="Y" x="0" y="0" flags="0x204"/>
      <component glyphName="dieresis" x="571" y="315" flags="0x4"/>
    </TTGlyph>
    <TTGlyph name="Ygrave" xMin="10" yMin="-2" xMax="1815" yMax="1951">
      <component glyphName="Y" x="0" y="0" flags="0x204"/>
      <component glyphName="grave" x="395" y="311" flags="0x4"/>
    </TTGlyph>
    <TTGlyph name="Z" xMin="74" yMin="8" xMax="1446" yMax="1460">
      <contour>
        <pt x="1425" y="1145" on="1"/>
        <pt x="489" y="330" on="1"/>
        <pt x="1235" y="344" on="1"/>
        <pt x="1235" y="575" on="1"/>
        <pt x="1446" y="575" on="1"/>
        <pt x="1405" y="8" on="1"/>
        <pt x="121" y="8" on="1"/>
        <pt x="74" y="324" on="1"/>
        <pt x="1178" y="1139" on="1"/>
        <pt x="285" y="1122" on="1"/>
        <pt x="285" y="893" on="1"/>
        <pt x="74" y="893" on="1"/>
        <pt x="115" y="1460" on="1"/>
        <pt x="1376" y="1460" on="1"/>
      </contour>
    </TTGlyph>
    <TTGlyph name="Zacute" xMin="74" yMin="8" xMax="1446" yMax="1982">
      <component glyphName="Z" x="0" y="0" flags="0x204"/>
      <component glyphName="acute" x="676" y="340" flags="0x4"/>
    </TTGlyph>
    <TTGlyph name="Zcaron" xMin="74" yMin="8" xMax="1446" yMax="1962">
      <component glyphName="Z" x="0" y="0" flags="0x204"/>
      <component glyphName="caron" x="424" y="340" flags="0x4"/>
    </TTGlyph>
    <TTGlyph name="Zdotaccent" xMin="74" yMin="8" xMax="1446" yMax="1783">
      <component glyphName="Z" x="0" y="0" flags="0x204"/>
      <component glyphName="dotaccent" x="621" y="319" flags="0x4"/>
    </TTGlyph>
    <TTGlyph name="a" xMin="41" yMin="-70" xMax="1300" yMax="1051">
      <contour>
        <pt x="1300" y="115" on="1"/>
        <pt x="1249" y="-70" on="1"/>
        <pt x="752" y="-33" on="1"/>
        <pt x="754" y="-18" on="0"/>
        <pt x="760" y="18" on="0"/>
        <pt x="763" y="34" on="1"/>
        <pt x="767" y="52" on="0"/>
        <pt x="770" y="70" on="1"/>
        <pt x="683" y="22" on="0"/>
        <pt x="505" y="-18" on="0"/>
        <pt x="420" y="-18" on="1"/>
        <pt x="358" y="-18" on="0"/>
        <pt x="224" y="4" on="0"/>
        <pt x="113" y="59" on="0"/>
        <pt x="41" y="150" on="0"/>
        <pt x="41" y="219" on="1"/>
        <pt x="41" y="292" on="0"/>
        <pt x="107" y="398" on="0"/>
        <pt x="215" y="473" on="0"/>
        <pt x="352" y="519" on="0"/>
        <pt x="493" y="546" on="0"/>
        <pt x="627" y="555" on="0"/>
        <pt x="678" y="555" on="1"/>
        <pt x="732" y="555" on="0"/>
        <pt x="818" y="550" on="0"/>
        <pt x="852" y="545" on="1"/>
        <pt x="864" y="618" on="0"/>
        <pt x="864" y="684" on="1"/>
        <pt x="864" y="732" on="0"/>
        <pt x="839" y="810" on="0"/>
        <pt x="778" y="862" on="0"/>
        <pt x="677" y="888" on="0"/>
        <pt x="602" y="885" on="1"/>
        <pt x="552" y="880" on="0"/>
        <pt x="510" y="857" on="1"/>
        <pt x="492" y="847" on="0"/>
        <pt x="455" y="817" on="0"/>
        <pt x="422" y="775" on="0"/>
        <pt x="396" y="718" on="0"/>
        <pt x="389" y="682" on="1"/>
        <pt x="66" y="666" on="1"/>
        <pt x="73" y="735" on="0"/>
        <pt x="129" y="842" on="0"/>
        <pt x="210" y="921" on="0"/>
        <pt x="308" y="977" on="0"/>
        <pt x="358" y="996" on="1"/>
        <pt x="476" y="1039" on="0"/>
        <pt x="621" y="1049" on="1"/>
        <pt x="751" y="1051" on="0"/>
        <pt x="932" y="998" on="0"/>
        <pt x="1050" y="909" on="0"/>
        <pt x="1116" y="797" on="0"/>
        <pt x="1146" y="686" on="0"/>
        <pt x="1150" y="587" on="0"/>
        <pt x="1149" y="555" on="1"/>
        <pt x="1146" y="516" on="0"/>
        <pt x="1135" y="457" on="1"/>
        <pt x="1126" y="406" on="0"/>
        <pt x="1091" y="252" on="0"/>
        <pt x="1061" y="145" on="1"/>
      </contour>
      <contour>
        <pt x="829" y="410" on="1"/>
        <pt x="806" y="412" on="0"/>
        <pt x="752" y="414" on="0"/>
        <pt x="723" y="414" on="1"/>
        <pt x="698" y="414" on="0"/>
        <pt x="625" y="410" on="0"/>
        <pt x="545" y="399" on="0"/>
        <pt x="465" y="379" on="0"/>
        <pt x="402" y="347" on="0"/>
        <pt x="362" y="301" on="0"/>
        <pt x="362" y="270" on="1"/>
        <pt x="362" y="246" on="0"/>
        <pt x="391" y="203" on="0"/>
        <pt x="441" y="173" on="0"/>
        <pt x="508" y="160" on="0"/>
        <pt x="545" y="166" on="1"/>
        <pt x="620" y="180" on="0"/>
        <pt x="753" y="221" on="0"/>
        <pt x="801" y="240" on="1"/>
        <pt x="809" y="282" on="0"/>
        <pt x="823" y="368" on="0"/>
      </contour>
    </TTGlyph>
    <TTGlyph name="aacute" xMin="41" yMin="-70" xMax="1300" yMax="1543">
      <component glyphName="a" x="0" y="0" flags="0x204"/>
      <component glyphName="acute" x="649" y="-99" flags="0x4"/>
    </TTGlyph>
    <TTGlyph name="abreve" xMin="41" yMin="-70" xMax="1300" yMax="1424">
      <component glyphName="a" x="0" y="0" flags="0x204"/>
      <component glyphName="breve" x="336" y="-122" flags="0x4"/>
    </TTGlyph>
    <TTGlyph name="acircumflex" xMin="41" yMin="-70" xMax="1300" yMax="1496">
      <component glyphName="a" x="0" y="0" flags="0x204"/>
      <component glyphName="circumflex" x="336" y="-140" flags="0x4"/>
    </TTGlyph>
    <TTGlyph name="acute" xMin="0" yMin="1210" xMax="559" yMax="1642">
      <contour>
        <pt x="559" y="1493" on="1"/>
        <pt x="109" y="1210" on="1"/>
        <pt x="0" y="1288" on="1"/>
        <pt x="293" y="1642" on="1"/>
      </contour>
    </TTGlyph>
    <TTGlyph name="adieresis" xMin="41" yMin="-70" xMax="1300" yMax="1359">
      <component glyphName="a" x="0" y="0" flags="0x204"/>
      <component glyphName="dieresis" x="330" y="-105" flags="0x4"/>
    </TTGlyph>
    <TTGlyph name="ae" xMin="41" yMin="-43" xMax="2030" yMax="1050">
      <contour>
        <pt x="2030" y="342" on="1"/>
        <pt x="1992" y="243" on="0"/>
        <pt x="1857" y="98" on="0"/>
        <pt x="1687" y="3" on="0"/>
        <pt x="1497" y="-43" on="0"/>
        <pt x="1405" y="-43" on="1"/>
        <pt x="1266" y="-43" on="0"/>
        <pt x="1056" y="49" on="0"/>
        <pt x="985" y="127" on="1"/>
        <pt x="943" y="105" on="0"/>
        <pt x="824" y="54" on="0"/>
        <pt x="678" y="11" on="0"/>
        <pt x="511" y="-18" on="0"/>
        <pt x="420" y="-18" on="1"/>
        <pt x="358" y="-18" on="0"/>
        <pt x="224" y="4" on="0"/>
        <pt x="113" y="59" on="0"/>
        <pt x="41" y="150" on="0"/>
        <pt x="41" y="219" on="1"/>
        <pt x="41" y="292" on="0"/>
        <pt x="107" y="398" on="0"/>
        <pt x="215" y="473" on="0"/>
        <pt x="352" y="519" on="0"/>
        <pt x="493" y="546" on="0"/>
        <pt x="627" y="555" on="0"/>
        <pt x="678" y="555" on="1"/>
        <pt x="732" y="555" on="0"/>
        <pt x="818" y="550" on="0"/>
        <pt x="852" y="545" on="1"/>
        <pt x="864" y="618" on="0"/>
        <pt x="864" y="684" on="1"/>
        <pt x="864" y="732" on="0"/>
        <pt x="839" y="810" on="0"/>
        <pt x="778" y="862" on="0"/>
        <pt x="677" y="888" on="0"/>
        <pt x="602" y="885" on="1"/>
        <pt x="552" y="880" on="0"/>
        <pt x="510" y="857" on="1"/>
        <pt x="492" y="847" on="0"/>
        <pt x="455" y="817" on="0"/>
        <pt x="422" y="775" on="0"/>
        <pt x="396" y="718" on="0"/>
        <pt x="389" y="682" on="1"/>
        <pt x="66" y="666" on="1"/>
        <pt x="73" y="735" on="0"/>
        <pt x="129" y="842" on="0"/>
        <pt x="210" y="921" on="0"/>
        <pt x="308" y="977" on="0"/>
        <pt x="358" y="996" on="1"/>
        <pt x="476" y="1039" on="0"/>
        <pt x="621" y="1049" on="1"/>
        <pt x="702" y="1050" on="0"/>
        <pt x="833" y="1029" on="0"/>
        <pt x="936" y="990" on="0"/>
        <pt x="1014" y="936" on="0"/>
        <pt x="1042" y="905" on="1"/>
        <pt x="1133" y="977" on="0"/>
        <pt x="1376" y="1044" on="0"/>
        <pt x="1516" y="1044" on="1"/>
        <pt x="1566" y="1044" on="0"/>
        <pt x="1673" y="1030" on="0"/>
        <pt x="1775" y="994" on="0"/>
        <pt x="1868" y="931" on="0"/>
        <pt x="1943" y="832" on="0"/>
        <pt x="1995" y="694" on="0"/>
        <pt x="2005" y="600" on="1"/>
        <pt x="1184" y="453" on="1"/>
        <pt x="1192" y="384" on="0"/>
        <pt x="1233" y="252" on="0"/>
        <pt x="1303" y="151" on="0"/>
        <pt x="1406" y="92" on="0"/>
        <pt x="1477" y="94" on="1"/>
        <pt x="1554" y="103" on="0"/>
        <pt x="1613" y="140" on="1"/>
        <pt x="1638" y="156" on="0"/>
        <pt x="1684" y="203" on="0"/>
        <pt x="1718" y="269" on="0"/>
        <pt x="1734" y="357" on="0"/>
        <pt x="1729" y="414" on="1"/>
      </contour>
      <contour>
        <pt x="1675" y="676" on="1"/>
        <pt x="1672" y="723" on="0"/>
        <pt x="1643" y="792" on="0"/>
        <pt x="1601" y="841" on="0"/>
        <pt x="1549" y="871" on="0"/>
        <pt x="1523" y="880" on="1"/>
        <pt x="1461" y="900" on="0"/>
        <pt x="1384" y="895" on="1"/>
        <pt x="1318" y="887" on="0"/>
        <pt x="1236" y="829" on="0"/>
        <pt x="1191" y="743" on="0"/>
        <pt x="1176" y="637" on="0"/>
        <pt x="1176" y="582" on="1"/>
      </contour>
      <contour>
        <pt x="829" y="410" on="1"/>
        <pt x="806" y="412" on="0"/>
        <pt x="752" y="414" on="0"/>
        <pt x="723" y="414" on="1"/>
        <pt x="698" y="414" on="0"/>
        <pt x="625" y="410" on="0"/>
        <pt x="545" y="399" on="0"/>
        <pt x="465" y="379" on="0"/>
        <pt x="402" y="347" on="0"/>
        <pt x="362" y="301" on="0"/>
        <pt x="362" y="270" on="1"/>
        <pt x="362" y="246" on="0"/>
        <pt x="391" y="203" on="0"/>
        <pt x="441" y="173" on="0"/>
        <pt x="508" y="160" on="0"/>
        <pt x="545" y="166" on="1"/>
        <pt x="620" y="180" on="0"/>
        <pt x="753" y="221" on="0"/>
        <pt x="801" y="240" on="1"/>
        <pt x="809" y="282" on="0"/>
        <pt x="823" y="368" on="0"/>
      </contour>
    </TTGlyph>
    <TTGlyph name="aeacute" xMin="41" yMin="-43" xMax="2030" yMax="1491">
      <component glyphName="ae" x="0" y="0" flags="0x204"/>
      <component glyphName="acute" x="983" y="-151" flags="0x4"/>
    </TTGlyph>
    <TTGlyph name="agrave" xMin="41" yMin="-70" xMax="1300" yMax="1549">
      <component glyphName="a" x="0" y="0" flags="0x204"/>
      <component glyphName="grave" x="92" y="-91" flags="0x4"/>
    </TTGlyph>
    <TTGlyph name="amacron" xMin="41" yMin="-70" xMax="1300" yMax="1351">
      <component glyphName="a" x="0" y="0" flags="0x204"/>
      <component glyphName="macron" x="293" y="-138" flags="0x4"/>
    </TTGlyph>
    <TTGlyph name="ampersand" xMin="61" yMin="-121" xMax="1657" yMax="1464">
      <contour>
        <pt x="573" y="1464" on="1"/>
        <pt x="647" y="1464" on="0"/>
        <pt x="803" y="1431" on="0"/>
        <pt x="932" y="1349" on="0"/>
        <pt x="1014" y="1207" on="0"/>
        <pt x="1014" y="1098" on="1"/>
        <pt x="1014" y="1012" on="0"/>
        <pt x="945" y="882" on="0"/>
        <pt x="842" y="783" on="0"/>
        <pt x="721" y="712" on="0"/>
        <pt x="670" y="686" on="1"/>
        <pt x="751" y="629" on="0"/>
        <pt x="933" y="515" on="0"/>
        <pt x="1026" y="461" on="1"/>
        <pt x="1077" y="522" on="0"/>
        <pt x="1161" y="651" on="0"/>
        <pt x="1223" y="775" on="0"/>
        <pt x="1262" y="886" on="0"/>
        <pt x="1268" y="928" on="1"/>
        <pt x="1269" y="928" on="0"/>
        <pt x="1303" y="926" on="0"/>
        <pt x="1358" y="923" on="0"/>
        <pt x="1428" y="919" on="0"/>
        <pt x="1464" y="917" on="1"/>
        <pt x="1549" y="913" on="0"/>
        <pt x="1657" y="907" on="1"/>
        <pt x="1621" y="811" on="0"/>
        <pt x="1570" y="709" on="1"/>
        <pt x="1548" y="665" on="0"/>
        <pt x="1494" y="567" on="0"/>
        <pt x="1428" y="463" on="0"/>
        <pt x="1352" y="356" on="0"/>
        <pt x="1309" y="305" on="1"/>
        <pt x="1375" y="270" on="0"/>
        <pt x="1486" y="214" on="0"/>
        <pt x="1528" y="194" on="1"/>
        <pt x="1576" y="170" on="0"/>
        <pt x="1616" y="152" on="1"/>
        <pt x="1393" y="-121" on="1"/>
        <pt x="1351" y="-96" on="0"/>
        <pt x="1302" y="-63" on="1"/>
        <pt x="1259" y="-35" on="0"/>
        <pt x="1145" y="42" on="0"/>
        <pt x="1077" y="90" on="1"/>
        <pt x="981" y="22" on="0"/>
        <pt x="757" y="-61" on="0"/>
        <pt x="629" y="-61" on="1"/>
        <pt x="511" y="-61" on="0"/>
        <pt x="304" y="-22" on="0"/>
        <pt x="150" y="70" on="0"/>
        <pt x="61" y="222" on="0"/>
        <pt x="61" y="334" on="1"/>
        <pt x="61" y="404" on="0"/>
        <pt x="118" y="507" on="0"/>
        <pt x="213" y="587" on="0"/>
        <pt x="334" y="652" on="0"/>
        <pt x="399" y="684" on="1"/>
        <pt x="309" y="790" on="0"/>
        <pt x="199" y="998" on="0"/>
        <pt x="199" y="1092" on="1"/>
        <pt x="199" y="1167" on="0"/>
        <pt x="238" y="1280" on="0"/>
        <pt x="302" y="1363" on="0"/>
        <pt x="383" y="1418" on="0"/>
        <pt x="466" y="1450" on="0"/>
        <pt x="544" y="1464" on="0"/>
      </contour>
      <contour>
        <pt x="846" y="1020" on="1"/>
        <pt x="846" y="1068" on="0"/>
        <pt x="791" y="1132" on="0"/>
        <pt x="707" y="1169" on="0"/>
        <pt x="609" y="1184" on="0"/>
        <pt x="567" y="1184" on="1"/>
        <pt x="536" y="1184" on="0"/>
        <pt x="461" y="1169" on="0"/>
        <pt x="395" y="1135" on="0"/>
        <pt x="350" y="1080" on="0"/>
        <pt x="350" y="1040" on="1"/>
        <pt x="350" y="1012" on="0"/>
        <pt x="380" y="949" on="0"/>
        <pt x="435" y="880" on="0"/>
        <pt x="511" y="807" on="0"/>
        <pt x="557" y="770" on="1"/>
        <pt x="614" y="804" on="0"/>
        <pt x="719" y="869" on="0"/>
        <pt x="798" y="932" on="0"/>
        <pt x="846" y="991" on="0"/>
      </contour>
      <contour>
        <pt x="289" y="360" on="1"/>
        <pt x="289" y="312" on="0"/>
        <pt x="335" y="247" on="0"/>
        <pt x="410" y="206" on="0"/>
        <pt x="506" y="188" on="0"/>
        <pt x="557" y="188" on="1"/>
        <pt x="629" y="188" on="0"/>
        <pt x="764" y="237" on="0"/>
        <pt x="827" y="279" on="1"/>
        <pt x="738" y="351" on="0"/>
        <pt x="563" y="506" on="0"/>
        <pt x="485" y="588" on="1"/>
        <pt x="450" y="568" on="0"/>
        <pt x="381" y="521" on="0"/>
        <pt x="324" y="466" on="0"/>
        <pt x="289" y="399" on="0"/>
      </contour>
    </TTGlyph>
    <TTGlyph name="aogonek" xMin="41" yMin="-489" xMax="1300" yMax="1051">
      <contour>
        <pt x="1239" y="-436" on="1"/>
        <pt x="1170" y="-465" on="0"/>
        <pt x="1056" y="-489" on="0"/>
        <pt x="1010" y="-489" on="1"/>
        <pt x="962" y="-489" on="0"/>
        <pt x="872" y="-462" on="0"/>
        <pt x="802" y="-412" on="0"/>
        <pt x="760" y="-339" on="0"/>
        <pt x="760" y="-293" on="1"/>
        <pt x="760" y="-269" on="0"/>
        <pt x="771" y="-211" on="0"/>
        <pt x="803" y="-147" on="0"/>
        <pt x="860" y="-78" on="0"/>
        <pt x="905" y="-43" on="1"/>
        <pt x="752" y="-33" on="1"/>
        <pt x="754" y="-18" on="0"/>
        <pt x="760" y="18" on="0"/>
        <pt x="763" y="34" on="1"/>
        <pt x="767" y="52" on="0"/>
        <pt x="770" y="70" on="1"/>
        <pt x="683" y="22" on="0"/>
        <pt x="505" y="-18" on="0"/>
        <pt x="420" y="-18" on="1"/>
        <pt x="358" y="-18" on="0"/>
        <pt x="224" y="4" on="0"/>
        <pt x="113" y="59" on="0"/>
        <pt x="41" y="150" on="0"/>
        <pt x="41" y="219" on="1"/>
        <pt x="41" y="292" on="0"/>
        <pt x="107" y="398" on="0"/>
        <pt x="215" y="473" on="0"/>
        <pt x="352" y="519" on="0"/>
        <pt x="493" y="546" on="0"/>
        <pt x="627" y="555" on="0"/>
        <pt x="678" y="555" on="1"/>
        <pt x="732" y="555" on="0"/>
        <pt x="818" y="550" on="0"/>
        <pt x="852" y="545" on="1"/>
        <pt x="864" y="618" on="0"/>
        <pt x="864" y="684" on="1"/>
        <pt x="864" y="732" on="0"/>
        <pt x="839" y="810" on="0"/>
        <pt x="778" y="862" on="0"/>
        <pt x="677" y="888" on="0"/>
        <pt x="602" y="885" on="1"/>
        <pt x="552" y="880" on="0"/>
        <pt x="510" y="857" on="1"/>
        <pt x="492" y="847" on="0"/>
        <pt x="455" y="817" on="0"/>
        <pt x="422" y="775" on="0"/>
        <pt x="396" y="718" on="0"/>
        <pt x="389" y="682" on="1"/>
        <pt x="66" y="666" on="1"/>
        <pt x="73" y="735" on="0"/>
        <pt x="129" y="842" on="0"/>
        <pt x="210" y="921" on="0"/>
        <pt x="308" y="977" on="0"/>
        <pt x="358" y="996" on="1"/>
        <pt x="476" y="1039" on="0"/>
        <pt x="621" y="1049" on="1"/>
        <pt x="751" y="1051" on="0"/>
        <pt x="932" y="998" on="0"/>
        <pt x="1050" y="909" on="0"/>
        <pt x="1116" y="797" on="0"/>
        <pt x="1146" y="686" on="0"/>
        <pt x="1150" y="587" on="0"/>
        <pt x="1149" y="555" on="1"/>
        <pt x="1146" y="516" on="0"/>
        <pt x="1135" y="457" on="1"/>
        <pt x="1126" y="406" on="0"/>
        <pt x="1091" y="252" on="0"/>
        <pt x="1061" y="145" on="1"/>
        <pt x="1300" y="115" on="1"/>
        <pt x="1249" y="-70" on="1"/>
        <pt x="1038" y="-53" on="1"/>
        <pt x="986" y="-95" on="0"/>
        <pt x="937" y="-160" on="0"/>
        <pt x="927" y="-183" on="1"/>
        <pt x="916" y="-210" on="0"/>
        <pt x="918" y="-231" on="1"/>
        <pt x="922" y="-242" on="0"/>
        <pt x="933" y="-250" on="1"/>
        <pt x="942" y="-257" on="0"/>
        <pt x="977" y="-268" on="0"/>
        <pt x="1006" y="-268" on="1"/>
        <pt x="1035" y="-268" on="0"/>
        <pt x="1119" y="-253" on="0"/>
        <pt x="1178" y="-231" on="1"/>
      </contour>
      <contour>
        <pt x="829" y="410" on="1"/>
        <pt x="806" y="412" on="0"/>
        <pt x="752" y="414" on="0"/>
        <pt x="723" y="414" on="1"/>
        <pt x="698" y="414" on="0"/>
        <pt x="625" y="410" on="0"/>
        <pt x="545" y="399" on="0"/>
        <pt x="465" y="379" on="0"/>
        <pt x="402" y="347" on="0"/>
        <pt x="362" y="301" on="0"/>
        <pt x="362" y="270" on="1"/>
        <pt x="362" y="246" on="0"/>
        <pt x="391" y="203" on="0"/>
        <pt x="441" y="173" on="0"/>
        <pt x="508" y="160" on="0"/>
        <pt x="545" y="166" on="1"/>
        <pt x="620" y="180" on="0"/>
        <pt x="753" y="221" on="0"/>
        <pt x="801" y="240" on="1"/>
        <pt x="809" y="282" on="0"/>
        <pt x="823" y="368" on="0"/>
      </contour>
    </TTGlyph>
    <TTGlyph name="approxequal" xMin="121" yMin="225" xMax="1090" yMax="1178">
      <contour>
        <pt x="1079" y="1171" on="1"/>
        <pt x="1084" y="1139" on="0"/>
        <pt x="1090" y="1078" on="0"/>
        <pt x="1090" y="1051" on="1"/>
        <pt x="1090" y="993" on="0"/>
        <pt x="1071" y="902" on="0"/>
        <pt x="1041" y="832" on="0"/>
        <pt x="1003" y="782" on="0"/>
        <pt x="983" y="764" on="1"/>
        <pt x="936" y="723" on="0"/>
        <pt x="877" y="709" on="1"/>
        <pt x="811" y="699" on="0"/>
        <pt x="697" y="724" on="0"/>
        <pt x="599" y="772" on="0"/>
        <pt x="514" y="835" on="0"/>
        <pt x="439" y="891" on="0"/>
        <pt x="372" y="929" on="0"/>
        <pt x="340" y="928" on="1"/>
        <pt x="315" y="926" on="0"/>
        <pt x="296" y="915" on="1"/>
        <pt x="279" y="905" on="0"/>
        <pt x="252" y="865" on="0"/>
        <pt x="252" y="829" on="1"/>
        <pt x="252" y="814" on="0"/>
        <pt x="258" y="775" on="0"/>
        <pt x="266" y="752" on="1"/>
        <pt x="135" y="752" on="1"/>
        <pt x="127" y="792" on="0"/>
        <pt x="121" y="860" on="0"/>
        <pt x="121" y="891" on="1"/>
        <pt x="121" y="966" on="0"/>
        <pt x="150" y="1067" on="0"/>
        <pt x="196" y="1131" on="0"/>
        <pt x="252" y="1164" on="0"/>
        <pt x="307" y="1177" on="0"/>
        <pt x="353" y="1178" on="0"/>
        <pt x="365" y="1178" on="1"/>
        <pt x="431" y="1178" on="0"/>
        <pt x="540" y="1139" on="0"/>
        <pt x="630" y="1082" on="0"/>
        <pt x="704" y="1016" on="0"/>
        <pt x="770" y="963" on="0"/>
        <pt x="830" y="933" on="0"/>
        <pt x="860" y="940" on="1"/>
        <pt x="888" y="949" on="0"/>
        <pt x="911" y="969" on="1"/>
        <pt x="931" y="986" on="0"/>
        <pt x="963" y="1048" on="0"/>
        <pt x="963" y="1100" on="1"/>
        <pt x="963" y="1115" on="0"/>
        <pt x="959" y="1151" on="0"/>
        <pt x="954" y="1171" on="1"/>
      </contour>
      <contour>
        <pt x="1079" y="698" on="1"/>
        <pt x="1084" y="666" on="0"/>
        <pt x="1090" y="605" on="0"/>
        <pt x="1090" y="578" on="1"/>
        <pt x="1090" y="520" on="0"/>
        <pt x="1071" y="429" on="0"/>
        <pt x="1041" y="359" on="0"/>
        <pt x="1003" y="309" on="0"/>
        <pt x="983" y="291" on="1"/>
        <pt x="936" y="250" on="0"/>
        <pt x="877" y="236" on="1"/>
        <pt x="811" y="225" on="0"/>
        <pt x="697" y="250" on="0"/>
        <pt x="599" y="299" on="0"/>
        <pt x="514" y="362" on="0"/>
        <pt x="439" y="417" on="0"/>
        <pt x="372" y="455" on="0"/>
        <pt x="340" y="455" on="1"/>
        <pt x="315" y="453" on="0"/>
        <pt x="296" y="442" on="1"/>
        <pt x="279" y="432" on="0"/>
        <pt x="252" y="392" on="0"/>
        <pt x="252" y="356" on="1"/>
        <pt x="252" y="341" on="0"/>
        <pt x="258" y="302" on="0"/>
        <pt x="266" y="279" on="1"/>
        <pt x="135" y="279" on="1"/>
        <pt x="127" y="319" on="0"/>
        <pt x="121" y="387" on="0"/>
        <pt x="121" y="418" on="1"/>
        <pt x="121" y="555" on="0"/>
        <pt x="243" y="705" on="0"/>
        <pt x="365" y="705" on="1"/>
        <pt x="431" y="705" on="0"/>
        <pt x="540" y="666" on="0"/>
        <pt x="630" y="609" on="0"/>
        <pt x="704" y="543" on="0"/>
        <pt x="770" y="490" on="0"/>
        <pt x="830" y="460" on="0"/>
        <pt x="860" y="467" on="1"/>
        <pt x="888" y="475" on="0"/>
        <pt x="911" y="495" on="1"/>
        <pt x="931" y="512" on="0"/>
        <pt x="963" y="575" on="0"/>
        <pt x="963" y="627" on="1"/>
        <pt x="963" y="642" on="0"/>
        <pt x="959" y="678" on="0"/>
        <pt x="954" y="698" on="1"/>
      </contour>
    </TTGlyph>
    <TTGlyph name="aring" xMin="41" yMin="-70" xMax="1300" yMax="1592">
      <component glyphName="a" x="0" y="0" flags="0x204"/>
      <component glyphName="ring" x="430" y="-89" flags="0x4"/>
    </TTGlyph>
    <TTGlyph name="asciicircum" xMin="61" yMin="733" xMax="938" yMax="1554">
      <contour>
        <pt x="938" y="772" on="1"/>
        <pt x="582" y="733" on="1"/>
        <pt x="434" y="1303" on="1"/>
        <pt x="238" y="772" on="1"/>
        <pt x="61" y="815" on="1"/>
        <pt x="350" y="1554" on="1"/>
        <pt x="715" y="1554" on="1"/>
      </contour>
    </TTGlyph>
    <TTGlyph name="asciitilde" xMin="90" yMin="443" xMax="1059" yMax="979">
      <contour>
        <pt x="1049" y="973" on="1"/>
        <pt x="1054" y="936" on="0"/>
        <pt x="1059" y="869" on="0"/>
        <pt x="1059" y="838" on="1"/>
        <pt x="1059" y="772" on="0"/>
        <pt x="1040" y="670" on="0"/>
        <pt x="1010" y="592" on="0"/>
        <pt x="972" y="535" on="0"/>
        <pt x="952" y="516" on="1"/>
        <pt x="905" y="470" on="0"/>
        <pt x="846" y="455" on="1"/>
        <pt x="780" y="443" on="0"/>
        <pt x="667" y="471" on="0"/>
        <pt x="569" y="525" on="0"/>
        <pt x="484" y="596" on="0"/>
        <pt x="408" y="658" on="0"/>
        <pt x="341" y="700" on="0"/>
        <pt x="309" y="700" on="1"/>
        <pt x="284" y="697" on="0"/>
        <pt x="265" y="685" on="1"/>
        <pt x="248" y="674" on="0"/>
        <pt x="221" y="630" on="0"/>
        <pt x="221" y="590" on="1"/>
        <pt x="221" y="573" on="0"/>
        <pt x="228" y="530" on="0"/>
        <pt x="236" y="504" on="1"/>
        <pt x="104" y="504" on="1"/>
        <pt x="96" y="549" on="0"/>
        <pt x="90" y="625" on="0"/>
        <pt x="90" y="659" on="1"/>
        <pt x="90" y="742" on="0"/>
        <pt x="121" y="855" on="0"/>
        <pt x="168" y="926" on="0"/>
        <pt x="226" y="963" on="0"/>
        <pt x="281" y="978" on="0"/>
        <pt x="324" y="979" on="0"/>
        <pt x="334" y="979" on="1"/>
        <pt x="400" y="979" on="0"/>
        <pt x="509" y="936" on="0"/>
        <pt x="599" y="872" on="0"/>
        <pt x="674" y="800" on="0"/>
        <pt x="739" y="741" on="0"/>
        <pt x="799" y="708" on="0"/>
        <pt x="829" y="715" on="1"/>
        <pt x="857" y="724" on="0"/>
        <pt x="880" y="746" on="1"/>
        <pt x="900" y="765" on="0"/>
        <pt x="932" y="835" on="0"/>
        <pt x="932" y="893" on="1"/>
        <pt x="932" y="910" on="0"/>
        <pt x="929" y="951" on="0"/>
        <pt x="924" y="973" on="1"/>
      </contour>
    </TTGlyph>
    <TTGlyph name="asterisk" xMin="82" yMin="432" xMax="1083" yMax="1604">
      <contour>
        <pt x="971" y="635" on="1"/>
        <pt x="748" y="483" on="1"/>
        <pt x="557" y="930" on="1"/>
        <pt x="403" y="432" on="1"/>
        <pt x="186" y="545" on="1"/>
        <pt x="418" y="956" on="1"/>
        <pt x="88" y="860" on="1"/>
        <pt x="82" y="1303" on="1"/>
        <pt x="473" y="1219" on="1"/>
        <pt x="403" y="1604" on="1"/>
        <pt x="678" y="1604" on="1"/>
        <pt x="645" y="1212" on="1"/>
        <pt x="1083" y="1331" on="1"/>
        <pt x="1042" y="893" on="1"/>
        <pt x="739" y="948" on="1"/>
      </contour>
    </TTGlyph>
    <TTGlyph name="at" xMin="63" yMin="-217" xMax="1513" yMax="1126">
      <contour>
        <pt x="1513" y="555" on="1"/>
        <pt x="1513" y="465" on="0"/>
        <pt x="1483" y="339" on="0"/>
        <pt x="1434" y="253" on="0"/>
        <pt x="1370" y="202" on="0"/>
        <pt x="1301" y="176" on="0"/>
        <pt x="1232" y="168" on="0"/>
        <pt x="1202" y="168" on="1"/>
        <pt x="1159" y="168" on="0"/>
        <pt x="1081" y="168" on="0"/>
        <pt x="1020" y="177" on="0"/>
        <pt x="980" y="202" on="0"/>
        <pt x="975" y="227" on="1"/>
        <pt x="974" y="230" on="0"/>
        <pt x="973" y="235" on="1"/>
        <pt x="972" y="239" on="0"/>
        <pt x="971" y="252" on="0"/>
        <pt x="969" y="262" on="1"/>
        <pt x="923" y="233" on="0"/>
        <pt x="831" y="202" on="0"/>
        <pt x="793" y="194" on="1"/>
        <pt x="749" y="185" on="0"/>
        <pt x="707" y="184" on="1"/>
        <pt x="612" y="184" on="0"/>
        <pt x="484" y="219" on="0"/>
        <pt x="405" y="280" on="0"/>
        <pt x="371" y="365" on="0"/>
        <pt x="371" y="416" on="1"/>
        <pt x="371" y="470" on="0"/>
        <pt x="432" y="556" on="0"/>
        <pt x="533" y="616" on="0"/>
        <pt x="663" y="647" on="0"/>
        <pt x="731" y="647" on="1"/>
        <pt x="764" y="647" on="0"/>
        <pt x="800" y="643" on="1"/>
        <pt x="831" y="640" on="0"/>
        <pt x="908" y="625" on="0"/>
        <pt x="946" y="612" on="1"/>
        <pt x="944" y="629" on="0"/>
        <pt x="944" y="663" on="0"/>
        <pt x="944" y="682" on="1"/>
        <pt x="1176" y="678" on="1"/>
        <pt x="1157" y="295" on="1"/>
        <pt x="1199" y="290" on="0"/>
        <pt x="1262" y="308" on="0"/>
        <pt x="1309" y="343" on="0"/>
        <pt x="1341" y="390" on="0"/>
        <pt x="1352" y="416" on="1"/>
        <pt x="1377" y="476" on="0"/>
        <pt x="1380" y="555" on="1"/>
        <pt x="1380" y="609" on="0"/>
        <pt x="1327" y="697" on="0"/>
        <pt x="1238" y="765" on="0"/>
        <pt x="1121" y="815" on="0"/>
        <pt x="994" y="847" on="0"/>
        <pt x="866" y="862" on="0"/>
        <pt x="809" y="862" on="1"/>
        <pt x="752" y="862" on="0"/>
        <pt x="619" y="851" on="0"/>
        <pt x="486" y="819" on="0"/>
        <pt x="363" y="760" on="0"/>
        <pt x="268" y="665" on="0"/>
        <pt x="211" y="528" on="0"/>
        <pt x="211" y="434" on="1"/>
        <pt x="211" y="352" on="0"/>
        <pt x="253" y="228" on="0"/>
        <pt x="324" y="138" on="0"/>
        <pt x="416" y="77" on="0"/>
        <pt x="518" y="40" on="0"/>
        <pt x="621" y="21" on="0"/>
        <pt x="713" y="14" on="0"/>
        <pt x="787" y="15" on="0"/>
        <pt x="809" y="16" on="1"/>
        <pt x="844" y="15" on="0"/>
        <pt x="885" y="16" on="1"/>
        <pt x="920" y="17" on="0"/>
        <pt x="1016" y="23" on="0"/>
        <pt x="1073" y="31" on="1"/>
        <pt x="1081" y="-207" on="1"/>
        <pt x="1030" y="-212" on="0"/>
        <pt x="931" y="-217" on="0"/>
        <pt x="885" y="-217" on="1"/>
        <pt x="704" y="-217" on="0"/>
        <pt x="402" y="-144" on="0"/>
        <pt x="184" y="12" on="0"/>
        <pt x="63" y="257" on="0"/>
        <pt x="63" y="428" on="1"/>
        <pt x="63" y="622" on="0"/>
        <pt x="175" y="889" on="0"/>
        <pt x="375" y="1054" on="0"/>
        <pt x="650" y="1126" on="0"/>
        <pt x="813" y="1126" on="1"/>
        <pt x="976" y="1126" on="0"/>
        <pt x="1235" y="1067" on="0"/>
        <pt x="1416" y="933" on="0"/>
        <pt x="1513" y="715" on="0"/>
      </contour>
      <contour>
        <pt x="950" y="500" on="1"/>
        <pt x="925" y="505" on="0"/>
        <pt x="877" y="508" on="0"/>
        <pt x="857" y="510" on="1"/>
        <pt x="834" y="511" on="0"/>
        <pt x="813" y="512" on="1"/>
        <pt x="726" y="512" on="0"/>
        <pt x="631" y="460" on="0"/>
        <pt x="631" y="422" on="1"/>
        <pt x="631" y="394" on="0"/>
        <pt x="657" y="361" on="0"/>
        <pt x="700" y="343" on="0"/>
        <pt x="757" y="338" on="0"/>
        <pt x="788" y="338" on="1"/>
        <pt x="812" y="339" on="0"/>
        <pt x="839" y="344" on="1"/>
        <pt x="862" y="349" on="0"/>
        <pt x="923" y="366" on="0"/>
        <pt x="956" y="383" on="1"/>
      </contour>
    </TTGlyph>
    <TTGlyph name="atilde" xMin="41" yMin="-70" xMax="1300" yMax="1424">
      <component glyphName="a" x="0" y="0" flags="0x204"/>
      <component glyphName="tilde" x="291" y="-110" flags="0x4"/>
    </TTGlyph>
    <TTGlyph name="b" xMin="-55" yMin="-49" xMax="1253" yMax="1516">
      <contour>
        <pt x="1253" y="539" on="1"/>
        <pt x="1253" y="431" on="0"/>
        <pt x="1197" y="261" on="0"/>
        <pt x="1101" y="130" on="0"/>
        <pt x="975" y="37" on="0"/>
        <pt x="836" y="-22" on="0"/>
        <pt x="692" y="-49" on="0"/>
        <pt x="627" y="-49" on="1"/>
        <pt x="528" y="-49" on="0"/>
        <pt x="341" y="18" on="0"/>
        <pt x="194" y="156" on="0"/>
        <pt x="103" y="366" on="0"/>
        <pt x="100" y="510" on="1"/>
        <pt x="100" y="568" on="0"/>
        <pt x="105" y="700" on="0"/>
        <pt x="113" y="836" on="0"/>
        <pt x="123" y="971" on="0"/>
        <pt x="129" y="1033" on="1"/>
        <pt x="141" y="1177" on="0"/>
        <pt x="158" y="1323" on="1"/>
        <pt x="-55" y="1313" on="1"/>
        <pt x="-41" y="1516" on="1"/>
        <pt x="532" y="1462" on="1"/>
        <pt x="519" y="1398" on="0"/>
        <pt x="504" y="1322" on="1"/>
        <pt x="491" y="1257" on="0"/>
        <pt x="460" y="1086" on="0"/>
        <pt x="446" y="989" on="1"/>
        <pt x="515" y="1029" on="0"/>
        <pt x="662" y="1073" on="0"/>
        <pt x="739" y="1073" on="1"/>
        <pt x="847" y="1073" on="0"/>
        <pt x="1035" y="1010" on="0"/>
        <pt x="1174" y="879" on="0"/>
        <pt x="1253" y="678" on="0"/>
      </contour>
      <contour>
        <pt x="393" y="428" on="1"/>
        <pt x="393" y="358" on="0"/>
        <pt x="433" y="235" on="0"/>
        <pt x="500" y="143" on="0"/>
        <pt x="589" y="90" on="0"/>
        <pt x="637" y="90" on="1"/>
        <pt x="760" y="90" on="0"/>
        <pt x="888" y="308" on="0"/>
        <pt x="891" y="539" on="1"/>
        <pt x="892" y="655" on="0"/>
        <pt x="848" y="800" on="0"/>
        <pt x="779" y="883" on="0"/>
        <pt x="697" y="913" on="0"/>
        <pt x="662" y="915" on="1"/>
        <pt x="636" y="916" on="0"/>
        <pt x="574" y="900" on="0"/>
        <pt x="508" y="867" on="0"/>
        <pt x="445" y="816" on="0"/>
        <pt x="418" y="782" on="1"/>
        <pt x="407" y="689" on="0"/>
        <pt x="393" y="509" on="0"/>
      </contour>
    </TTGlyph>
    <TTGlyph name="backslash" xMin="37" yMin="-51" xMax="1399" yMax="1681">
      <contour>
        <pt x="1399" y="47" on="1"/>
        <pt x="1206" y="-51" on="1"/>
        <pt x="37" y="1505" on="1"/>
        <pt x="430" y="1681" on="1"/>
      </contour>
    </TTGlyph>
    <TTGlyph name="bar" xMin="135" yMin="-395" xMax="397" yMax="1794">
      <contour>
        <pt x="397" y="1794" on="1"/>
        <pt x="377" y="-383" on="1"/>
        <pt x="135" y="-395" on="1"/>
        <pt x="190" y="1794" on="1"/>
      </contour>
    </TTGlyph>
    <TTGlyph name="braceleft" xMin="-6" yMin="-422" xMax="913" yMax="1835">
      <contour>
        <pt x="913" y="-326" on="1"/>
        <pt x="787" y="-382" on="0"/>
        <pt x="596" y="-422" on="0"/>
        <pt x="532" y="-422" on="1"/>
        <pt x="436" y="-422" on="0"/>
        <pt x="311" y="-346" on="0"/>
        <pt x="238" y="-213" on="0"/>
        <pt x="209" y="-33" on="0"/>
        <pt x="209" y="70" on="1"/>
        <pt x="209" y="106" on="0"/>
        <pt x="216" y="178" on="0"/>
        <pt x="225" y="250" on="0"/>
        <pt x="233" y="321" on="0"/>
        <pt x="233" y="356" on="1"/>
        <pt x="233" y="431" on="0"/>
        <pt x="188" y="531" on="0"/>
        <pt x="117" y="595" on="0"/>
        <pt x="33" y="628" on="0"/>
        <pt x="-6" y="635" on="1"/>
        <pt x="-6" y="825" on="1"/>
        <pt x="14" y="820" on="0"/>
        <pt x="53" y="817" on="0"/>
        <pt x="70" y="817" on="1"/>
        <pt x="136" y="817" on="0"/>
        <pt x="217" y="845" on="0"/>
        <pt x="262" y="896" on="0"/>
        <pt x="275" y="965" on="0"/>
        <pt x="269" y="1046" on="0"/>
        <pt x="249" y="1136" on="0"/>
        <pt x="228" y="1229" on="0"/>
        <pt x="211" y="1321" on="0"/>
        <pt x="211" y="1364" on="1"/>
        <pt x="211" y="1414" on="0"/>
        <pt x="227" y="1522" on="0"/>
        <pt x="268" y="1627" on="0"/>
        <pt x="338" y="1721" on="0"/>
        <pt x="446" y="1793" on="0"/>
        <pt x="596" y="1835" on="0"/>
        <pt x="696" y="1835" on="1"/>
        <pt x="746" y="1835" on="0"/>
        <pt x="853" y="1816" on="0"/>
        <pt x="913" y="1794" on="1"/>
        <pt x="885" y="1393" on="1"/>
        <pt x="803" y="1428" on="0"/>
        <pt x="669" y="1452" on="0"/>
        <pt x="621" y="1452" on="1"/>
        <pt x="560" y="1452" on="0"/>
        <pt x="469" y="1415" on="0"/>
        <pt x="408" y="1348" on="0"/>
        <pt x="377" y="1254" on="0"/>
        <pt x="377" y="1198" on="1"/>
        <pt x="377" y="1167" on="0"/>
        <pt x="387" y="1099" on="0"/>
        <pt x="398" y="1029" on="0"/>
        <pt x="408" y="961" on="0"/>
        <pt x="408" y="930" on="1"/>
        <pt x="408" y="836" on="0"/>
        <pt x="319" y="715" on="0"/>
        <pt x="225" y="698" on="1"/>
        <pt x="318" y="652" on="0"/>
        <pt x="414" y="504" on="0"/>
        <pt x="414" y="397" on="1"/>
        <pt x="414" y="375" on="0"/>
        <pt x="407" y="323" on="0"/>
        <pt x="398" y="269" on="0"/>
        <pt x="391" y="217" on="0"/>
        <pt x="391" y="195" on="1"/>
        <pt x="391" y="140" on="0"/>
        <pt x="424" y="56" on="0"/>
        <pt x="484" y="0" on="0"/>
        <pt x="567" y="-27" on="0"/>
        <pt x="618" y="-25" on="1"/>
        <pt x="666" y="-22" on="0"/>
        <pt x="716" y="-12" on="1"/>
        <pt x="759" y="-4" on="0"/>
        <pt x="862" y="27" on="0"/>
        <pt x="913" y="53" on="1"/>
      </contour>
    </TTGlyph>
    <TTGlyph name="braceright" xMin="51" yMin="-422" xMax="971" yMax="1835">
      <contour>
        <pt x="971" y="635" on="1"/>
        <pt x="932" y="628" on="0"/>
        <pt x="847" y="595" on="0"/>
        <pt x="776" y="531" on="0"/>
        <pt x="731" y="431" on="0"/>
        <pt x="731" y="356" on="1"/>
        <pt x="731" y="321" on="0"/>
        <pt x="739" y="250" on="0"/>
        <pt x="748" y="178" on="0"/>
        <pt x="756" y="106" on="0"/>
        <pt x="756" y="70" on="1"/>
        <pt x="756" y="-33" on="0"/>
        <pt x="727" y="-213" on="0"/>
        <pt x="653" y="-346" on="0"/>
        <pt x="528" y="-422" on="0"/>
        <pt x="432" y="-422" on="1"/>
        <pt x="367" y="-422" on="0"/>
        <pt x="177" y="-382" on="0"/>
        <pt x="51" y="-326" on="1"/>
        <pt x="51" y="53" on="1"/>
        <pt x="101" y="27" on="0"/>
        <pt x="205" y="-4" on="0"/>
        <pt x="248" y="-12" on="1"/>
        <pt x="298" y="-22" on="0"/>
        <pt x="346" y="-25" on="1"/>
        <pt x="397" y="-27" on="0"/>
        <pt x="480" y="0" on="0"/>
        <pt x="540" y="56" on="0"/>
        <pt x="573" y="140" on="0"/>
        <pt x="573" y="195" on="1"/>
        <pt x="573" y="218" on="0"/>
        <pt x="566" y="271" on="0"/>
        <pt x="558" y="325" on="0"/>
        <pt x="551" y="377" on="0"/>
        <pt x="551" y="399" on="1"/>
        <pt x="551" y="506" on="0"/>
        <pt x="645" y="652" on="0"/>
        <pt x="739" y="698" on="1"/>
        <pt x="645" y="715" on="0"/>
        <pt x="557" y="836" on="0"/>
        <pt x="557" y="930" on="1"/>
        <pt x="557" y="961" on="0"/>
        <pt x="567" y="1029" on="0"/>
        <pt x="578" y="1098" on="0"/>
        <pt x="588" y="1166" on="0"/>
        <pt x="588" y="1196" on="1"/>
        <pt x="588" y="1452" on="0"/>
        <pt x="344" y="1452" on="1"/>
        <pt x="296" y="1452" on="0"/>
        <pt x="161" y="1428" on="0"/>
        <pt x="80" y="1393" on="1"/>
        <pt x="51" y="1794" on="1"/>
        <pt x="111" y="1816" on="0"/>
        <pt x="219" y="1835" on="0"/>
        <pt x="268" y="1835" on="1"/>
        <pt x="368" y="1835" on="0"/>
        <pt x="519" y="1793" on="0"/>
        <pt x="627" y="1721" on="0"/>
        <pt x="697" y="1627" on="0"/>
        <pt x="738" y="1522" on="0"/>
        <pt x="754" y="1414" on="0"/>
        <pt x="754" y="1364" on="1"/>
        <pt x="754" y="1307" on="0"/>
        <pt x="726" y="1182" on="0"/>
        <pt x="699" y="1061" on="0"/>
        <pt x="687" y="950" on="0"/>
        <pt x="719" y="867" on="0"/>
        <pt x="807" y="817" on="0"/>
        <pt x="895" y="817" on="1"/>
        <pt x="912" y="817" on="0"/>
        <pt x="951" y="820" on="0"/>
        <pt x="971" y="825" on="1"/>
      </contour>
    </TTGlyph>
    <TTGlyph name="bracketleft" xMin="135" yMin="-395" xMax="823" yMax="1794">
      <contour>
        <pt x="823" y="1794" on="1"/>
        <pt x="788" y="1401" on="1"/>
        <pt x="367" y="1401" on="1"/>
        <pt x="360" y="41" on="1"/>
        <pt x="780" y="41" on="1"/>
        <pt x="752" y="-360" on="1"/>
        <pt x="135" y="-395" on="1"/>
        <pt x="190" y="1794" on="1"/>
      </contour>
    </TTGlyph>
    <TTGlyph name="bracketright" xMin="23" yMin="-395" xMax="711" yMax="1794">
      <contour>
        <pt x="711" y="-395" on="1"/>
        <pt x="92" y="-360" on="1"/>
        <pt x="66" y="41" on="1"/>
        <pt x="485" y="41" on="1"/>
        <pt x="479" y="1401" on="1"/>
        <pt x="57" y="1401" on="1"/>
        <pt x="23" y="1794" on="1"/>
        <pt x="653" y="1794" on="1"/>
      </contour>
    </TTGlyph>
    <TTGlyph name="breve" xMin="1" yMin="1233" xMax="621" yMax="1546">
      <contour>
        <pt x="621" y="1520" on="1"/>
        <pt x="621" y="1466" on="0"/>
        <pt x="590" y="1384" on="0"/>
        <pt x="540" y="1324" on="0"/>
        <pt x="476" y="1282" on="0"/>
        <pt x="443" y="1269" on="1"/>
        <pt x="365" y="1237" on="0"/>
        <pt x="266" y="1233" on="1"/>
        <pt x="191" y="1237" on="0"/>
        <pt x="132" y="1269" on="1"/>
        <pt x="107" y="1282" on="0"/>
        <pt x="59" y="1324" on="0"/>
        <pt x="22" y="1384" on="0"/>
        <pt x="1" y="1466" on="0"/>
        <pt x="2" y="1520" on="1"/>
        <pt x="143" y="1546" on="1"/>
        <pt x="144" y="1469" on="0"/>
        <pt x="174" y="1387" on="0"/>
        <pt x="192" y="1368" on="1"/>
        <pt x="213" y="1346" on="0"/>
        <pt x="240" y="1343" on="1"/>
        <pt x="267" y="1346" on="0"/>
        <pt x="290" y="1368" on="1"/>
        <pt x="310" y="1387" on="0"/>
        <pt x="347" y="1469" on="0"/>
        <pt x="354" y="1546" on="1"/>
      </contour>
    </TTGlyph>
    <TTGlyph name="brokenbar" xMin="135" yMin="-395" xMax="397" yMax="1794">
      <contour>
        <pt x="397" y="1794" on="1"/>
        <pt x="389" y="893" on="1"/>
        <pt x="168" y="893" on="1"/>
        <pt x="190" y="1794" on="1"/>
      </contour>
      <contour>
        <pt x="387" y="600" on="1"/>
        <pt x="377" y="-383" on="1"/>
        <pt x="135" y="-395" on="1"/>
        <pt x="160" y="600" on="1"/>
      </contour>
    </TTGlyph>
    <TTGlyph name="bullet" xMin="115" yMin="524" xMax="631" yMax="979">
      <contour>
        <pt x="631" y="752" on="1"/>
        <pt x="631" y="699" on="0"/>
        <pt x="591" y="614" on="0"/>
        <pt x="521" y="555" on="0"/>
        <pt x="427" y="524" on="0"/>
        <pt x="373" y="524" on="1"/>
        <pt x="319" y="524" on="0"/>
        <pt x="225" y="555" on="0"/>
        <pt x="155" y="614" on="0"/>
        <pt x="115" y="699" on="0"/>
        <pt x="115" y="752" on="1"/>
        <pt x="115" y="805" on="0"/>
        <pt x="155" y="889" on="0"/>
        <pt x="225" y="948" on="0"/>
        <pt x="319" y="979" on="0"/>
        <pt x="373" y="979" on="1"/>
        <pt x="427" y="979" on="0"/>
        <pt x="521" y="948" on="0"/>
        <pt x="591" y="889" on="0"/>
        <pt x="631" y="805" on="0"/>
      </contour>
    </TTGlyph>
    <TTGlyph name="c" xMin="44" yMin="-49" xMax="1212" yMax="1120">
      <contour>
        <pt x="1169" y="188" on="1"/>
        <pt x="1123" y="129" on="0"/>
        <pt x="1019" y="48" on="0"/>
        <pt x="912" y="-5" on="0"/>
        <pt x="808" y="-34" on="0"/>
        <pt x="718" y="-47" on="0"/>
        <pt x="646" y="-49" on="0"/>
        <pt x="625" y="-49" on="1"/>
        <pt x="546" y="-49" on="0"/>
        <pt x="396" y="-14" on="0"/>
        <pt x="263" y="52" on="0"/>
        <pt x="155" y="150" on="0"/>
        <pt x="80" y="274" on="0"/>
        <pt x="44" y="425" on="0"/>
        <pt x="51" y="512" on="1"/>
        <pt x="62" y="653" on="0"/>
        <pt x="169" y="856" on="0"/>
        <pt x="330" y="987" on="0"/>
        <pt x="529" y="1049" on="0"/>
        <pt x="631" y="1049" on="1"/>
        <pt x="677" y="1047" on="0"/>
        <pt x="728" y="1036" on="1"/>
        <pt x="771" y="1026" on="0"/>
        <pt x="879" y="986" on="0"/>
        <pt x="934" y="950" on="1"/>
        <pt x="969" y="1120" on="1"/>
        <pt x="1212" y="1073" on="1"/>
        <pt x="1044" y="625" on="1"/>
        <pt x="874" y="645" on="1"/>
        <pt x="903" y="791" on="1"/>
        <pt x="866" y="820" on="0"/>
        <pt x="799" y="851" on="0"/>
        <pt x="773" y="859" on="1"/>
        <pt x="743" y="868" on="0"/>
        <pt x="717" y="870" on="1"/>
        <pt x="633" y="870" on="0"/>
        <pt x="506" y="816" on="0"/>
        <pt x="419" y="721" on="0"/>
        <pt x="375" y="590" on="0"/>
        <pt x="375" y="512" on="1"/>
        <pt x="375" y="427" on="0"/>
        <pt x="414" y="283" on="0"/>
        <pt x="498" y="178" on="0"/>
        <pt x="627" y="119" on="0"/>
        <pt x="717" y="119" on="1"/>
        <pt x="774" y="123" on="0"/>
        <pt x="827" y="151" on="1"/>
        <pt x="849" y="163" on="0"/>
        <pt x="897" y="200" on="0"/>
        <pt x="943" y="253" on="0"/>
        <pt x="985" y="324" on="0"/>
        <pt x="1001" y="371" on="1"/>
      </contour>
    </TTGlyph>
    <TTGlyph name="cacute" xMin="44" yMin="-49" xMax="1212" yMax="1557">
      <component glyphName="c" x="0" y="0" flags="0x204"/>
      <component glyphName="acute" x="545" y="-85" flags="0x4"/>
    </TTGlyph>
    <TTGlyph name="caron" xMin="0" yMin="1229" xMax="670" yMax="1622">
      <contour>
        <pt x="465" y="1229" on="1"/>
        <pt x="190" y="1229" on="1"/>
        <pt x="0" y="1561" on="1"/>
        <pt x="156" y="1622" on="1"/>
        <pt x="281" y="1319" on="1"/>
        <pt x="399" y="1622" on="1"/>
        <pt x="670" y="1552" on="1"/>
      </contour>
    </TTGlyph>
    <TTGlyph name="ccaron" xMin="44" yMin="-49" xMax="1212" yMax="1525">
      <component glyphName="c" x="0" y="0" flags="0x204"/>
      <component glyphName="caron" x="272" y="-97" flags="0x4"/>
    </TTGlyph>
    <TTGlyph name="ccedilla" xMin="43" yMin="-500" xMax="1214" yMax="1120">
      <contour>
        <pt x="854" y="-258" on="1"/>
        <pt x="866" y="-298" on="0"/>
        <pt x="844" y="-384" on="0"/>
        <pt x="774" y="-454" on="0"/>
        <pt x="653" y="-500" on="0"/>
        <pt x="567" y="-500" on="1"/>
        <pt x="525" y="-500" on="0"/>
        <pt x="432" y="-489" on="0"/>
        <pt x="379" y="-475" on="1"/>
        <pt x="438" y="-307" on="1"/>
        <pt x="479" y="-316" on="0"/>
        <pt x="539" y="-324" on="0"/>
        <pt x="565" y="-324" on="1"/>
        <pt x="605" y="-324" on="0"/>
        <pt x="653" y="-308" on="0"/>
        <pt x="665" y="-298" on="1"/>
        <pt x="679" y="-287" on="0"/>
        <pt x="684" y="-272" on="1"/>
        <pt x="686" y="-255" on="0"/>
        <pt x="675" y="-241" on="1"/>
        <pt x="665" y="-229" on="0"/>
        <pt x="616" y="-209" on="0"/>
        <pt x="567" y="-209" on="1"/>
        <pt x="547" y="-209" on="0"/>
        <pt x="503" y="-212" on="0"/>
        <pt x="475" y="-217" on="1"/>
        <pt x="549" y="-45" on="1"/>
        <pt x="443" y="-33" on="0"/>
        <pt x="254" y="55" on="0"/>
        <pt x="116" y="198" on="0"/>
        <pt x="43" y="392" on="0"/>
        <pt x="53" y="512" on="1"/>
        <pt x="64" y="653" on="0"/>
        <pt x="171" y="856" on="0"/>
        <pt x="332" y="987" on="0"/>
        <pt x="531" y="1049" on="0"/>
        <pt x="633" y="1049" on="1"/>
        <pt x="679" y="1047" on="0"/>
        <pt x="730" y="1036" on="1"/>
        <pt x="774" y="1026" on="0"/>
        <pt x="881" y="986" on="0"/>
        <pt x="936" y="950" on="1"/>
        <pt x="971" y="1120" on="1"/>
        <pt x="1214" y="1073" on="1"/>
        <pt x="1047" y="625" on="1"/>
        <pt x="877" y="645" on="1"/>
        <pt x="905" y="791" on="1"/>
        <pt x="868" y="820" on="0"/>
        <pt x="801" y="851" on="0"/>
        <pt x="775" y="859" on="1"/>
        <pt x="745" y="868" on="0"/>
        <pt x="719" y="870" on="1"/>
        <pt x="635" y="870" on="0"/>
        <pt x="508" y="816" on="0"/>
        <pt x="421" y="721" on="0"/>
        <pt x="377" y="590" on="0"/>
        <pt x="377" y="512" on="1"/>
        <pt x="377" y="427" on="0"/>
        <pt x="416" y="283" on="0"/>
        <pt x="500" y="178" on="0"/>
        <pt x="629" y="119" on="0"/>
        <pt x="719" y="119" on="1"/>
        <pt x="775" y="123" on="0"/>
        <pt x="829" y="151" on="1"/>
        <pt x="851" y="163" on="0"/>
        <pt x="900" y="200" on="0"/>
        <pt x="946" y="253" on="0"/>
        <pt x="988" y="324" on="0"/>
        <pt x="1004" y="371" on="1"/>
        <pt x="1171" y="188" on="1"/>
        <pt x="1129" y="134" on="0"/>
        <pt x="1035" y="57" on="0"/>
        <pt x="937" y="4" on="0"/>
        <pt x="840" y="-27" on="0"/>
        <pt x="753" y="-43" on="0"/>
        <pt x="679" y="-48" on="0"/>
        <pt x="653" y="-49" on="1"/>
        <pt x="623" y="-137" on="1"/>
        <pt x="658" y="-136" on="0"/>
        <pt x="716" y="-145" on="0"/>
        <pt x="761" y="-161" on="0"/>
        <pt x="796" y="-183" on="0"/>
        <pt x="809" y="-195" on="1"/>
        <pt x="839" y="-222" on="0"/>
      </contour>
    </TTGlyph>
    <TTGlyph name="ccircumflex" xMin="44" yMin="-49" xMax="1212" yMax="1520">
      <component glyphName="c" x="0" y="0" flags="0x204"/>
      <component glyphName="circumflex" x="272" y="-116" flags="0x4"/>
    </TTGlyph>
    <TTGlyph name="cdotaccent" xMin="44" yMin="-49" xMax="1212" yMax="1377">
      <component glyphName="c" x="0" y="0" flags="0x204"/>
      <component glyphName="dotaccent" x="471" y="-87" flags="0x4"/>
    </TTGlyph>
    <TTGlyph name="cedilla" xMin="0" yMin="-530" xMax="487" yMax="8">
      <contour>
        <pt x="475" y="-289" on="1"/>
        <pt x="487" y="-329" on="0"/>
        <pt x="465" y="-414" on="0"/>
        <pt x="395" y="-485" on="0"/>
        <pt x="274" y="-530" on="0"/>
        <pt x="188" y="-530" on="1"/>
        <pt x="146" y="-530" on="0"/>
        <pt x="53" y="-520" on="0"/>
        <pt x="0" y="-506" on="1"/>
        <pt x="59" y="-338" on="1"/>
        <pt x="100" y="-347" on="0"/>
        <pt x="160" y="-354" on="0"/>
        <pt x="186" y="-354" on="1"/>
        <pt x="226" y="-354" on="0"/>
        <pt x="274" y="-339" on="0"/>
        <pt x="286" y="-329" on="1"/>
        <pt x="300" y="-318" on="0"/>
        <pt x="305" y="-303" on="1"/>
        <pt x="307" y="-286" on="0"/>
        <pt x="296" y="-272" on="1"/>
        <pt x="286" y="-260" on="0"/>
        <pt x="237" y="-240" on="0"/>
        <pt x="188" y="-240" on="1"/>
        <pt x="168" y="-240" on="0"/>
        <pt x="124" y="-243" on="0"/>
        <pt x="96" y="-248" on="1"/>
        <pt x="207" y="8" on="1"/>
        <pt x="305" y="8" on="1"/>
        <pt x="244" y="-168" on="1"/>
        <pt x="279" y="-167" on="0"/>
        <pt x="337" y="-176" on="0"/>
        <pt x="382" y="-192" on="0"/>
        <pt x="417" y="-214" on="0"/>
        <pt x="430" y="-226" on="1"/>
        <pt x="460" y="-253" on="0"/>
      </contour>
    </TTGlyph>
    <TTGlyph name="cent" xMin="69" yMin="-299" xMax="1038" yMax="1554">
      <contour>
        <pt x="987" y="428" on="1"/>
        <pt x="949" y="373" on="0"/>
        <pt x="849" y="291" on="0"/>
        <pt x="735" y="237" on="0"/>
        <pt x="612" y="211" on="0"/>
        <pt x="551" y="211" on="1"/>
        <pt x="540" y="211" on="0"/>
        <pt x="517" y="211" on="0"/>
        <pt x="506" y="213" on="1"/>
        <pt x="414" y="-299" on="1"/>
        <pt x="217" y="-262" on="1"/>
        <pt x="399" y="231" on="1"/>
        <pt x="328" y="251" on="0"/>
        <pt x="204" y="328" on="0"/>
        <pt x="115" y="437" on="0"/>
        <pt x="69" y="576" on="0"/>
        <pt x="76" y="659" on="1"/>
        <pt x="84" y="771" on="0"/>
        <pt x="175" y="934" on="0"/>
        <pt x="310" y="1039" on="0"/>
        <pt x="475" y="1090" on="0"/>
        <pt x="557" y="1090" on="1"/>
        <pt x="563" y="1090" on="1"/>
        <pt x="566" y="1090" on="0"/>
        <pt x="575" y="1088" on="0"/>
        <pt x="582" y="1087" on="1"/>
        <pt x="666" y="1554" on="1"/>
        <pt x="862" y="1491" on="1"/>
        <pt x="700" y="1063" on="1"/>
        <pt x="732" y="1052" on="0"/>
        <pt x="802" y="1020" on="0"/>
        <pt x="836" y="995" on="1"/>
        <pt x="881" y="1141" on="1"/>
        <pt x="1038" y="1108" on="1"/>
        <pt x="903" y="750" on="1"/>
        <pt x="768" y="766" on="1"/>
        <pt x="801" y="874" on="1"/>
        <pt x="768" y="900" on="0"/>
        <pt x="705" y="929" on="0"/>
        <pt x="680" y="936" on="1"/>
        <pt x="651" y="944" on="0"/>
        <pt x="625" y="946" on="1"/>
        <pt x="558" y="946" on="0"/>
        <pt x="456" y="903" on="0"/>
        <pt x="387" y="826" on="0"/>
        <pt x="352" y="721" on="0"/>
        <pt x="352" y="659" on="1"/>
        <pt x="352" y="591" on="0"/>
        <pt x="384" y="475" on="0"/>
        <pt x="450" y="391" on="0"/>
        <pt x="553" y="344" on="0"/>
        <pt x="625" y="344" on="1"/>
        <pt x="677" y="346" on="0"/>
        <pt x="726" y="363" on="1"/>
        <pt x="747" y="370" on="0"/>
        <pt x="791" y="392" on="0"/>
        <pt x="833" y="423" on="0"/>
        <pt x="871" y="466" on="0"/>
        <pt x="885" y="494" on="1"/>
      </contour>
    </TTGlyph>
    <TTGlyph name="circumflex" xMin="0" yMin="1243" xMax="670" yMax="1636">
      <contour>
        <pt x="670" y="1313" on="1"/>
        <pt x="399" y="1243" on="1"/>
        <pt x="281" y="1546" on="1"/>
        <pt x="156" y="1243" on="1"/>
        <pt x="0" y="1305" on="1"/>
        <pt x="190" y="1636" on="1"/>
        <pt x="465" y="1636" on="1"/>
      </contour>
    </TTGlyph>
    <TTGlyph name="colon" xMin="106" yMin="2" xMax="463" yMax="885">
      <contour>
        <pt x="463" y="152" on="1"/>
        <pt x="463" y="121" on="0"/>
        <pt x="435" y="67" on="0"/>
        <pt x="387" y="26" on="0"/>
        <pt x="322" y="2" on="0"/>
        <pt x="285" y="2" on="1"/>
        <pt x="247" y="2" on="0"/>
        <pt x="182" y="26" on="0"/>
        <pt x="134" y="67" on="0"/>
        <pt x="106" y="121" on="0"/>
        <pt x="106" y="152" on="1"/>
        <pt x="106" y="182" on="0"/>
        <pt x="134" y="237" on="0"/>
        <pt x="182" y="279" on="0"/>
        <pt x="247" y="303" on="0"/>
        <pt x="285" y="303" on="1"/>
        <pt x="322" y="303" on="0"/>
        <pt x="387" y="279" on="0"/>
        <pt x="435" y="237" on="0"/>
        <pt x="463" y="182" on="0"/>
      </contour>
      <contour>
        <pt x="463" y="733" on="1"/>
        <pt x="463" y="703" on="0"/>
        <pt x="435" y="649" on="0"/>
        <pt x="387" y="608" on="0"/>
        <pt x="322" y="584" on="0"/>
        <pt x="285" y="584" on="1"/>
        <pt x="247" y="584" on="0"/>
        <pt x="182" y="608" on="0"/>
        <pt x="134" y="649" on="0"/>
        <pt x="106" y="703" on="0"/>
        <pt x="106" y="733" on="1"/>
        <pt x="106" y="764" on="0"/>
        <pt x="134" y="820" on="0"/>
        <pt x="182" y="861" on="0"/>
        <pt x="247" y="885" on="0"/>
        <pt x="285" y="885" on="1"/>
        <pt x="322" y="885" on="0"/>
        <pt x="387" y="861" on="0"/>
        <pt x="435" y="820" on="0"/>
        <pt x="463" y="764" on="0"/>
      </contour>
    </TTGlyph>
    <TTGlyph name="comma" xMin="72" yMin="-193" xMax="459" yMax="303">
      <contour>
        <pt x="219" y="-193" on="1"/>
        <pt x="176" y="-61" on="1"/>
        <pt x="210" y="-56" on="0"/>
        <pt x="258" y="-37" on="0"/>
        <pt x="290" y="-17" on="0"/>
        <pt x="307" y="3" on="0"/>
        <pt x="311" y="10" on="1"/>
        <pt x="297" y="7" on="0"/>
        <pt x="267" y="2" on="0"/>
        <pt x="252" y="2" on="1"/>
        <pt x="214" y="2" on="0"/>
        <pt x="149" y="26" on="0"/>
        <pt x="100" y="67" on="0"/>
        <pt x="72" y="121" on="0"/>
        <pt x="72" y="152" on="1"/>
        <pt x="72" y="182" on="0"/>
        <pt x="100" y="237" on="0"/>
        <pt x="149" y="279" on="0"/>
        <pt x="214" y="303" on="0"/>
        <pt x="252" y="303" on="1"/>
        <pt x="302" y="303" on="0"/>
        <pt x="379" y="263" on="0"/>
        <pt x="432" y="197" on="0"/>
        <pt x="459" y="112" on="0"/>
        <pt x="459" y="68" on="1"/>
        <pt x="459" y="15" on="0"/>
        <pt x="418" y="-70" on="0"/>
        <pt x="351" y="-135" on="0"/>
        <pt x="264" y="-180" on="0"/>
      </contour>
    </TTGlyph>
    <TTGlyph name="copyright" xMin="96" yMin="238" xMax="1042" yMax="1157">
      <contour>
        <pt x="834" y="934" on="1"/>
        <pt x="743" y="690" on="1"/>
        <pt x="668" y="705" on="1"/>
        <pt x="680" y="754" on="1"/>
        <pt x="660" y="764" on="0"/>
        <pt x="621" y="775" on="0"/>
        <pt x="604" y="778" on="1"/>
        <pt x="585" y="782" on="0"/>
        <pt x="567" y="782" on="1"/>
        <pt x="537" y="782" on="0"/>
        <pt x="474" y="773" on="0"/>
        <pt x="422" y="752" on="0"/>
        <pt x="389" y="716" on="0"/>
        <pt x="389" y="688" on="1"/>
        <pt x="389" y="639" on="0"/>
        <pt x="468" y="582" on="0"/>
        <pt x="543" y="582" on="1"/>
        <pt x="571" y="583" on="0"/>
        <pt x="602" y="589" on="1"/>
        <pt x="628" y="594" on="0"/>
        <pt x="693" y="615" on="0"/>
        <pt x="725" y="635" on="1"/>
        <pt x="766" y="510" on="1"/>
        <pt x="746" y="490" on="0"/>
        <pt x="673" y="470" on="0"/>
        <pt x="637" y="465" on="1"/>
        <pt x="595" y="460" on="0"/>
        <pt x="547" y="459" on="1"/>
        <pt x="482" y="459" on="0"/>
        <pt x="389" y="496" on="0"/>
        <pt x="328" y="559" on="0"/>
        <pt x="299" y="642" on="0"/>
        <pt x="299" y="688" on="1"/>
        <pt x="299" y="750" on="0"/>
        <pt x="352" y="841" on="0"/>
        <pt x="434" y="900" on="0"/>
        <pt x="533" y="927" on="0"/>
        <pt x="578" y="926" on="1"/>
        <pt x="595" y="927" on="0"/>
        <pt x="615" y="924" on="1"/>
        <pt x="632" y="922" on="0"/>
        <pt x="679" y="910" on="0"/>
        <pt x="707" y="899" on="1"/>
        <pt x="719" y="954" on="1"/>
      </contour>
      <contour>
        <pt x="1042" y="696" on="1"/>
        <pt x="1042" y="601" on="0"/>
        <pt x="988" y="434" on="0"/>
        <pt x="873" y="310" on="0"/>
        <pt x="694" y="238" on="0"/>
        <pt x="569" y="238" on="1"/>
        <pt x="442" y="238" on="0"/>
        <pt x="263" y="310" on="0"/>
        <pt x="149" y="434" on="0"/>
        <pt x="96" y="601" on="0"/>
        <pt x="96" y="696" on="1"/>
        <pt x="96" y="792" on="0"/>
        <pt x="154" y="960" on="0"/>
        <pt x="271" y="1085" on="0"/>
        <pt x="449" y="1157" on="0"/>
        <pt x="569" y="1157" on="1"/>
        <pt x="711" y="1157" on="0"/>
        <pt x="894" y="1085" on="0"/>
        <pt x="1001" y="960" on="0"/>
        <pt x="1042" y="792" on="0"/>
      </contour>
      <contour>
        <pt x="950" y="700" on="1"/>
        <pt x="950" y="772" on="0"/>
        <pt x="915" y="897" on="0"/>
        <pt x="828" y="990" on="0"/>
        <pt x="678" y="1044" on="0"/>
        <pt x="563" y="1044" on="1"/>
        <pt x="465" y="1044" on="0"/>
        <pt x="320" y="990" on="0"/>
        <pt x="225" y="897" on="0"/>
        <pt x="178" y="772" on="0"/>
        <pt x="178" y="700" on="1"/>
        <pt x="178" y="629" on="0"/>
        <pt x="221" y="505" on="0"/>
        <pt x="313" y="412" on="0"/>
        <pt x="459" y="358" on="0"/>
        <pt x="563" y="358" on="1"/>
        <pt x="666" y="358" on="0"/>
        <pt x="813" y="412" on="0"/>
        <pt x="906" y="505" on="0"/>
        <pt x="950" y="629" on="0"/>
      </contour>
    </TTGlyph>
    <TTGlyph name="currency" xMin="72" yMin="199" xMax="905" yMax="1083">
      <contour>
        <pt x="492" y="899" on="1"/>
        <pt x="453" y="899" on="0"/>
        <pt x="400" y="858" on="0"/>
        <pt x="369" y="797" on="0"/>
        <pt x="356" y="726" on="0"/>
        <pt x="356" y="696" on="1"/>
        <pt x="356" y="672" on="0"/>
        <pt x="364" y="609" on="0"/>
        <pt x="381" y="543" on="0"/>
        <pt x="410" y="478" on="0"/>
        <pt x="452" y="428" on="0"/>
        <pt x="508" y="397" on="0"/>
        <pt x="545" y="397" on="1"/>
        <pt x="583" y="397" on="0"/>
        <pt x="632" y="431" on="0"/>
        <pt x="660" y="483" on="0"/>
        <pt x="670" y="545" on="0"/>
        <pt x="670" y="573" on="1"/>
        <pt x="670" y="597" on="0"/>
        <pt x="663" y="664" on="0"/>
        <pt x="647" y="736" on="0"/>
        <pt x="621" y="807" on="0"/>
        <pt x="581" y="864" on="0"/>
        <pt x="527" y="899" on="0"/>
      </contour>
      <contour>
        <pt x="842" y="272" on="1"/>
        <pt x="725" y="209" on="1"/>
        <pt x="631" y="326" on="1"/>
        <pt x="606" y="319" on="0"/>
        <pt x="554" y="315" on="0"/>
        <pt x="526" y="315" on="1"/>
        <pt x="495" y="315" on="0"/>
        <pt x="440" y="322" on="0"/>
        <pt x="414" y="330" on="1"/>
        <pt x="315" y="199" on="1"/>
        <pt x="72" y="358" on="1"/>
        <pt x="207" y="500" on="1"/>
        <pt x="188" y="538" on="0"/>
        <pt x="170" y="625" on="0"/>
        <pt x="170" y="670" on="1"/>
        <pt x="170" y="770" on="0"/>
        <pt x="211" y="838" on="1"/>
        <pt x="121" y="948" on="1"/>
        <pt x="332" y="1083" on="1"/>
        <pt x="401" y="969" on="1"/>
        <pt x="450" y="981" on="0"/>
        <pt x="510" y="981" on="1"/>
        <pt x="548" y="981" on="0"/>
        <pt x="616" y="970" on="0"/>
        <pt x="645" y="961" on="1"/>
        <pt x="752" y="1075" on="1"/>
        <pt x="905" y="985" on="1"/>
        <pt x="799" y="842" on="1"/>
        <pt x="828" y="795" on="0"/>
        <pt x="854" y="687" on="0"/>
        <pt x="854" y="631" on="1"/>
        <pt x="854" y="550" on="0"/>
        <pt x="805" y="433" on="0"/>
        <pt x="762" y="393" on="1"/>
      </contour>
    </TTGlyph>
    <TTGlyph name="d" xMin="55" yMin="-49" xMax="1432" yMax="1483">
      <contour>
        <pt x="1432" y="-49" on="1"/>
        <pt x="924" y="-25" on="1"/>
        <pt x="926" y="98" on="1"/>
        <pt x="866" y="51" on="0"/>
        <pt x="736" y="1" on="0"/>
        <pt x="682" y="-10" on="1"/>
        <pt x="618" y="-23" on="0"/>
        <pt x="557" y="-25" on="1"/>
        <pt x="514" y="-25" on="0"/>
        <pt x="407" y="-6" on="0"/>
        <pt x="296" y="39" on="0"/>
        <pt x="189" y="115" on="0"/>
        <pt x="106" y="229" on="0"/>
        <pt x="55" y="386" on="0"/>
        <pt x="55" y="489" on="1"/>
        <pt x="55" y="594" on="0"/>
        <pt x="106" y="755" on="0"/>
        <pt x="192" y="872" on="0"/>
        <pt x="307" y="951" on="0"/>
        <pt x="434" y="998" on="0"/>
        <pt x="566" y="1018" on="0"/>
        <pt x="627" y="1018" on="1"/>
        <pt x="681" y="1017" on="0"/>
        <pt x="736" y="1007" on="1"/>
        <pt x="783" y="999" on="0"/>
        <pt x="890" y="963" on="0"/>
        <pt x="938" y="930" on="1"/>
        <pt x="944" y="1282" on="1"/>
        <pt x="635" y="1249" on="1"/>
        <pt x="627" y="1421" on="1"/>
        <pt x="1288" y="1483" on="1"/>
        <pt x="1214" y="147" on="1"/>
        <pt x="1432" y="147" on="1"/>
      </contour>
      <contour>
        <pt x="645" y="870" on="1"/>
        <pt x="583" y="870" on="0"/>
        <pt x="492" y="800" on="0"/>
        <pt x="431" y="691" on="0"/>
        <pt x="401" y="558" on="0"/>
        <pt x="401" y="496" on="1"/>
        <pt x="401" y="434" on="0"/>
        <pt x="428" y="300" on="0"/>
        <pt x="488" y="188" on="0"/>
        <pt x="583" y="115" on="0"/>
        <pt x="651" y="115" on="1"/>
        <pt x="692" y="117" on="0"/>
        <pt x="738" y="138" on="1"/>
        <pt x="777" y="155" on="0"/>
        <pt x="876" y="232" on="0"/>
        <pt x="928" y="303" on="1"/>
        <pt x="936" y="750" on="1"/>
        <pt x="876" y="795" on="0"/>
        <pt x="771" y="843" on="0"/>
        <pt x="731" y="854" on="1"/>
        <pt x="684" y="867" on="0"/>
      </contour>
    </TTGlyph>
    <TTGlyph name="dagger" xMin="66" yMin="-403" xMax="958" yMax="1624">
      <contour>
        <pt x="688" y="1624" on="1"/>
        <pt x="649" y="1155" on="1"/>
        <pt x="958" y="1176" on="1"/>
        <pt x="926" y="838" on="1"/>
        <pt x="623" y="838" on="1"/>
        <pt x="522" y="-403" on="1"/>
        <pt x="362" y="-403" on="1"/>
        <pt x="336" y="838" on="1"/>
        <pt x="92" y="838" on="1"/>
        <pt x="66" y="1118" on="1"/>
        <pt x="330" y="1135" on="1"/>
        <pt x="319" y="1593" on="1"/>
      </contour>
    </TTGlyph>
    <TTGlyph name="daggerdbl" xMin="66" yMin="-403" xMax="958" yMax="1624">
      <contour>
        <pt x="901" y="352" on="1"/>
        <pt x="870" y="2" on="1"/>
        <pt x="557" y="29" on="1"/>
        <pt x="522" y="-403" on="1"/>
        <pt x="362" y="-403" on="1"/>
        <pt x="352" y="47" on="1"/>
        <pt x="92" y="70" on="1"/>
        <pt x="92" y="326" on="1"/>
        <pt x="346" y="334" on="1"/>
        <pt x="336" y="838" on="1"/>
        <pt x="92" y="838" on="1"/>
        <pt x="66" y="1118" on="1"/>
        <pt x="330" y="1135" on="1"/>
        <pt x="319" y="1593" on="1"/>
        <pt x="688" y="1624" on="1"/>
        <pt x="649" y="1155" on="1"/>
        <pt x="958" y="1176" on="1"/>
        <pt x="926" y="838" on="1"/>
        <pt x="623" y="838" on="1"/>
        <pt x="584" y="342" on="1"/>
      </contour>
    </TTGlyph>
    <TTGlyph name="dcaron" xMin="55" yMin="-49" xMax="1712" yMax="1483">
      <component glyphName="d" x="0" y="0" flags="0x4"/>
      <component glyphName="uni0315" x="1440" y="0" flags="0x4"/>
    </TTGlyph>
    <TTGlyph name="dcroat" xMin="55" yMin="-49" xMax="1432" yMax="1544">
      <contour>
        <pt x="1432" y="-49" on="1"/>
        <pt x="924" y="-25" on="1"/>
        <pt x="926" y="98" on="1"/>
        <pt x="866" y="51" on="0"/>
        <pt x="736" y="1" on="0"/>
        <pt x="682" y="-10" on="1"/>
        <pt x="618" y="-23" on="0"/>
        <pt x="557" y="-25" on="1"/>
        <pt x="514" y="-25" on="0"/>
        <pt x="407" y="-6" on="0"/>
        <pt x="296" y="39" on="0"/>
        <pt x="189" y="115" on="0"/>
        <pt x="106" y="229" on="0"/>
        <pt x="55" y="386" on="0"/>
        <pt x="55" y="489" on="1"/>
        <pt x="55" y="594" on="0"/>
        <pt x="106" y="755" on="0"/>
        <pt x="192" y="872" on="0"/>
        <pt x="307" y="951" on="0"/>
        <pt x="434" y="998" on="0"/>
        <pt x="566" y="1018" on="0"/>
        <pt x="627" y="1018" on="1"/>
        <pt x="681" y="1017" on="0"/>
        <pt x="736" y="1007" on="1"/>
        <pt x="783" y="999" on="0"/>
        <pt x="890" y="963" on="0"/>
        <pt x="938" y="930" on="1"/>
        <pt x="940" y="1151" on="1"/>
        <pt x="588" y="1135" on="1"/>
        <pt x="561" y="1415" on="1"/>
        <pt x="942" y="1395" on="1"/>
        <pt x="944" y="1544" on="1"/>
        <pt x="1292" y="1528" on="1"/>
        <pt x="1284" y="1378" on="1"/>
        <pt x="1432" y="1370" on="1"/>
        <pt x="1403" y="1176" on="1"/>
        <pt x="1272" y="1167" on="1"/>
        <pt x="1214" y="147" on="1"/>
        <pt x="1432" y="147" on="1"/>
      </contour>
      <contour>
        <pt x="645" y="870" on="1"/>
        <pt x="583" y="870" on="0"/>
        <pt x="492" y="800" on="0"/>
        <pt x="431" y="691" on="0"/>
        <pt x="401" y="558" on="0"/>
        <pt x="401" y="496" on="1"/>
        <pt x="401" y="434" on="0"/>
        <pt x="428" y="300" on="0"/>
        <pt x="488" y="188" on="0"/>
        <pt x="583" y="115" on="0"/>
        <pt x="651" y="115" on="1"/>
        <pt x="692" y="117" on="0"/>
        <pt x="738" y="138" on="1"/>
        <pt x="777" y="155" on="0"/>
        <pt x="876" y="232" on="0"/>
        <pt x="928" y="303" on="1"/>
        <pt x="936" y="750" on="1"/>
        <pt x="876" y="795" on="0"/>
        <pt x="771" y="843" on="0"/>
        <pt x="731" y="854" on="1"/>
        <pt x="684" y="867" on="0"/>
      </contour>
    </TTGlyph>
    <TTGlyph name="degree" xMin="70" yMin="836" xMax="530" yMax="1317">
      <contour>
        <pt x="301" y="1317" on="1"/>
        <pt x="349" y="1317" on="0"/>
        <pt x="432" y="1289" on="0"/>
        <pt x="494" y="1231" on="0"/>
        <pt x="530" y="1140" on="0"/>
        <pt x="530" y="1077" on="1"/>
        <pt x="530" y="1015" on="0"/>
        <pt x="494" y="925" on="0"/>
        <pt x="432" y="865" on="0"/>
        <pt x="349" y="836" on="0"/>
        <pt x="301" y="836" on="1"/>
        <pt x="253" y="836" on="0"/>
        <pt x="169" y="867" on="0"/>
        <pt x="106" y="927" on="0"/>
        <pt x="70" y="1017" on="0"/>
        <pt x="70" y="1077" on="1"/>
        <pt x="70" y="1140" on="0"/>
        <pt x="106" y="1231" on="0"/>
        <pt x="169" y="1289" on="0"/>
        <pt x="253" y="1317" on="0"/>
      </contour>
      <contour>
        <pt x="301" y="1239" on="1"/>
        <pt x="272" y="1239" on="0"/>
        <pt x="233" y="1162" on="0"/>
        <pt x="233" y="1077" on="1"/>
        <pt x="233" y="996" on="0"/>
        <pt x="272" y="913" on="0"/>
        <pt x="301" y="913" on="1"/>
        <pt x="329" y="913" on="0"/>
        <pt x="369" y="994" on="0"/>
        <pt x="369" y="1077" on="1"/>
        <pt x="369" y="1162" on="0"/>
        <pt x="329" y="1239" on="0"/>
      </contour>
    </TTGlyph>
    <TTGlyph name="dieresis" xMin="0" yMin="1221" xMax="680" yMax="1464">
      <contour>
        <pt x="680" y="1343" on="1"/>
        <pt x="680" y="1318" on="0"/>
        <pt x="658" y="1273" on="0"/>
        <pt x="621" y="1240" on="0"/>
        <pt x="572" y="1221" on="0"/>
        <pt x="545" y="1221" on="1"/>
        <pt x="516" y="1221" on="0"/>
        <pt x="467" y="1240" on="0"/>
        <pt x="429" y="1273" on="0"/>
        <pt x="408" y="1318" on="0"/>
        <pt x="408" y="1343" on="1"/>
        <pt x="408" y="1368" on="0"/>
        <pt x="429" y="1412" on="0"/>
        <pt x="467" y="1445" on="0"/>
        <pt x="516" y="1464" on="0"/>
        <pt x="545" y="1464" on="1"/>
        <pt x="572" y="1464" on="0"/>
        <pt x="621" y="1445" on="0"/>
        <pt x="658" y="1412" on="0"/>
        <pt x="680" y="1368" on="0"/>
      </contour>
      <contour>
        <pt x="272" y="1343" on="1"/>
        <pt x="272" y="1318" on="0"/>
        <pt x="251" y="1273" on="0"/>
        <pt x="213" y="1240" on="0"/>
        <pt x="163" y="1221" on="0"/>
        <pt x="135" y="1221" on="1"/>
        <pt x="107" y="1221" on="0"/>
        <pt x="58" y="1240" on="0"/>
        <pt x="21" y="1273" on="0"/>
        <pt x="0" y="1318" on="0"/>
        <pt x="0" y="1343" on="1"/>
        <pt x="0" y="1368" on="0"/>
        <pt x="21" y="1412" on="0"/>
        <pt x="58" y="1445" on="0"/>
        <pt x="107" y="1464" on="0"/>
        <pt x="135" y="1464" on="1"/>
        <pt x="163" y="1464" on="0"/>
        <pt x="213" y="1445" on="0"/>
        <pt x="251" y="1412" on="0"/>
        <pt x="272" y="1368" on="0"/>
      </contour>
    </TTGlyph>
    <TTGlyph name="divide" xMin="86" yMin="186" xMax="956" yMax="1163">
      <contour>
        <pt x="956" y="795" on="1"/>
        <pt x="928" y="539" on="1"/>
        <pt x="113" y="498" on="1"/>
        <pt x="86" y="840" on="1"/>
      </contour>
      <contour>
        <pt x="672" y="1024" on="1"/>
        <pt x="672" y="996" on="0"/>
        <pt x="647" y="947" on="0"/>
        <pt x="602" y="910" on="0"/>
        <pt x="542" y="889" on="0"/>
        <pt x="508" y="889" on="1"/>
        <pt x="474" y="889" on="0"/>
        <pt x="415" y="910" on="0"/>
        <pt x="370" y="947" on="0"/>
        <pt x="344" y="996" on="0"/>
        <pt x="344" y="1024" on="1"/>
        <pt x="344" y="1052" on="0"/>
        <pt x="370" y="1103" on="0"/>
        <pt x="415" y="1141" on="0"/>
        <pt x="474" y="1163" on="0"/>
        <pt x="508" y="1163" on="1"/>
        <pt x="542" y="1163" on="0"/>
        <pt x="602" y="1141" on="0"/>
        <pt x="647" y="1103" on="0"/>
        <pt x="672" y="1052" on="0"/>
      </contour>
      <contour>
        <pt x="672" y="324" on="1"/>
        <pt x="672" y="296" on="0"/>
        <pt x="647" y="246" on="0"/>
        <pt x="602" y="208" on="0"/>
        <pt x="542" y="186" on="0"/>
        <pt x="508" y="186" on="1"/>
        <pt x="474" y="186" on="0"/>
        <pt x="415" y="208" on="0"/>
        <pt x="370" y="246" on="0"/>
        <pt x="344" y="296" on="0"/>
        <pt x="344" y="324" on="1"/>
        <pt x="344" y="352" on="0"/>
        <pt x="370" y="402" on="0"/>
        <pt x="415" y="439" on="0"/>
        <pt x="474" y="461" on="0"/>
        <pt x="508" y="461" on="1"/>
        <pt x="542" y="461" on="0"/>
        <pt x="602" y="439" on="0"/>
        <pt x="647" y="402" on="0"/>
        <pt x="672" y="352" on="0"/>
      </contour>
    </TTGlyph>
    <TTGlyph name="dollar" xMin="57" yMin="-283" xMax="971" yMax="1470">
      <contour>
        <pt x="420" y="-283" on="1"/>
        <pt x="477" y="197" on="1"/>
        <pt x="412" y="206" on="0"/>
        <pt x="285" y="247" on="0"/>
        <pt x="242" y="281" on="1"/>
        <pt x="225" y="152" on="1"/>
        <pt x="57" y="209" on="1"/>
        <pt x="150" y="469" on="1"/>
        <pt x="186" y="447" on="0"/>
        <pt x="282" y="397" on="0"/>
        <pt x="386" y="355" on="0"/>
        <pt x="490" y="328" on="0"/>
        <pt x="535" y="328" on="1"/>
        <pt x="550" y="328" on="0"/>
        <pt x="594" y="333" on="0"/>
        <pt x="635" y="346" on="0"/>
        <pt x="664" y="371" on="0"/>
        <pt x="664" y="391" on="1"/>
        <pt x="664" y="418" on="0"/>
        <pt x="617" y="457" on="0"/>
        <pt x="552" y="484" on="0"/>
        <pt x="485" y="502" on="0"/>
        <pt x="465" y="508" on="1"/>
        <pt x="435" y="517" on="0"/>
        <pt x="358" y="542" on="0"/>
        <pt x="277" y="575" on="0"/>
        <pt x="199" y="617" on="0"/>
        <pt x="138" y="669" on="0"/>
        <pt x="100" y="731" on="0"/>
        <pt x="100" y="768" on="1"/>
        <pt x="100" y="838" on="0"/>
        <pt x="165" y="939" on="0"/>
        <pt x="267" y="1006" on="0"/>
        <pt x="392" y="1040" on="0"/>
        <pt x="453" y="1042" on="1"/>
        <pt x="420" y="1470" on="1"/>
        <pt x="627" y="1470" on="1"/>
        <pt x="573" y="1028" on="1"/>
        <pt x="612" y="1019" on="0"/>
        <pt x="683" y="992" on="0"/>
        <pt x="739" y="963" on="0"/>
        <pt x="779" y="936" on="0"/>
        <pt x="788" y="928" on="1"/>
        <pt x="805" y="1073" on="1"/>
        <pt x="971" y="1040" on="1"/>
        <pt x="860" y="758" on="1"/>
        <pt x="827" y="776" on="0"/>
        <pt x="743" y="818" on="0"/>
        <pt x="652" y="854" on="0"/>
        <pt x="561" y="879" on="0"/>
        <pt x="522" y="879" on="1"/>
        <pt x="502" y="879" on="0"/>
        <pt x="449" y="873" on="0"/>
        <pt x="402" y="854" on="0"/>
        <pt x="369" y="820" on="0"/>
        <pt x="369" y="793" on="1"/>
        <pt x="369" y="778" on="0"/>
        <pt x="420" y="750" on="0"/>
        <pt x="504" y="721" on="0"/>
        <pt x="611" y="690" on="0"/>
        <pt x="723" y="652" on="0"/>
        <pt x="830" y="606" on="0"/>
        <pt x="914" y="547" on="0"/>
        <pt x="965" y="474" on="0"/>
        <pt x="965" y="428" on="1"/>
        <pt x="965" y="359" on="0"/>
        <pt x="890" y="267" on="0"/>
        <pt x="778" y="213" on="0"/>
        <pt x="647" y="190" on="0"/>
        <pt x="590" y="190" on="1"/>
        <pt x="627" y="-283" on="1"/>
      </contour>
    </TTGlyph>
    <TTGlyph name="dotaccent" xMin="0" yMin="1221" xMax="272" yMax="1464">
      <contour>
        <pt x="272" y="1343" on="1"/>
        <pt x="272" y="1318" on="0"/>
        <pt x="251" y="1273" on="0"/>
        <pt x="213" y="1240" on="0"/>
        <pt x="163" y="1221" on="0"/>
        <pt x="135" y="1221" on="1"/>
        <pt x="107" y="1221" on="0"/>
        <pt x="58" y="1240" on="0"/>
        <pt x="21" y="1273" on="0"/>
        <pt x="0" y="1318" on="0"/>
        <pt x="0" y="1343" on="1"/>
        <pt x="0" y="1368" on="0"/>
        <pt x="21" y="1412" on="0"/>
        <pt x="58" y="1445" on="0"/>
        <pt x="107" y="1464" on="0"/>
        <pt x="135" y="1464" on="1"/>
        <pt x="163" y="1464" on="0"/>
        <pt x="213" y="1445" on="0"/>
        <pt x="251" y="1412" on="0"/>
        <pt x="272" y="1368" on="0"/>
      </contour>
    </TTGlyph>
    <TTGlyph name="dotlessi" xMin="57" yMin="-29" xMax="879" yMax="975">
      <contour>
        <pt x="879" y="227" on="1"/>
        <pt x="846" y="-29" on="1"/>
        <pt x="100" y="-8" on="1"/>
        <pt x="68" y="174" on="1"/>
        <pt x="371" y="193" on="1"/>
        <pt x="369" y="764" on="1"/>
        <pt x="57" y="774" on="1"/>
        <pt x="57" y="934" on="1"/>
        <pt x="686" y="975" on="1"/>
        <pt x="610" y="209" on="1"/>
      </contour>
    </TTGlyph>
    <TTGlyph name="dotlessj" xMin="-406" yMin="-428" xMax="582" yMax="1010">
      <contour>
        <pt x="-37" y="-428" on="1"/>
        <pt x="-61" y="-428" on="0"/>
        <pt x="-154" y="-422" on="0"/>
        <pt x="-262" y="-405" on="0"/>
        <pt x="-368" y="-374" on="0"/>
        <pt x="-406" y="-348" on="1"/>
        <pt x="-279" y="-137" on="1"/>
        <pt x="-253" y="-160" on="0"/>
        <pt x="-188" y="-207" on="0"/>
        <pt x="-117" y="-245" on="0"/>
        <pt x="-46" y="-270" on="0"/>
        <pt x="-14" y="-270" on="1"/>
        <pt x="69" y="-270" on="0"/>
        <pt x="168" y="-189" on="0"/>
        <pt x="221" y="-31" on="0"/>
        <pt x="238" y="201" on="0"/>
        <pt x="238" y="352" on="1"/>
        <pt x="238" y="407" on="0"/>
        <pt x="237" y="515" on="0"/>
        <pt x="236" y="628" on="0"/>
        <pt x="234" y="747" on="0"/>
        <pt x="233" y="815" on="1"/>
        <pt x="-8" y="801" on="1"/>
        <pt x="-8" y="965" on="1"/>
        <pt x="565" y="1010" on="1"/>
        <pt x="570" y="893" on="0"/>
        <pt x="576" y="687" on="0"/>
        <pt x="580" y="518" on="0"/>
        <pt x="582" y="389" on="0"/>
        <pt x="582" y="350" on="1"/>
        <pt x="582" y="251" on="0"/>
        <pt x="564" y="58" on="0"/>
        <pt x="514" y="-115" on="0"/>
        <pt x="427" y="-261" on="0"/>
        <pt x="290" y="-368" on="0"/>
        <pt x="95" y="-428" on="0"/>
      </contour>
    </TTGlyph>
    <TTGlyph name="e" xMin="49" yMin="-43" xMax="1227" yMax="1044">
      <contour>
        <pt x="1227" y="342" on="1"/>
        <pt x="1189" y="243" on="0"/>
        <pt x="1054" y="98" on="0"/>
        <pt x="884" y="3" on="0"/>
        <pt x="694" y="-43" on="0"/>
        <pt x="602" y="-43" on="1"/>
        <pt x="474" y="-43" on="0"/>
        <pt x="274" y="37" on="0"/>
        <pt x="134" y="173" on="0"/>
        <pt x="55" y="356" on="0"/>
        <pt x="49" y="459" on="1"/>
        <pt x="49" y="616" on="0"/>
        <pt x="154" y="839" on="0"/>
        <pt x="335" y="979" on="0"/>
        <pt x="577" y="1044" on="0"/>
        <pt x="713" y="1044" on="1"/>
        <pt x="763" y="1044" on="0"/>
        <pt x="870" y="1030" on="0"/>
        <pt x="972" y="994" on="0"/>
        <pt x="1065" y="931" on="0"/>
        <pt x="1140" y="832" on="0"/>
        <pt x="1192" y="694" on="0"/>
        <pt x="1202" y="600" on="1"/>
        <pt x="381" y="453" on="1"/>
        <pt x="389" y="384" on="0"/>
        <pt x="430" y="252" on="0"/>
        <pt x="500" y="151" on="0"/>
        <pt x="603" y="92" on="0"/>
        <pt x="674" y="94" on="1"/>
        <pt x="751" y="103" on="0"/>
        <pt x="810" y="140" on="1"/>
        <pt x="835" y="156" on="0"/>
        <pt x="881" y="203" on="0"/>
        <pt x="915" y="269" on="0"/>
        <pt x="931" y="357" on="0"/>
        <pt x="926" y="414" on="1"/>
      </contour>
      <contour>
        <pt x="848" y="664" on="1"/>
        <pt x="844" y="711" on="0"/>
        <pt x="818" y="781" on="0"/>
        <pt x="779" y="831" on="0"/>
        <pt x="732" y="864" on="0"/>
        <pt x="708" y="874" on="1"/>
        <pt x="652" y="897" on="0"/>
        <pt x="582" y="895" on="1"/>
        <pt x="516" y="887" on="0"/>
        <pt x="434" y="828" on="0"/>
        <pt x="389" y="741" on="0"/>
        <pt x="373" y="635" on="0"/>
        <pt x="373" y="580" on="1"/>
      </contour>
    </TTGlyph>
    <TTGlyph name="eacute" xMin="49" yMin="-43" xMax="1227" yMax="1563">
      <component glyphName="e" x="0" y="0" flags="0x204"/>
      <component glyphName="acute" x="535" y="-79" flags="0x4"/>
    </TTGlyph>
    <TTGlyph name="ebreve" xMin="49" yMin="-43" xMax="1227" yMax="1420">
      <component glyphName="e" x="0" y="0" flags="0x204"/>
      <component glyphName="breve" x="317" y="-126" flags="0x4"/>
    </TTGlyph>
    <TTGlyph name="ecaron" xMin="49" yMin="-43" xMax="1227" yMax="1521">
      <component glyphName="e" x="0" y="0" flags="0x204"/>
      <component glyphName="caron" x="291" y="-101" flags="0x4"/>
    </TTGlyph>
    <TTGlyph name="ecircumflex" xMin="49" yMin="-43" xMax="1227" yMax="1500">
      <component glyphName="e" x="0" y="0" flags="0x204"/>
      <component glyphName="circumflex" x="303" y="-136" flags="0x4"/>
    </TTGlyph>
    <TTGlyph name="edieresis" xMin="49" yMin="-43" xMax="1227" yMax="1352">
      <component glyphName="e" x="0" y="0" flags="0x204"/>
      <component glyphName="dieresis" x="297" y="-112" flags="0x4"/>
    </TTGlyph>
    <TTGlyph name="edotaccent" xMin="49" yMin="-43" xMax="1227" yMax="1350">
      <component glyphName="e" x="0" y="0" flags="0x204"/>
      <component glyphName="dotaccent" x="489" y="-114" flags="0x4"/>
    </TTGlyph>
    <TTGlyph name="egrave" xMin="49" yMin="-43" xMax="1227" yMax="1530">
      <component glyphName="e" x="0" y="0" flags="0x204"/>
      <component glyphName="grave" x="76" y="-110" flags="0x4"/>
    </TTGlyph>
    <TTGlyph name="eight" xMin="74" yMin="-33" xMax="1235" yMax="1266">
      <contour>
        <pt x="1235" y="326" on="1"/>
        <pt x="1235" y="251" on="0"/>
        <pt x="1173" y="140" on="0"/>
        <pt x="1073" y="60" on="0"/>
        <pt x="946" y="9" on="0"/>
        <pt x="817" y="-21" on="0"/>
        <pt x="698" y="-33" on="0"/>
        <pt x="655" y="-33" on="1"/>
        <pt x="611" y="-33" on="0"/>
        <pt x="492" y="-21" on="0"/>
        <pt x="362" y="9" on="0"/>
        <pt x="236" y="60" on="0"/>
        <pt x="136" y="140" on="0"/>
        <pt x="74" y="251" on="0"/>
        <pt x="74" y="326" on="1"/>
        <pt x="76" y="391" on="0"/>
        <pt x="98" y="451" on="1"/>
        <pt x="107" y="476" on="0"/>
        <pt x="135" y="531" on="0"/>
        <pt x="177" y="582" on="0"/>
        <pt x="233" y="628" on="0"/>
        <pt x="270" y="645" on="1"/>
        <pt x="226" y="677" on="0"/>
        <pt x="178" y="759" on="0"/>
        <pt x="167" y="796" on="1"/>
        <pt x="154" y="839" on="0"/>
        <pt x="152" y="883" on="1"/>
        <pt x="152" y="972" on="0"/>
        <pt x="228" y="1114" on="0"/>
        <pt x="363" y="1213" on="0"/>
        <pt x="547" y="1266" on="0"/>
        <pt x="655" y="1266" on="1"/>
        <pt x="763" y="1266" on="0"/>
        <pt x="946" y="1213" on="0"/>
        <pt x="1081" y="1114" on="0"/>
        <pt x="1157" y="972" on="0"/>
        <pt x="1157" y="883" on="1"/>
        <pt x="1155" y="839" on="0"/>
        <pt x="1142" y="796" on="1"/>
        <pt x="1131" y="759" on="0"/>
        <pt x="1081" y="677" on="0"/>
        <pt x="1036" y="645" on="1"/>
        <pt x="1073" y="628" on="0"/>
        <pt x="1130" y="582" on="0"/>
        <pt x="1172" y="531" on="0"/>
        <pt x="1201" y="476" on="0"/>
        <pt x="1210" y="451" on="1"/>
        <pt x="1232" y="391" on="0"/>
      </contour>
      <contour>
        <pt x="1016" y="397" on="1"/>
        <pt x="1016" y="437" on="0"/>
        <pt x="959" y="497" on="0"/>
        <pt x="861" y="537" on="0"/>
        <pt x="730" y="557" on="0"/>
        <pt x="655" y="557" on="1"/>
        <pt x="580" y="557" on="0"/>
        <pt x="448" y="535" on="0"/>
        <pt x="350" y="494" on="0"/>
        <pt x="293" y="435" on="0"/>
        <pt x="293" y="397" on="1"/>
        <pt x="293" y="356" on="0"/>
        <pt x="350" y="297" on="0"/>
        <pt x="448" y="257" on="0"/>
        <pt x="580" y="238" on="0"/>
        <pt x="655" y="238" on="1"/>
        <pt x="730" y="238" on="0"/>
        <pt x="861" y="256" on="0"/>
        <pt x="959" y="294" on="0"/>
        <pt x="1016" y="354" on="0"/>
      </contour>
      <contour>
        <pt x="942" y="860" on="1"/>
        <pt x="942" y="898" on="0"/>
        <pt x="897" y="953" on="0"/>
        <pt x="819" y="989" on="0"/>
        <pt x="714" y="1006" on="0"/>
        <pt x="655" y="1006" on="1"/>
        <pt x="595" y="1006" on="0"/>
        <pt x="490" y="990" on="0"/>
        <pt x="412" y="955" on="0"/>
        <pt x="367" y="899" on="0"/>
        <pt x="367" y="860" on="1"/>
        <pt x="367" y="825" on="0"/>
        <pt x="412" y="771" on="0"/>
        <pt x="490" y="733" on="0"/>
        <pt x="595" y="713" on="0"/>
        <pt x="655" y="713" on="1"/>
        <pt x="714" y="713" on="0"/>
        <pt x="819" y="731" on="0"/>
        <pt x="897" y="768" on="0"/>
        <pt x="942" y="823" on="0"/>
      </contour>
    </TTGlyph>
    <TTGlyph name="ellipsis" xMin="74" yMin="2" xMax="1438" yMax="303">
      <contour>
        <pt x="430" y="152" on="1"/>
        <pt x="430" y="121" on="0"/>
        <pt x="402" y="67" on="0"/>
        <pt x="354" y="26" on="0"/>
        <pt x="289" y="2" on="0"/>
        <pt x="252" y="2" on="1"/>
        <pt x="214" y="2" on="0"/>
        <pt x="149" y="26" on="0"/>
        <pt x="101" y="67" on="0"/>
        <pt x="74" y="121" on="0"/>
        <pt x="74" y="152" on="1"/>
        <pt x="74" y="183" on="0"/>
        <pt x="101" y="239" on="0"/>
        <pt x="149" y="279" on="0"/>
        <pt x="214" y="303" on="0"/>
        <pt x="252" y="303" on="1"/>
        <pt x="289" y="303" on="0"/>
        <pt x="354" y="279" on="0"/>
        <pt x="402" y="239" on="0"/>
        <pt x="430" y="183" on="0"/>
      </contour>
      <contour>
        <pt x="934" y="152" on="1"/>
        <pt x="934" y="121" on="0"/>
        <pt x="906" y="67" on="0"/>
        <pt x="858" y="26" on="0"/>
        <pt x="793" y="2" on="0"/>
        <pt x="756" y="2" on="1"/>
        <pt x="718" y="2" on="0"/>
        <pt x="653" y="26" on="0"/>
        <pt x="605" y="67" on="0"/>
        <pt x="578" y="121" on="0"/>
        <pt x="578" y="152" on="1"/>
        <pt x="578" y="183" on="0"/>
        <pt x="605" y="239" on="0"/>
        <pt x="653" y="279" on="0"/>
        <pt x="718" y="303" on="0"/>
        <pt x="756" y="303" on="1"/>
        <pt x="793" y="303" on="0"/>
        <pt x="858" y="279" on="0"/>
        <pt x="906" y="239" on="0"/>
        <pt x="934" y="183" on="0"/>
      </contour>
      <contour>
        <pt x="1438" y="152" on="1"/>
        <pt x="1438" y="121" on="0"/>
        <pt x="1410" y="67" on="0"/>
        <pt x="1362" y="26" on="0"/>
        <pt x="1297" y="2" on="0"/>
        <pt x="1260" y="2" on="1"/>
        <pt x="1222" y="2" on="0"/>
        <pt x="1157" y="26" on="0"/>
        <pt x="1109" y="67" on="0"/>
        <pt x="1081" y="121" on="0"/>
        <pt x="1081" y="152" on="1"/>
        <pt x="1081" y="183" on="0"/>
        <pt x="1109" y="239" on="0"/>
        <pt x="1157" y="279" on="0"/>
        <pt x="1222" y="303" on="0"/>
        <pt x="1260" y="303" on="1"/>
        <pt x="1297" y="303" on="0"/>
        <pt x="1362" y="279" on="0"/>
        <pt x="1410" y="239" on="0"/>
        <pt x="1438" y="183" on="0"/>
      </contour>
    </TTGlyph>
    <TTGlyph name="emacron" xMin="49" yMin="-43" xMax="1227" yMax="1332">
      <component glyphName="e" x="0" y="0" flags="0x204"/>
      <component glyphName="macron" x="274" y="-157" flags="0x4"/>
    </TTGlyph>
    <TTGlyph name="emdash" xMin="113" yMin="539" xMax="1341" yMax="840">
      <contour>
        <pt x="1341" y="840" on="1"/>
        <pt x="1341" y="539" on="1"/>
        <pt x="113" y="539" on="1"/>
        <pt x="113" y="840" on="1"/>
      </contour>
    </TTGlyph>
    <TTGlyph name="endash" xMin="113" yMin="539" xMax="932" yMax="840">
      <contour>
        <pt x="932" y="840" on="1"/>
        <pt x="932" y="539" on="1"/>
        <pt x="113" y="539" on="1"/>
        <pt x="113" y="840" on="1"/>
      </contour>
    </TTGlyph>
    <TTGlyph name="eng" xMin="41" yMin="-492" xMax="1354" yMax="1049">
      <contour>
        <pt x="766" y="193" on="1"/>
        <pt x="748" y="-23" on="1"/>
        <pt x="61" y="-18" on="1"/>
        <pt x="61" y="164" on="1"/>
        <pt x="268" y="172" on="1"/>
        <pt x="254" y="801" on="1"/>
        <pt x="41" y="795" on="1"/>
        <pt x="41" y="977" on="1"/>
        <pt x="602" y="1049" on="1"/>
        <pt x="588" y="858" on="1"/>
        <pt x="661" y="915" on="0"/>
        <pt x="804" y="978" on="0"/>
        <pt x="861" y="995" on="1"/>
        <pt x="928" y="1014" on="0"/>
        <pt x="989" y="1020" on="1"/>
        <pt x="1088" y="1020" on="0"/>
        <pt x="1227" y="967" on="0"/>
        <pt x="1314" y="870" on="0"/>
        <pt x="1354" y="734" on="0"/>
        <pt x="1354" y="651" on="1"/>
        <pt x="1290" y="-14" on="1"/>
        <pt x="1280" y="-116" on="0"/>
        <pt x="1202" y="-291" on="0"/>
        <pt x="1058" y="-419" on="0"/>
        <pt x="843" y="-492" on="0"/>
        <pt x="696" y="-492" on="1"/>
        <pt x="672" y="-492" on="0"/>
        <pt x="579" y="-486" on="0"/>
        <pt x="472" y="-468" on="0"/>
        <pt x="365" y="-437" on="0"/>
        <pt x="328" y="-412" on="1"/>
        <pt x="455" y="-201" on="1"/>
        <pt x="481" y="-223" on="0"/>
        <pt x="546" y="-270" on="0"/>
        <pt x="616" y="-309" on="0"/>
        <pt x="687" y="-334" on="0"/>
        <pt x="719" y="-334" on="1"/>
        <pt x="779" y="-334" on="0"/>
        <pt x="861" y="-295" on="0"/>
        <pt x="916" y="-214" on="0"/>
        <pt x="949" y="-89" on="0"/>
        <pt x="961" y="-2" on="1"/>
        <pt x="967" y="44" on="0"/>
        <pt x="980" y="158" on="0"/>
        <pt x="993" y="280" on="0"/>
        <pt x="1004" y="403" on="0"/>
        <pt x="1013" y="511" on="0"/>
        <pt x="1018" y="598" on="0"/>
        <pt x="1018" y="623" on="1"/>
        <pt x="1018" y="668" on="0"/>
        <pt x="1004" y="747" on="0"/>
        <pt x="969" y="807" on="0"/>
        <pt x="912" y="842" on="0"/>
        <pt x="870" y="844" on="1"/>
        <pt x="832" y="839" on="0"/>
        <pt x="786" y="820" on="1"/>
        <pt x="746" y="803" on="0"/>
        <pt x="639" y="738" on="0"/>
        <pt x="575" y="678" on="1"/>
        <pt x="541" y="182" on="1"/>
      </contour>
    </TTGlyph>
    <TTGlyph name="eogonek" xMin="49" yMin="-403" xMax="1227" yMax="1044">
      <contour>
        <pt x="1135" y="-350" on="1"/>
        <pt x="1065" y="-379" on="0"/>
        <pt x="952" y="-403" on="0"/>
        <pt x="905" y="-403" on="1"/>
        <pt x="857" y="-403" on="0"/>
        <pt x="767" y="-376" on="0"/>
        <pt x="697" y="-326" on="0"/>
        <pt x="655" y="-253" on="0"/>
        <pt x="655" y="-207" on="1"/>
        <pt x="655" y="-172" on="0"/>
        <pt x="683" y="-82" on="0"/>
        <pt x="723" y="-33" on="1"/>
        <pt x="692" y="-38" on="0"/>
        <pt x="631" y="-43" on="0"/>
        <pt x="602" y="-43" on="1"/>
        <pt x="474" y="-43" on="0"/>
        <pt x="274" y="37" on="0"/>
        <pt x="134" y="173" on="0"/>
        <pt x="55" y="356" on="0"/>
        <pt x="49" y="459" on="1"/>
        <pt x="49" y="616" on="0"/>
        <pt x="154" y="839" on="0"/>
        <pt x="335" y="979" on="0"/>
        <pt x="577" y="1044" on="0"/>
        <pt x="713" y="1044" on="1"/>
        <pt x="763" y="1044" on="0"/>
        <pt x="870" y="1030" on="0"/>
        <pt x="972" y="994" on="0"/>
        <pt x="1065" y="931" on="0"/>
        <pt x="1140" y="832" on="0"/>
        <pt x="1192" y="694" on="0"/>
        <pt x="1202" y="600" on="1"/>
        <pt x="381" y="453" on="1"/>
        <pt x="389" y="384" on="0"/>
        <pt x="430" y="252" on="0"/>
        <pt x="500" y="151" on="0"/>
        <pt x="603" y="92" on="0"/>
        <pt x="674" y="94" on="1"/>
        <pt x="751" y="103" on="0"/>
        <pt x="810" y="140" on="1"/>
        <pt x="835" y="156" on="0"/>
        <pt x="881" y="203" on="0"/>
        <pt x="915" y="269" on="0"/>
        <pt x="931" y="357" on="0"/>
        <pt x="926" y="414" on="1"/>
        <pt x="1227" y="342" on="1"/>
        <pt x="1185" y="234" on="0"/>
        <pt x="1034" y="81" on="0"/>
        <pt x="938" y="35" on="1"/>
        <pt x="884" y="-7" on="0"/>
        <pt x="834" y="-74" on="0"/>
        <pt x="823" y="-97" on="1"/>
        <pt x="811" y="-124" on="0"/>
        <pt x="813" y="-145" on="1"/>
        <pt x="817" y="-156" on="0"/>
        <pt x="828" y="-164" on="1"/>
        <pt x="837" y="-171" on="0"/>
        <pt x="872" y="-182" on="0"/>
        <pt x="901" y="-182" on="1"/>
        <pt x="930" y="-182" on="0"/>
        <pt x="1014" y="-167" on="0"/>
        <pt x="1073" y="-145" on="1"/>
      </contour>
      <contour>
        <pt x="848" y="664" on="1"/>
        <pt x="844" y="711" on="0"/>
        <pt x="818" y="781" on="0"/>
        <pt x="779" y="831" on="0"/>
        <pt x="732" y="864" on="0"/>
        <pt x="708" y="874" on="1"/>
        <pt x="652" y="897" on="0"/>
        <pt x="582" y="895" on="1"/>
        <pt x="516" y="887" on="0"/>
        <pt x="434" y="828" on="0"/>
        <pt x="389" y="741" on="0"/>
        <pt x="373" y="635" on="0"/>
        <pt x="373" y="580" on="1"/>
      </contour>
    </TTGlyph>
    <TTGlyph name="equal" xMin="102" yMin="231" xMax="973" yMax="983">
      <contour>
        <pt x="973" y="938" on="1"/>
        <pt x="944" y="723" on="1"/>
        <pt x="129" y="682" on="1"/>
        <pt x="102" y="983" on="1"/>
      </contour>
      <contour>
        <pt x="973" y="231" on="1"/>
        <pt x="102" y="276" on="1"/>
        <pt x="129" y="492" on="1"/>
        <pt x="944" y="532" on="1"/>
      </contour>
    </TTGlyph>
    <TTGlyph name="eth" xMin="51" yMin="-61" xMax="1192" yMax="1667">
      <contour>
        <pt x="289" y="1231" on="1"/>
        <pt x="289" y="1232" on="0"/>
        <pt x="311" y="1250" on="0"/>
        <pt x="351" y="1282" on="0"/>
        <pt x="406" y="1324" on="0"/>
        <pt x="438" y="1348" on="1"/>
        <pt x="378" y="1386" on="0"/>
        <pt x="240" y="1453" on="0"/>
        <pt x="162" y="1479" on="1"/>
        <pt x="416" y="1667" on="1"/>
        <pt x="448" y="1652" on="0"/>
        <pt x="487" y="1631" on="1"/>
        <pt x="520" y="1612" on="0"/>
        <pt x="610" y="1556" on="0"/>
        <pt x="662" y="1518" on="1"/>
        <pt x="700" y="1547" on="0"/>
        <pt x="767" y="1597" on="0"/>
        <pt x="792" y="1616" on="1"/>
        <pt x="821" y="1638" on="0"/>
        <pt x="846" y="1657" on="1"/>
        <pt x="979" y="1464" on="1"/>
        <pt x="817" y="1386" on="1"/>
        <pt x="889" y="1318" on="0"/>
        <pt x="1024" y="1146" on="0"/>
        <pt x="1129" y="936" on="0"/>
        <pt x="1192" y="687" on="0"/>
        <pt x="1192" y="543" on="1"/>
        <pt x="1191" y="541" on="0"/>
        <pt x="1191" y="541" on="1"/>
        <pt x="1190" y="541" on="1"/>
        <pt x="1190" y="539" on="1"/>
        <pt x="1190" y="403" on="0"/>
        <pt x="1103" y="181" on="0"/>
        <pt x="944" y="24" on="0"/>
        <pt x="719" y="-61" on="0"/>
        <pt x="582" y="-61" on="1"/>
        <pt x="443" y="-61" on="0"/>
        <pt x="242" y="23" on="0"/>
        <pt x="113" y="167" on="0"/>
        <pt x="51" y="359" on="0"/>
        <pt x="51" y="467" on="1"/>
        <pt x="51" y="612" on="0"/>
        <pt x="152" y="830" on="0"/>
        <pt x="325" y="975" on="0"/>
        <pt x="553" y="1047" on="0"/>
        <pt x="680" y="1047" on="1"/>
        <pt x="700" y="1047" on="0"/>
        <pt x="739" y="1044" on="0"/>
        <pt x="758" y="1042" on="1"/>
        <pt x="716" y="1099" on="0"/>
        <pt x="617" y="1209" on="0"/>
        <pt x="557" y="1262" on="1"/>
        <pt x="336" y="1155" on="1"/>
        <pt x="312" y="1191" on="1"/>
        <pt x="303" y="1205" on="0"/>
        <pt x="289" y="1229" on="0"/>
      </contour>
      <contour>
        <pt x="625" y="911" on="1"/>
        <pt x="572" y="911" on="0"/>
        <pt x="493" y="866" on="0"/>
        <pt x="436" y="793" on="0"/>
        <pt x="398" y="701" on="0"/>
        <pt x="376" y="606" on="0"/>
        <pt x="367" y="516" on="0"/>
        <pt x="367" y="483" on="1"/>
        <pt x="367" y="447" on="0"/>
        <pt x="377" y="358" on="0"/>
        <pt x="401" y="268" on="0"/>
        <pt x="441" y="182" on="0"/>
        <pt x="501" y="116" on="0"/>
        <pt x="582" y="76" on="0"/>
        <pt x="635" y="76" on="1"/>
        <pt x="689" y="76" on="0"/>
        <pt x="766" y="116" on="0"/>
        <pt x="819" y="182" on="0"/>
        <pt x="851" y="266" on="0"/>
        <pt x="868" y="353" on="0"/>
        <pt x="874" y="435" on="0"/>
        <pt x="874" y="467" on="1"/>
        <pt x="874" y="510" on="0"/>
        <pt x="865" y="610" on="0"/>
        <pt x="844" y="709" on="0"/>
        <pt x="807" y="800" on="0"/>
        <pt x="752" y="869" on="0"/>
        <pt x="675" y="911" on="0"/>
      </contour>
    </TTGlyph>
    <TTGlyph name="exclam" xMin="92" yMin="-4" xMax="551" yMax="1501">
      <contour>
        <pt x="551" y="1501" on="1"/>
        <pt x="455" y="467" on="1"/>
        <pt x="270" y="467" on="1"/>
        <pt x="92" y="1460" on="1"/>
      </contour>
      <contour>
        <pt x="551" y="162" on="1"/>
        <pt x="551" y="128" on="0"/>
        <pt x="520" y="68" on="0"/>
        <pt x="466" y="23" on="0"/>
        <pt x="394" y="-4" on="0"/>
        <pt x="352" y="-4" on="1"/>
        <pt x="311" y="-4" on="0"/>
        <pt x="239" y="23" on="0"/>
        <pt x="185" y="68" on="0"/>
        <pt x="154" y="128" on="0"/>
        <pt x="154" y="162" on="1"/>
        <pt x="154" y="196" on="0"/>
        <pt x="185" y="258" on="0"/>
        <pt x="239" y="303" on="0"/>
        <pt x="311" y="330" on="0"/>
        <pt x="352" y="330" on="1"/>
        <pt x="394" y="330" on="0"/>
        <pt x="466" y="303" on="0"/>
        <pt x="520" y="258" on="0"/>
        <pt x="551" y="196" on="0"/>
      </contour>
    </TTGlyph>
    <TTGlyph name="exclamdown" xMin="104" yMin="-414" xMax="563" yMax="1092">
      <contour>
        <pt x="104" y="-414" on="1"/>
        <pt x="201" y="621" on="1"/>
        <pt x="385" y="621" on="1"/>
        <pt x="563" y="-373" on="1"/>
      </contour>
      <contour>
        <pt x="104" y="926" on="1"/>
        <pt x="104" y="960" on="0"/>
        <pt x="135" y="1020" on="0"/>
        <pt x="189" y="1065" on="0"/>
        <pt x="262" y="1092" on="0"/>
        <pt x="303" y="1092" on="1"/>
        <pt x="344" y="1092" on="0"/>
        <pt x="416" y="1065" on="0"/>
        <pt x="470" y="1020" on="0"/>
        <pt x="502" y="960" on="0"/>
        <pt x="502" y="926" on="1"/>
        <pt x="502" y="891" on="0"/>
        <pt x="470" y="830" on="0"/>
        <pt x="416" y="785" on="0"/>
        <pt x="344" y="758" on="0"/>
        <pt x="303" y="758" on="1"/>
        <pt x="262" y="758" on="0"/>
        <pt x="189" y="785" on="0"/>
        <pt x="135" y="830" on="0"/>
        <pt x="104" y="891" on="0"/>
      </contour>
    </TTGlyph>
    <TTGlyph name="f" xMin="18" yMin="-29" xMax="1087" yMax="1455">
      <contour>
        <pt x="1014" y="852" on="1"/>
        <pt x="635" y="831" on="1"/>
        <pt x="633" y="811" on="0"/>
        <pt x="633" y="769" on="0"/>
        <pt x="633" y="748" on="1"/>
        <pt x="633" y="176" on="1"/>
        <pt x="891" y="186" on="1"/>
        <pt x="858" y="-29" on="1"/>
        <pt x="113" y="-8" on="1"/>
        <pt x="100" y="154" on="1"/>
        <pt x="324" y="162" on="1"/>
        <pt x="305" y="799" on="1"/>
        <pt x="305" y="815" on="1"/>
        <pt x="18" y="801" on="1"/>
        <pt x="18" y="1012" on="1"/>
        <pt x="311" y="999" on="1"/>
        <pt x="322" y="1107" on="0"/>
        <pt x="388" y="1277" on="0"/>
        <pt x="518" y="1393" on="0"/>
        <pt x="722" y="1454" on="0"/>
        <pt x="870" y="1454" on="1"/>
        <pt x="905" y="1455" on="0"/>
        <pt x="943" y="1451" on="1"/>
        <pt x="975" y="1447" on="0"/>
        <pt x="1052" y="1429" on="0"/>
        <pt x="1087" y="1411" on="1"/>
        <pt x="1051" y="1180" on="1"/>
        <pt x="1025" y="1218" on="0"/>
        <pt x="955" y="1256" on="0"/>
        <pt x="923" y="1264" on="1"/>
        <pt x="885" y="1274" on="0"/>
        <pt x="846" y="1274" on="1"/>
        <pt x="804" y="1265" on="0"/>
        <pt x="738" y="1231" on="0"/>
        <pt x="688" y="1166" on="0"/>
        <pt x="654" y="1063" on="0"/>
        <pt x="645" y="985" on="1"/>
        <pt x="1014" y="971" on="1"/>
      </contour>
    </TTGlyph>
    <TTGlyph name="fi" xMin="18" yMin="-29" xMax="1905" yMax="1455">
      <contour>
        <pt x="1905" y="227" on="1"/>
        <pt x="1872" y="-29" on="1"/>
        <pt x="1126" y="-8" on="1"/>
        <pt x="1094" y="174" on="1"/>
        <pt x="1397" y="193" on="1"/>
        <pt x="1395" y="782" on="1"/>
        <pt x="635" y="831" on="1"/>
        <pt x="633" y="811" on="0"/>
        <pt x="633" y="769" on="0"/>
        <pt x="633" y="748" on="1"/>
        <pt x="633" y="176" on="1"/>
        <pt x="891" y="186" on="1"/>
        <pt x="858" y="-29" on="1"/>
        <pt x="113" y="-8" on="1"/>
        <pt x="100" y="154" on="1"/>
        <pt x="324" y="162" on="1"/>
        <pt x="305" y="799" on="1"/>
        <pt x="305" y="815" on="1"/>
        <pt x="18" y="801" on="1"/>
        <pt x="18" y="1012" on="1"/>
        <pt x="311" y="999" on="1"/>
        <pt x="322" y="1107" on="0"/>
        <pt x="388" y="1277" on="0"/>
        <pt x="518" y="1393" on="0"/>
        <pt x="722" y="1454" on="0"/>
        <pt x="870" y="1454" on="1"/>
        <pt x="905" y="1455" on="0"/>
        <pt x="943" y="1451" on="1"/>
        <pt x="975" y="1447" on="0"/>
        <pt x="1052" y="1429" on="0"/>
        <pt x="1087" y="1411" on="1"/>
        <pt x="1051" y="1180" on="1"/>
        <pt x="1025" y="1218" on="0"/>
        <pt x="955" y="1256" on="0"/>
        <pt x="923" y="1264" on="1"/>
        <pt x="885" y="1274" on="0"/>
        <pt x="846" y="1274" on="1"/>
        <pt x="804" y="1265" on="0"/>
        <pt x="738" y="1231" on="0"/>
        <pt x="688" y="1166" on="0"/>
        <pt x="654" y="1063" on="0"/>
        <pt x="645" y="985" on="1"/>
        <pt x="1712" y="975" on="1"/>
        <pt x="1636" y="209" on="1"/>
      </contour>
      <contour>
        <pt x="1712" y="1210" on="1"/>
        <pt x="1712" y="1186" on="0"/>
        <pt x="1683" y="1143" on="0"/>
        <pt x="1633" y="1111" on="0"/>
        <pt x="1566" y="1092" on="0"/>
        <pt x="1528" y="1092" on="1"/>
        <pt x="1489" y="1092" on="0"/>
        <pt x="1422" y="1111" on="0"/>
        <pt x="1372" y="1143" on="0"/>
        <pt x="1343" y="1186" on="0"/>
        <pt x="1343" y="1210" on="1"/>
        <pt x="1343" y="1235" on="0"/>
        <pt x="1372" y="1280" on="0"/>
        <pt x="1422" y="1312" on="0"/>
        <pt x="1489" y="1331" on="0"/>
        <pt x="1528" y="1331" on="1"/>
        <pt x="1566" y="1331" on="0"/>
        <pt x="1633" y="1312" on="0"/>
        <pt x="1683" y="1280" on="0"/>
        <pt x="1712" y="1235" on="0"/>
      </contour>
    </TTGlyph>
    <TTGlyph name="five" xMin="72" yMin="-16" xMax="1233" yMax="1251">
      <contour>
        <pt x="1233" y="389" on="1"/>
        <pt x="1233" y="306" on="0"/>
        <pt x="1191" y="182" on="0"/>
        <pt x="1115" y="92" on="0"/>
        <pt x="1009" y="33" on="0"/>
        <pt x="885" y="-2" on="0"/>
        <pt x="746" y="-16" on="0"/>
        <pt x="674" y="-16" on="1"/>
        <pt x="494" y="-16" on="0"/>
        <pt x="201" y="28" on="0"/>
        <pt x="72" y="66" on="1"/>
        <pt x="119" y="383" on="1"/>
        <pt x="226" y="335" on="0"/>
        <pt x="418" y="284" on="0"/>
        <pt x="492" y="272" on="1"/>
        <pt x="578" y="258" on="0"/>
        <pt x="653" y="256" on="1"/>
        <pt x="717" y="256" on="0"/>
        <pt x="830" y="284" on="0"/>
        <pt x="912" y="338" on="0"/>
        <pt x="956" y="418" on="0"/>
        <pt x="952" y="469" on="1"/>
        <pt x="949" y="521" on="0"/>
        <pt x="903" y="592" on="0"/>
        <pt x="820" y="636" on="0"/>
        <pt x="699" y="655" on="0"/>
        <pt x="621" y="655" on="1"/>
        <pt x="560" y="653" on="0"/>
        <pt x="493" y="643" on="1"/>
        <pt x="436" y="634" on="0"/>
        <pt x="291" y="598" on="0"/>
        <pt x="217" y="563" on="1"/>
        <pt x="94" y="610" on="1"/>
        <pt x="221" y="1251" on="1"/>
        <pt x="1233" y="1251" on="1"/>
        <pt x="1204" y="950" on="1"/>
        <pt x="408" y="977" on="1"/>
        <pt x="317" y="715" on="1"/>
        <pt x="377" y="740" on="0"/>
        <pt x="504" y="768" on="0"/>
        <pt x="557" y="774" on="1"/>
        <pt x="619" y="781" on="0"/>
        <pt x="678" y="782" on="1"/>
        <pt x="729" y="782" on="0"/>
        <pt x="850" y="771" on="0"/>
        <pt x="973" y="741" on="0"/>
        <pt x="1089" y="687" on="0"/>
        <pt x="1178" y="599" on="0"/>
        <pt x="1232" y="475" on="0"/>
      </contour>
    </TTGlyph>
    <TTGlyph name="fl" xMin="18" yMin="-29" xMax="1800" yMax="1456">
      <contour>
        <pt x="1800" y="231" on="1"/>
        <pt x="1767" y="-27" on="1"/>
        <pt x="1022" y="-4" on="1"/>
        <pt x="1012" y="176" on="1"/>
        <pt x="1264" y="193" on="1"/>
        <pt x="1262" y="1194" on="1"/>
        <pt x="1199" y="1224" on="0"/>
        <pt x="1072" y="1256" on="0"/>
        <pt x="1021" y="1264" on="1"/>
        <pt x="961" y="1273" on="0"/>
        <pt x="907" y="1274" on="1"/>
        <pt x="860" y="1274" on="0"/>
        <pt x="767" y="1240" on="0"/>
        <pt x="692" y="1170" on="0"/>
        <pt x="645" y="1060" on="0"/>
        <pt x="645" y="985" on="1"/>
        <pt x="1014" y="971" on="1"/>
        <pt x="1014" y="852" on="1"/>
        <pt x="635" y="831" on="1"/>
        <pt x="633" y="811" on="0"/>
        <pt x="633" y="769" on="0"/>
        <pt x="633" y="748" on="1"/>
        <pt x="633" y="176" on="1"/>
        <pt x="891" y="186" on="1"/>
        <pt x="858" y="-29" on="1"/>
        <pt x="113" y="-8" on="1"/>
        <pt x="100" y="154" on="1"/>
        <pt x="324" y="162" on="1"/>
        <pt x="305" y="799" on="1"/>
        <pt x="305" y="815" on="1"/>
        <pt x="18" y="801" on="1"/>
        <pt x="18" y="1012" on="1"/>
        <pt x="311" y="999" on="1"/>
        <pt x="322" y="1107" on="0"/>
        <pt x="388" y="1277" on="0"/>
        <pt x="518" y="1393" on="0"/>
        <pt x="722" y="1454" on="0"/>
        <pt x="870" y="1454" on="1"/>
        <pt x="1602" y="1456" on="1"/>
        <pt x="1503" y="211" on="1"/>
      </contour>
    </TTGlyph>
    <TTGlyph name="four" xMin="14" yMin="-16" xMax="1323" yMax="1319">
      <contour>
        <pt x="1286" y="12" on="1"/>
        <pt x="338" y="-16" on="1"/>
        <pt x="367" y="291" on="1"/>
        <pt x="801" y="291" on="1"/>
        <pt x="793" y="502" on="1"/>
        <pt x="43" y="459" on="1"/>
        <pt x="14" y="610" on="1"/>
        <pt x="645" y="1319" on="1"/>
        <pt x="1075" y="1266" on="1"/>
        <pt x="1016" y="676" on="1"/>
        <pt x="1323" y="690" on="1"/>
        <pt x="1323" y="535" on="1"/>
        <pt x="999" y="514" on="1"/>
        <pt x="977" y="291" on="1"/>
        <pt x="1286" y="291" on="1"/>
      </contour>
      <contour>
        <pt x="442" y="649" on="1"/>
        <pt x="786" y="666" on="1"/>
        <pt x="772" y="1077" on="1"/>
      </contour>
    </TTGlyph>
    <TTGlyph name="fraction" xMin="-18" yMin="45" xMax="911" yMax="1169">
      <contour>
        <pt x="911" y="1085" on="1"/>
        <pt x="74" y="45" on="1"/>
        <pt x="-18" y="94" on="1"/>
        <pt x="760" y="1169" on="1"/>
      </contour>
    </TTGlyph>
</ttFont>
